<?xml version="1.0" encoding="utf-8"?>
<!-- Generator: Adobe Illustrator 27.5.0, SVG Export Plug-In . SVG Version: 6.00 Build 0)  -->
<svg version="1.1" id="Layer_1" xmlns="http://www.w3.org/2000/svg" xmlns:xlink="http://www.w3.org/1999/xlink" x="0px" y="0px"
	 viewBox="0 0 450 450" style="enable-background:new 0 0 450 450;" xml:space="preserve">
<g>
	<path style="fill:#639DAA;" d="M241.775,62.348l0.442,2.6c1.346,1.036,2.469,2.273,3.181,3.749
		c1.158,2.399,1.712,4.098,1.909,5.301c1.814,1.76,3.372,4.196,2.686,7.067l4.843-3.931c2.059-1.671,2.859-4.45,2.001-6.959
		c-3.297-9.647-11.892-15.4-17.038-18.088c-1.261-0.659-2.671-0.853-4.011-0.618C238.847,54.224,241.036,58.001,241.775,62.348z"/>
	<path style="fill:#7FB8CC;" d="M222.398,56.882c1.335,0.223,2.535,0.771,3.531,1.549c0.941-0.78,2.2-1.166,3.501-0.949
		c1.815,0.304,3.176,1.69,3.539,3.386c3.014,0.759,6.574,2.022,9.248,4.079l-0.442-2.6c-0.739-4.347-2.928-8.124-5.987-10.879
		c-4.003-3.605-9.496-5.461-15.193-4.546c-0.273,0.044-0.545,0.094-0.818,0.151c-3.738,0.778-5.872,4.743-4.484,8.3l1.146,2.939
		C218.09,57.093,220.214,56.516,222.398,56.882z"/>
	<path style="fill:#6D557F;" d="M188.687,228.457c-1.43-0.602-2.931-0.969-4.478-1.175c-6.193,12.868-15.203,31.556-20.422,42.225
		c-3.776,2.847-10.16,9.849-1.389,20.574l7.049,31.322c6.879,7.894,15.435,14.306,24.944,18.575
		c1.304,0.575,2.659,1.079,4.053,1.513c-0.249-34.267-3.16-49.778-8.684-61.849c4.75-4.876,12.705-13.019,20.349-20.737
		C207.944,245.925,201.991,234.311,188.687,228.457z"/>
	<path style="fill:#554368;" d="M208.425,223.376l-17.519,0.122l0.024,0.553l-5.213,0.096c-0.48,0.998-0.984,2.045-1.508,3.135
		c1.547,0.205,3.049,0.573,4.478,1.175c13.304,5.854,19.258,17.468,21.421,30.45c4.807-4.852,9.488-9.534,13.168-13.124
		c-0.55-4.592-1.009-8.811-1.322-12.257C213.487,233.92,209.916,227.951,208.425,223.376z"/>
	<path style="fill:#6D557F;" d="M232.765,223.012l-0.015,0.193l-24.326,0.17c1.491,4.575,5.062,10.544,13.529,10.15
		c0.313,3.447,0.772,7.665,1.322,12.257c1.119,9.335,2.616,20.207,4.039,29.26c-1.506,3.599-3.668,11.312,1.972,17.37l2.476,35.226
		c2.159,2.644,4.769,4.838,7.934,6.321c6.294,2.822,13.481,3.561,20.44,2.525c1.874-23.772-0.919-35.756-3.392-51.74
		c1.309-7.091,3.251-16.574,6.08-28.406c2.541-10.626,0.665-23.652-2.37-35.197C249.545,223.163,240.296,223.494,232.765,223.012z"
		/>
	<path style="fill:#FAD4C8;" d="M136.67,172.381c-2.495,0.347-4.751,0.763-5.79,1.221c-2.203,0.972-7.23,3.856-9.679,5.282
		c-0.713,0.415-0.439,1.505,0.386,1.533c0.162,0.005,0.343-0.002,0.533-0.015c-0.251-0.024-0.503-0.072-0.74-0.17
		c-0.272-0.106-0.558-0.327-0.586-0.628c0.039,0.141,0.145,0.245,0.259,0.318c0.114,0.076,0.245,0.123,0.379,0.153
		c0.269,0.059,0.548,0.07,0.827,0.046c0.556-0.034,1.116-0.155,1.656-0.298c0.536-0.146,1.061-0.352,1.577-0.585
		c0.519-0.226,1.035-0.476,1.557-0.723c0.524-0.241,1.059-0.473,1.604-0.685c0.553-0.192,1.108-0.388,1.686-0.501
		c1.146-0.255,2.34-0.311,3.482-0.111c-1.158,0.05-2.283,0.237-3.365,0.565c-0.837,0.251-1.645,0.585-2.447,0.95
		c0.092-0.032,0.183-0.063,0.275-0.094c-2.245,1.586-5.411,4.042-7.201,5.446c-0.636,0.499-0.285,1.475,0.454,1.53
		c-0.218-0.075-0.42-0.215-0.489-0.431c0.068,0.129,0.195,0.208,0.322,0.254c0.128,0.049,0.266,0.067,0.403,0.066
		c0.275-0.001,0.55-0.051,0.818-0.136c0.535-0.155,1.056-0.395,1.551-0.653c0.492-0.26,0.958-0.575,1.411-0.916
		c0.457-0.334,0.906-0.691,1.362-1.046c0.459-0.35,0.93-0.693,1.415-1.019c0.498-0.308,0.996-0.621,1.536-0.857
		c1.063-0.5,2.216-0.816,3.374-0.869c-1.119,0.303-2.176,0.731-3.16,1.287c-0.986,0.553-1.894,1.231-2.8,1.936
		c-0.916,0.686-1.836,1.432-2.937,1.906c-0.541,0.234-1.097,0.419-1.684,0.516c0.012,0.107,0.087,0.21,0.206,0.303
		c-0.069-0.079-0.12-0.17-0.139-0.275c0.051,0.137,0.166,0.231,0.286,0.294c0.12,0.065,0.255,0.101,0.391,0.119
		c0.273,0.035,0.552,0.021,0.828-0.027c0.551-0.083,1.098-0.253,1.623-0.443c0.522-0.193,1.026-0.444,1.519-0.723
		c0.497-0.271,0.989-0.566,1.487-0.858c0.501-0.286,1.013-0.565,1.537-0.824c0.533-0.24,1.069-0.485,1.635-0.648
		c1.119-0.356,2.303-0.517,3.459-0.419c-0.289,0.039-0.575,0.085-0.858,0.141c-1.602,1.642-3.509,3.718-4.638,4.961
		c-0.494,0.544,0.035,1.404,0.74,1.195c0.414-0.122,0.91-0.341,1.497-0.708c1.646-1.03,3.894-2.822,5.597-3.988L136.67,172.381z"/>
	<path style="fill:#FAD4C8;" d="M134.12,168.317c0,0,0.569-0.184,0.833,1.795c-3.18,0.677-3.848-0.927-3.848-0.927
		c-1.414,0.64,1.214,3.217,5.503,2.574l-0.42-4.106C135.469,167.878,134.767,168.108,134.12,168.317z"/>
	<path style="fill:#FAD4C8;" d="M131.448,169.082c-0.133,0.024-0.248,0.059-0.344,0.102l0.377-0.108
		C131.471,169.078,131.458,169.081,131.448,169.082z"/>
	<path style="fill:#E2A89F;" d="M134.952,170.112c-0.264-1.979-0.832-1.795-0.832-1.795l-2.639,0.759l-0.377,0.108
		C131.105,169.184,131.772,170.788,134.952,170.112z"/>
	<path style="fill:#D19A93;" d="M130.457,177.782c1.081-0.328,2.207-0.515,3.365-0.565c-1.142-0.201-2.336-0.144-3.482,0.111
		c-0.578,0.113-1.133,0.309-1.686,0.501c-0.544,0.212-1.08,0.444-1.604,0.685c-0.522,0.247-1.038,0.497-1.557,0.723
		c-0.517,0.234-1.041,0.439-1.577,0.585c-0.54,0.143-1.1,0.264-1.656,0.298c-0.279,0.024-0.559,0.013-0.827-0.046
		c-0.134-0.029-0.265-0.077-0.379-0.153c-0.114-0.073-0.22-0.177-0.259-0.318c0.027,0.301,0.313,0.522,0.586,0.628
		c0.237,0.097,0.489,0.145,0.74,0.17c0.046,0.005,0.092,0.01,0.137,0.013c0.596,0.034,1.182-0.025,1.763-0.136
		c1.178-0.222,2.239-0.749,3.283-1.218c0.236-0.111,0.471-0.221,0.708-0.328C128.813,178.367,129.621,178.033,130.457,177.782z"/>
	<path style="fill:#D19A93;" d="M127.282,183.229c0.906-0.705,1.814-1.383,2.8-1.936c0.983-0.556,2.041-0.984,3.16-1.287
		c-1.158,0.054-2.311,0.37-3.374,0.869c-0.54,0.236-1.038,0.549-1.536,0.857c-0.485,0.326-0.956,0.669-1.415,1.019
		c-0.455,0.355-0.905,0.712-1.362,1.046c-0.453,0.341-0.92,0.656-1.411,0.916c-0.495,0.258-1.016,0.498-1.551,0.653
		c-0.267,0.085-0.543,0.135-0.818,0.136c-0.137,0.001-0.275-0.017-0.403-0.066c-0.127-0.046-0.254-0.125-0.322-0.254
		c0.07,0.216,0.271,0.356,0.489,0.431c0.073,0.025,0.147,0.043,0.22,0.054c0.299,0.051,0.603,0.032,0.896-0.014
		c0.002,0,0.005-0.001,0.007-0.002c0.587-0.097,1.143-0.282,1.684-0.516C125.446,184.661,126.366,183.915,127.282,183.229z"/>
	<path style="fill:#D19A93;" d="M132.035,182.568c-0.566,0.164-1.102,0.408-1.635,0.648c-0.523,0.259-1.036,0.538-1.537,0.824
		c-0.498,0.292-0.991,0.587-1.487,0.858c-0.494,0.278-0.998,0.529-1.519,0.723c-0.525,0.19-1.072,0.36-1.623,0.443
		c-0.276,0.049-0.555,0.062-0.828,0.027c-0.136-0.018-0.271-0.054-0.391-0.119c-0.12-0.063-0.235-0.157-0.286-0.294
		c0.019,0.105,0.07,0.196,0.139,0.275c0.127,0.145,0.318,0.246,0.5,0.299c0.29,0.09,0.594,0.111,0.89,0.104
		c0.597-0.019,1.175-0.129,1.745-0.291c1.154-0.326,2.164-0.945,3.162-1.504c0.99-0.58,1.98-1.133,3.03-1.552
		c0.784-0.316,1.601-0.556,2.444-0.72c0.283-0.055,0.569-0.102,0.858-0.141C134.338,182.051,133.154,182.213,132.035,182.568z"/>
	<path style="fill:#FAD4C8;" d="M188.005,155.725l4.566,0.009c0.408-0.983,0.813-2.022,1.204-3.07
		c-2.803-0.656-6.012-1.853-9.302-3.99c-0.583,2.368-1.327,4.499-2.152,6.393l5.652-0.086L188.005,155.725z"/>
	<path style="fill:#BF7C75;" d="M200.466,155.751c-0.025-0.189-0.05-0.377-0.074-0.565c-0.104-0.592-0.215-1.191-0.331-1.789
		c-1.614,0.007-3.789-0.148-6.286-0.732c-0.391,1.048-0.796,2.086-1.204,3.07L200.466,155.751z"/>
	<path style="fill:#FAD4C8;" d="M222.063,127.248C222.065,127.25,222.062,127.246,222.063,127.248L222.063,127.248z"/>
	<path style="fill:#639DAA;" d="M210.015,108.237c-0.973-0.221-1.909-0.365-2.812-0.444L210.015,108.237L210.015,108.237z"/>
	<path style="fill:#639DAA;" d="M191.563,141.518c2.526-0.819,4.682-2.096,6.564-3.693c-2.377-18.395,8.352-29.568,8.825-30.05
		c-17.004-1.262-21.669,21.802-22.941,33.577C186.508,142.14,189.173,142.2,191.563,141.518z"/>
	<path style="fill:#538F99;" d="M200.061,153.397c0.033,0,0.063-0.001,0.096-0.001c-0.933-7.1-1.634-12.494-1.87-14.445
		c-0.059-0.379-0.111-0.753-0.159-1.126c-1.882,1.598-4.039,2.874-6.564,3.693c-2.39,0.683-5.055,0.623-7.551-0.166
		c-0.432,3.998-0.472,6.694-0.472,6.694c0.311,0.219,0.622,0.428,0.933,0.63c3.29,2.137,6.499,3.335,9.302,3.99
		C196.272,153.249,198.447,153.403,200.061,153.397z"/>
	<path style="fill:#FAD4C8;" d="M219.584,104.274c0.598,0.086,1.213,0.08,1.824-0.026c2.612-0.455,5.639-1.101,7.676-1.588
		c1.515-0.363,2.799-1.374,3.487-2.772c0.703-1.427,1.146-2.83,1.413-3.86l0.711-0.378c0.473,0.122,0.997,0.129,1.553,0.04
		c-0.44,4.15-3.155,20.894-17.994,14.37l1.112,5.399l2.699,11.79l0,0l4.588-10.364l10.349-10.773
		c-0.381-4.093,0.361-8.363,0.955-10.939c3.585-1.532,7.451-5.693,6.6-7.515c-0.087-0.186-0.219-0.35-0.409-0.482
		c-2.46-1.702-8.171,1.424-9.602,2.257l-0.792-0.919c0,0,5.056-16.79-5.417-18.401c-2.14,3.98-9.804,4.519-11.891,0.837
		c-0.272-0.201-0.531-0.417-0.773-0.65c-0.593,1.086-1.179,3.082-1.741,5.527c0.309-0.191,0.651-0.336,1.01-0.423
		c0.706-0.173,1.452-0.116,2.104,0.139c0.648,0.257,1.221,0.714,1.508,1.332c-0.656-0.155-1.214-0.234-1.755-0.247
		c-0.536-0.014-1.042,0.037-1.521,0.154c-0.478,0.119-0.95,0.305-1.419,0.565c-0.1,0.055-0.2,0.115-0.299,0.176
		c-1.11,5.302-2.099,12.01-2.809,16.29c-0.081,0.491-0.024,0.999,0.183,1.452c1.103,2.422,2.884,4.567,5.145,7.12
		c0.912,1.029,2.145,1.683,3.467,1.883c-0.442,1.266-1.021,2.501-1.772,3.464l0.024,0.117
		C218.541,106.981,219.354,105.74,219.584,104.274z M240.115,89.322c-0.474,0.224-0.925,0.471-1.361,0.744
		c-0.09,0.056-0.177,0.119-0.265,0.177c0.073,0.019,0.144,0.043,0.211,0.077c0.182,0.091,0.339,0.235,0.442,0.416
		c0.1,0.182,0.155,0.4,0.087,0.644c-0.249-0.034-0.414-0.067-0.562-0.104c-0.145-0.037-0.265-0.079-0.378-0.136
		c-0.114-0.056-0.219-0.127-0.336-0.221c-0.059-0.048-0.12-0.101-0.187-0.163c-0.093,0.07-0.186,0.137-0.278,0.211
		c-0.415,0.326-0.811,0.685-1.253,1.067c0.108-0.575,0.383-1.102,0.734-1.569c0.355-0.464,0.797-0.867,1.297-1.177
		c0.499-0.311,1.054-0.536,1.629-0.651c0.144-0.028,0.29-0.047,0.435-0.063c0.148-0.006,0.291-0.017,0.439-0.017
		c0.29,0.009,0.643,0.057,0.847,0.287c-0.292-0.037-0.525,0.054-0.771,0.155C240.596,89.099,240.352,89.211,240.115,89.322z
		 M228.159,77.846c0.894,0.112,1.79,0.426,2.565,0.971c0.774,0.535,1.414,1.336,1.711,2.239c0.15,0.45,0.22,0.926,0.195,1.39
		c-0.036,0.465-0.15,0.92-0.392,1.298c-0.115-0.881-0.411-1.593-0.815-2.218c-0.406-0.625-0.914-1.124-1.515-1.548
		c-0.599-0.422-1.28-0.763-2.013-1.051c-0.741-0.29-1.497-0.536-2.363-0.717C226.331,77.802,227.273,77.742,228.159,77.846z
		 M228.782,85.538c0,0-0.449-1.412-2.46-2.261c0.124,0.4,0.061,0.896-0.193,1.266c-0.346,0.503-0.912,0.579-1.264,0.171
		c-0.352-0.408-0.357-1.146-0.011-1.649c0.051-0.074,0.108-0.136,0.167-0.191c-0.16-0.035-0.321-0.069-0.494-0.096
		C227.231,81.695,229.015,83.493,228.782,85.538z M219.2,84.181c0.1-0.136,0.196-0.274,0.285-0.418
		c0.173-0.29,0.349-0.582,0.487-0.896c0.137-0.314,0.275-0.632,0.386-0.965c0.105-0.338,0.198-0.681,0.288-1.027
		c0.34-1.391,0.511-2.85,0.778-4.309c0.151,1.472,0.202,2.959-0.01,4.456c-0.05,0.374-0.119,0.747-0.213,1.117
		c-0.088,0.374-0.189,0.752-0.344,1.111c-0.152,0.36-0.32,0.719-0.544,1.047c-0.109,0.165-0.229,0.324-0.353,0.48
		c-0.13,0.156-0.246,0.296-0.416,0.46c-0.32,0.293-0.637,0.49-0.921,0.7c-0.283,0.205-0.539,0.416-0.687,0.636
		c-0.146,0.218-0.183,0.43-0.107,0.659c0.077,0.233,0.274,0.479,0.514,0.692c1.031,0.83,2.336,1.348,3.801,1.672
		c-1.453,0.396-3.172,0.08-4.385-1.011c-0.305-0.273-0.606-0.601-0.772-1.066c-0.176-0.467-0.078-1.055,0.191-1.442
		c0.261-0.395,0.589-0.651,0.891-0.884c0.302-0.23,0.604-0.435,0.821-0.645C218.985,84.457,219.099,84.31,219.2,84.181z
		 M214.644,80.612c0.051-0.074,0.108-0.136,0.167-0.191c-0.16-0.035-0.321-0.069-0.494-0.096c2.704-1.084,4.488,0.714,4.256,2.76
		c0,0-0.449-1.412-2.46-2.261c0.124,0.4,0.061,0.896-0.193,1.266c-0.346,0.503-0.912,0.579-1.264,0.171
		C214.303,81.853,214.298,81.115,214.644,80.612z M214.968,91.985c-0.173-0.149,1.119-0.261,2.039-0.321
		c0.563-0.037,1.111,0.133,1.559,0.482l0.439,0.342l0.319-0.129c0.647-0.262,1.35-0.241,1.948,0.075
		c0.873,0.461,2.521,1.052,5.245,1.076C224.482,94.523,217.878,94.484,214.968,91.985z M218.338,95.633
		c-0.251-0.061-0.506-0.123-0.79-0.243c0.239-0.196,0.512-0.295,0.79-0.356c0.278-0.056,0.563-0.063,0.842-0.025
		c0.279,0.037,0.553,0.121,0.806,0.252c0.251,0.135,0.489,0.31,0.656,0.57c-0.307,0.028-0.566,0.018-0.823,0.007
		c-0.254-0.015-0.499-0.038-0.743-0.073C218.832,95.732,218.589,95.689,218.338,95.633z"/>
	<path style="fill:#E2A89F;" d="M236.247,95.689c-0.556,0.089-1.08,0.082-1.553-0.04l-0.711,0.378
		c-0.267,1.03-0.71,2.432-1.413,3.86c-0.688,1.398-1.972,2.409-3.487,2.772c-2.037,0.487-5.064,1.133-7.676,1.588
		c-0.611,0.107-1.226,0.112-1.824,0.026c-0.23,1.466-1.042,2.707-1.785,3.575l0.455,2.21
		C233.093,116.584,235.808,99.84,236.247,95.689z"/>
	<path style="fill:#4B3C4F;" d="M224.854,83.066c-0.346,0.503-0.341,1.241,0.011,1.649c0.352,0.408,0.918,0.331,1.264-0.171
		c0.255-0.37,0.317-0.866,0.193-1.266c2.011,0.849,2.46,2.261,2.46,2.261c0.232-2.045-1.551-3.843-4.256-2.76
		c0.173,0.027,0.334,0.061,0.494,0.096C224.961,82.93,224.905,82.992,224.854,83.066z"/>
	<path style="fill:#E2A89F;" d="M234.655,70.619c-1.403-0.678-4.104-1.238-7.083-1.542c-1.676,2.433-4.659,3.814-7.765,3.294
		c-1.261-0.211-2.399-0.713-3.362-1.423c2.087,3.682,9.751,3.143,11.891-0.837c10.473,1.611,5.417,18.401,5.417,18.401
		s3.077-7.398,3.603-12.286C237.597,73.995,236.676,71.595,234.655,70.619z"/>
	<path style="fill:#D19A93;" d="M220.642,95.831c-0.168-0.26-0.405-0.435-0.656-0.57c-0.253-0.131-0.527-0.215-0.806-0.252
		c-0.279-0.038-0.564-0.031-0.842,0.025c-0.277,0.061-0.55,0.16-0.79,0.356c0.284,0.119,0.539,0.182,0.79,0.243
		c0.25,0.056,0.494,0.099,0.738,0.133c0.244,0.034,0.489,0.058,0.743,0.073C220.076,95.85,220.335,95.86,220.642,95.831z"/>
	<path style="fill:#E2A89F;" d="M226.517,93.508c-2.725-0.023-4.373-0.615-5.245-1.076c-0.598-0.315-1.301-0.337-1.948-0.075
		l-0.319,0.129l-0.439-0.342c-0.448-0.349-0.995-0.519-1.559-0.482c-0.921,0.06-2.213,0.172-2.039,0.321
		C217.878,94.484,224.482,94.523,226.517,93.508z"/>
	<path style="fill:#D19A93;" d="M217.178,86.075c-0.27,0.387-0.368,0.975-0.191,1.442c0.166,0.465,0.467,0.794,0.772,1.066
		c1.214,1.091,2.932,1.408,4.385,1.011c-1.465-0.324-2.771-0.842-3.801-1.672c-0.24-0.213-0.437-0.459-0.514-0.692
		c-0.076-0.229-0.04-0.441,0.107-0.659c0.148-0.219,0.404-0.431,0.687-0.636c0.284-0.21,0.601-0.407,0.921-0.7
		c0.17-0.165,0.286-0.305,0.416-0.46c0.124-0.156,0.243-0.314,0.353-0.48c0.224-0.328,0.392-0.687,0.544-1.047
		c0.156-0.359,0.257-0.737,0.344-1.111c0.094-0.369,0.163-0.742,0.213-1.117c0.212-1.498,0.161-2.984,0.01-4.456
		c-0.268,1.459-0.438,2.918-0.778,4.309c-0.09,0.346-0.182,0.69-0.288,1.027c-0.111,0.333-0.249,0.651-0.386,0.965
		c-0.138,0.315-0.314,0.606-0.487,0.896c-0.088,0.144-0.185,0.282-0.285,0.418c-0.101,0.129-0.215,0.276-0.31,0.366
		c-0.217,0.21-0.519,0.415-0.821,0.645C217.767,85.424,217.438,85.68,217.178,86.075z"/>
	<path style="fill:#4B3C4F;" d="M215.279,76.782c0.479-0.117,0.984-0.169,1.521-0.154c0.54,0.013,1.098,0.092,1.755,0.247
		c-0.288-0.618-0.86-1.075-1.508-1.332c-0.651-0.256-1.397-0.312-2.104-0.139c-0.36,0.087-0.701,0.232-1.01,0.423
		c-0.298,0.184-0.567,0.41-0.793,0.669c-0.457,0.526-0.755,1.196-0.724,1.878c0.404-0.346,0.775-0.62,1.145-0.85
		c0.1-0.062,0.199-0.121,0.299-0.176C214.329,77.087,214.8,76.9,215.279,76.782z"/>
	<path style="fill:#4B3C4F;" d="M229.906,79.977c0.601,0.424,1.11,0.923,1.515,1.548c0.404,0.626,0.7,1.338,0.815,2.218
		c0.243-0.378,0.357-0.833,0.392-1.298c0.025-0.465-0.045-0.94-0.195-1.39c-0.297-0.903-0.937-1.704-1.711-2.239
		c-0.775-0.544-1.671-0.858-2.565-0.971c-0.886-0.105-1.828-0.044-2.628,0.363c0.866,0.181,1.622,0.427,2.363,0.717
		C228.627,79.214,229.307,79.555,229.906,79.977z"/>
	<path style="fill:#4B3C4F;" d="M219.807,72.372c3.106,0.52,6.089-0.862,7.765-3.294c2.979,0.303,5.679,0.863,7.083,1.542
		c2.021,0.976,2.942,3.376,2.701,5.607c-0.527,4.888-3.603,12.286-3.603,12.286l0.792,0.919c1.431-0.834,7.142-3.959,9.602-2.257
		c0.191,0.132,0.323,0.296,0.409,0.482c3.371-2.355,4.956-4.58,5.437-6.591c0.686-2.871-0.872-5.307-2.686-7.067
		c-0.197-1.204-0.75-2.902-1.909-5.301c-0.713-1.477-1.835-2.713-3.181-3.749c-2.674-2.057-6.234-3.32-9.248-4.079
		c-0.364-1.696-1.724-3.083-3.539-3.386c-1.3-0.217-2.56,0.168-3.501,0.949c-0.997-0.778-2.196-1.326-3.531-1.549
		c-2.185-0.365-4.308,0.211-5.96,1.43c-1.582,1.168-2.731,2.927-3.081,5.019c-0.445,2.661,0.504,5.231,2.315,6.968
		c0.242,0.232,0.501,0.449,0.773,0.65C217.408,71.659,218.546,72.161,219.807,72.372z"/>
	<path style="fill:#4B3C4F;" d="M215.919,82.09c0.255-0.37,0.317-0.866,0.193-1.266c2.011,0.849,2.46,2.261,2.46,2.261
		c0.232-2.045-1.551-3.843-4.256-2.76c0.173,0.027,0.334,0.061,0.494,0.096c-0.059,0.055-0.116,0.117-0.167,0.191
		c-0.346,0.503-0.341,1.241,0.012,1.649C215.008,82.669,215.573,82.592,215.919,82.09z"/>
	<path style="fill:#D19A93;" d="M241.616,88.845c-0.204-0.23-0.557-0.277-0.847-0.287c-0.148,0-0.291,0.011-0.439,0.017
		c-0.145,0.016-0.291,0.034-0.435,0.063c-0.575,0.115-1.13,0.34-1.629,0.651c-0.501,0.31-0.942,0.713-1.297,1.177
		c-0.351,0.467-0.626,0.994-0.734,1.569c0.441-0.382,0.837-0.741,1.253-1.067c0.092-0.073,0.186-0.14,0.278-0.211
		c0.068,0.063,0.129,0.115,0.187,0.163c0.117,0.094,0.222,0.165,0.336,0.221c0.113,0.057,0.234,0.098,0.378,0.136
		c0.148,0.036,0.313,0.07,0.562,0.104c0.069-0.244,0.013-0.462-0.087-0.644c-0.103-0.181-0.26-0.325-0.442-0.416
		c-0.067-0.034-0.139-0.058-0.211-0.077c0.088-0.058,0.175-0.121,0.265-0.177c0.436-0.272,0.887-0.519,1.361-0.744
		c0.237-0.111,0.481-0.223,0.73-0.323C241.091,88.898,241.324,88.808,241.616,88.845z"/>
	<path style="fill:#749DAF;" d="M246.324,201.046c-1.715-0.78-3.429-1.591-5.138-2.434c-2.052,0.52-4.287,1.07-6.708,1.648
		l-1.712,22.752c7.531,0.481,16.779,0.151,27.689-1.872c0.042-0.008,0.084-0.015,0.126-0.023c0.498-4.58,0.879-9.559,1.168-14.698
		C256.485,205.097,251.329,203.34,246.324,201.046z"/>
	<path style="fill:#7FB8CC;" d="M259.017,193.572c0,0-5.748,1.981-17.832,5.041c1.709,0.842,3.423,1.654,5.138,2.434
		c5.005,2.294,10.162,4.051,15.425,5.374c0.28-4.983,0.474-10.116,0.603-15.183C261.35,192.516,260.239,193.341,259.017,193.572z"/>
	<path style="fill:#7FB8CC;" d="M198.127,137.824c0.048,0.373,0.1,0.747,0.159,1.126c0.236,1.952,0.937,7.346,1.87,14.445
		c0.077,0.586,0.156,1.182,0.236,1.79c0.025,0.187,0.049,0.375,0.074,0.565l37.354,0.077l-1.645,21.863
		c0.434-0.118,0.869-0.237,1.305-0.348c2.001-0.487,4.029-0.905,6.076-1.108c0.268-0.07,0.534-0.138,0.797-0.203
		c-0.643-3.221-1.147-7.731-0.764-13.284c-0.308-0.096-0.476-0.151-0.476-0.151s-0.235-3.913-0.099-9.702
		c0.263-11.218,1.92-29.487,9.385-40.026c-3.108-0.893-5.972-1.477-8.208-1.851l-14.766,16.798l-2.772-10.931l-4.588,10.364l0,0
		l-2.699-11.79l-5.703,7.762l-1.887-14.706l-1.759-0.278l-2.812-0.445l-0.232-0.037c0,0-0.007,0.007-0.018,0.018
		C206.48,108.257,195.75,119.429,198.127,137.824z M241.622,136.659l-0.783,6.338l-0.378,3.062l0.013,0.013l-15.564-0.752
		l2.35-10.455l1.031,0.129L241.622,136.659z M222.063,127.248c-0.001-0.002-0.003-0.004-0.004-0.005L222.063,127.248z"/>
	<path style="fill:#FAD4C8;" d="M243.588,162.747c-0.383,5.553,0.121,10.063,0.764,13.284c-0.263,0.065-0.529,0.133-0.797,0.203
		c0.326-0.033,0.652-0.061,0.979-0.081c-2.33,0.49-4.602,1.154-6.843,1.915c-2.243,0.753-4.452,1.598-6.654,2.463
		c-2.195,0.881-4.384,1.781-6.552,2.732c-2.175,0.933-4.341,1.893-6.492,2.884c-2.163,0.965-4.31,1.969-6.456,2.977
		c-2.155,0.989-4.287,2.026-6.436,3.032c-3.183,1.516-6.369,3.034-9.563,4.544c-0.078-0.119-0.158-0.239-0.239-0.36
		c-0.997-1.48-2.241-3.061-3.525-4.024c-0.629-0.471-1.397-0.789-2.247-1.025c-2.013-0.559-4.492-0.655-6.715-1.215l0.267,0.118
		c0,0-0.585,1.606-1.527,1.247c-2.351-0.744-1.984-2.801-1.984-2.801l0.04,0.018c-0.064-0.048-0.128-0.094-0.19-0.144
		c-1.479,4.013,2.64,4.435,4.436,6.02c0.613,0.541,1.09,1.315,1.453,2.101c-1.715,0.088-3.646,0.242-5.836,0.485
		c-0.541,0.06-1.278-0.092-2.135-0.372c-1.705-0.559-3.885-1.632-5.96-2.593c-1.284-0.595-2.527-1.146-3.59-1.503
		c-3.006-1.011-4.191-0.192-4.514,0.125c-0.068,0.067-0.1,0.113-0.1,0.113s3.389,2.344,6.874,4.632
		c-0.008-0.007-0.016-0.014-0.024-0.021c0.453,0.2,0.887,0.426,1.323,0.648c0.437,0.219,0.868,0.448,1.299,0.672
		c0.864,0.447,1.721,0.899,2.589,1.319c0.866,0.421,1.744,0.811,2.646,1.121c0.453,0.147,0.911,0.279,1.382,0.369
		c0.47,0.098,0.954,0.136,1.447,0.181c-0.482,0.108-0.978,0.161-1.48,0.156c-0.501-0.014-1.002-0.078-1.492-0.188
		c-0.981-0.218-1.908-0.598-2.802-1.02c-0.491-0.246-0.974-0.508-1.447-0.784c-0.632,0.026-1.128,0.052-1.429,0.077
		c-2.289,0.186-8.572-1.318-12.397-1.678c-3.826-0.36-4.437,1.288-4.437,1.288s0.414,0.163,1.103,0.429
		c0.135-0.199,1.178-1.602,3.273-0.666c0.942,0.357,0.277,2.022,0.276,2.023c0.848,0.32,1.757,0.659,2.678,0.997
		c-0.851-0.08-1.657-0.142-2.375-0.168c-3.84-0.141-4.356,1.538-4.356,1.538s1.676,0.55,3.948,1.267l-3.642-1.167
		c0,0,1.096-1.582,3.348-0.576c0.942,0.357,0.309,1.747,0.309,1.747c1.864,0.589,4.126,1.287,6.204,1.89
		c-0.946-0.37-1.885-0.756-2.81-1.18c1.231,0.317,2.449,0.668,3.666,1.014c1.215,0.351,2.428,0.71,3.643,1.038
		c0.604,0.166,1.217,0.33,1.812,0.434c0.151,0.025,0.288,0.044,0.426,0.053l0.467,0.02l0.938,0.02c1.254,0.017,2.513,0,3.792,0.029
		c-1.231,0.36-2.502,0.535-3.781,0.604c-0.32,0.02-0.641,0.021-0.962,0.02l-0.482-0.009c-0.178-0.007-0.355-0.03-0.516-0.061
		c-0.65-0.123-1.261-0.298-1.875-0.475c-0.67-0.202-1.332-0.422-1.99-0.65c-1.12,0.041-2.184,0.098-3.097,0.191
		c-3.823,0.392-4.101,2.127-4.101,2.127s1.736,0.313,4.087,0.708l-3.769-0.652c0,0,0.757-1.497,3.125-0.813
		c0.982,0.224,0.658,1.467,0.658,1.467c3.676,0.619,8.853,1.438,11.282,1.585c0.519,0.031,1.231-0.017,2.075-0.123
		c3.091-0.39,7.966-1.569,11.744-2.555c2.652-0.692,4.762-1.29,5.333-1.453c16.13-2.927,29.005-5.708,38.826-8.051
		c2.421-0.578,4.656-1.128,6.708-1.648c12.084-3.059,17.832-5.041,17.832-5.041c1.222-0.23,2.333-1.055,3.334-2.335
		c3.78-4.829,6-16.157,6.736-26.641C261.575,168.047,246.453,163.636,243.588,162.747z M164.04,193.459c0,0,1.534-1.419,3.429,0.159
		c0.81,0.599-0.227,1.958-0.227,1.958L164.04,193.459z M166.594,204.091c-1.186-0.452-2.364-0.924-3.52-1.455
		c1.231,0.317,2.449,0.668,3.666,1.014c1.216,0.351,2.428,0.71,3.643,1.038c0.604,0.166,1.216,0.33,1.812,0.434
		c0.151,0.025,0.287,0.044,0.426,0.053l0.467,0.02l0.938,0.02c1.254,0.017,2.512,0,3.792,0.029
		c-1.231,0.359-2.502,0.535-3.781,0.604c-0.32,0.02-0.641,0.021-0.962,0.02l-0.482-0.009c-0.177-0.007-0.355-0.03-0.516-0.061
		c-0.65-0.123-1.261-0.298-1.875-0.475C168.982,204.954,167.783,204.536,166.594,204.091z"/>
	<path style="fill:#749DAF;" d="M243.013,152.895c6.841,4.229,16.493,3.819,23.321-1.239c2.249-1.636,4.133-3.635,5.656-5.88
		c0.516-20.689-4.513-32.377-19.583-32.92c-0.003,0.004-0.006,0.009-0.009,0.013C244.933,123.408,243.276,141.677,243.013,152.895z"
		/>
	<path style="fill:#538F99;" d="M266.334,151.656c-6.829,5.058-16.481,5.468-23.321,1.239c-0.136,5.789,0.099,9.702,0.099,9.702
		s0.168,0.055,0.476,0.151c2.865,0.889,17.987,5.299,25.499,1.849c0.521-0.239,1.007-0.515,1.449-0.834
		c0.809-6.583,1.32-12.59,1.455-17.986C270.467,148.021,268.583,150.02,266.334,151.656z"/>
	<polygon style="fill:#749DAF;" points="226.652,116.884 229.424,127.815 244.19,111.017 244.394,110.785 240.196,102.785 
		237.001,106.111 	"/>
	<polygon style="fill:#749DAF;" points="213.662,123.221 219.365,115.459 218.253,110.059 217.798,107.849 217.774,107.732 
		217.147,104.687 211.761,108.409 211.775,108.515 	"/>
	<path style="fill:#BA8E78;" d="M207.972,189.286c0.975-0.498,1.953-0.99,2.931-1.483c2.135-1.052,4.287-2.072,6.452-3.065
		c4.344-1.953,8.747-3.794,13.266-5.336c1.832-0.63,3.684-1.203,5.554-1.712l1.645-21.863l-37.354-0.077l-7.896-0.016l-4.566-0.009
		l0.369,8.631C191.233,172.538,197.273,185.308,207.972,189.286z"/>
	<path style="fill:#BA8E78;" d="M159.247,190.784c1.333,0.712,2.676,1.373,4.025,1.992c0.323-0.317,1.508-1.137,4.514-0.125
		c1.063,0.357,2.306,0.909,3.59,1.503l2.622-38.458l-34.356-0.071C142.178,169.377,147.109,184.163,159.247,190.784z"/>
	<path style="fill:#A87C69;" d="M176.499,212.442c-2.429-0.146-7.606-0.966-11.282-1.584l-0.013-0.002
		c-2.351-0.396-4.087-0.708-4.087-0.708s0.279-1.735,4.101-2.127c0.913-0.093,1.977-0.15,3.097-0.191
		c-0.542-0.188-1.081-0.381-1.618-0.582c-0.237-0.091-0.473-0.183-0.71-0.275c-2.078-0.603-4.34-1.301-6.205-1.889l-0.014-0.004
		c-2.273-0.717-3.948-1.267-3.948-1.267s0.516-1.68,4.356-1.538c0.718,0.026,1.524,0.088,2.375,0.168
		c-0.921-0.338-1.83-0.677-2.678-0.997l-3.565-1.332c0,0,0.006-0.01,0.016-0.025c-0.689-0.267-1.103-0.429-1.103-0.429
		s0.611-1.648,4.437-1.288c3.826,0.36,10.108,1.864,12.397,1.678c0.301-0.024,0.797-0.05,1.429-0.077
		c-0.378-0.221-0.75-0.45-1.114-0.693c-0.812-0.536-1.591-1.118-2.326-1.76c-3.484-2.288-6.874-4.632-6.874-4.632
		s0.032-0.046,0.1-0.113c-1.349-0.618-2.692-1.28-4.025-1.992c-12.138-6.621-17.069-21.407-19.605-35.158l-4.685-0.009l1.23,12.036
		l0.42,4.106l0.064,0.623l1.161,11.369l4.096,40.089l37.542-0.262l-0.895-11.258C177.73,212.426,177.018,212.474,176.499,212.442z"
		/>
	<path style="fill:#A87C69;" d="M234.477,200.26c-9.821,2.342-22.696,5.124-38.826,8.051c-0.571,0.163-2.681,0.76-5.333,1.453
		l0.588,13.734l17.519-0.122l24.326-0.17l0.015-0.193L234.477,200.26z"/>
	<path style="fill:#A87C69;" d="M171.376,194.154c2.075,0.961,4.256,2.034,5.96,2.593l-1.062-13.359l-2.242-28.194l-0.034,0.503
		L171.376,194.154z"/>
	<path style="fill:#A87C69;" d="M191.775,192.315c1.284,0.963,2.528,2.544,3.525,4.024c3.033-1.846,6.13-3.584,9.258-5.261
		c1.129-0.614,2.269-1.207,3.414-1.791c-10.699-3.978-16.739-16.749-19.598-24.93l0.83,19.394l0.323,7.54
		C190.378,191.526,191.146,191.844,191.775,192.315z"/>
	<path style="fill:#FFA73E;" d="M190.906,223.498l-0.588-13.734c-3.778,0.987-8.653,2.165-11.744,2.555l0.895,11.258l0.054,0.684
		l6.193-0.115l5.213-0.096L190.906,223.498z"/>
	<path style="fill:#FFA73E;" d="M179.471,197.119c2.19-0.243,4.121-0.397,5.836-0.485c-0.363-0.786-0.84-1.56-1.453-2.101
		c-1.796-1.584-5.914-2.006-4.436-6.02c0.062,0.05,0.126,0.096,0.19,0.144l3.203,1.418c2.223,0.56,4.703,0.656,6.715,1.215
		l-0.323-7.54c-1.203,0.317-2.424,0.555-3.661,0.697c-3.038,0.32-6.318-0.007-9.27-1.06l1.062,13.359
		C178.193,197.027,178.93,197.179,179.471,197.119z"/>
	<path style="fill:#FFC764;" d="M176.274,183.388c2.952,1.053,6.231,1.38,9.27,1.06c1.236-0.143,2.458-0.38,3.661-0.697
		l-0.83-19.394l-0.369-8.631l-0.032-0.742l-5.652,0.086l-8.288,0.125L176.274,183.388z"/>
	<path style="fill:#E2A89F;" d="M159.475,203.337c-2.251-1.006-3.348,0.576-3.348,0.576l3.642,1.167l0.014,0.005
		C159.783,205.085,160.416,203.694,159.475,203.337z"/>
	<path style="fill:#E2A89F;" d="M164.559,209.391c-2.368-0.684-3.125,0.813-3.125,0.813l3.769,0.652l0.013,0.002
		C165.217,210.858,165.542,209.615,164.559,209.391z"/>
	<path style="fill:#E2A89F;" d="M159.598,199.423c-2.095-0.936-3.138,0.467-3.273,0.666c-0.01,0.015-0.016,0.025-0.016,0.025
		l3.565,1.332C159.874,201.445,160.54,199.781,159.598,199.423z"/>
	<path style="fill:#E2A89F;" d="M167.469,193.618c-1.894-1.578-3.429-0.159-3.429-0.159l3.202,2.118
		C167.242,195.576,168.279,194.217,167.469,193.618z"/>
	<path style="fill:#D6ABAA;" d="M217.355,184.738c-2.165,0.993-4.317,2.013-6.452,3.065c-0.978,0.492-1.956,0.985-2.931,1.483
		c-1.145,0.584-2.285,1.177-3.414,1.791c-3.128,1.677-6.225,3.415-9.258,5.261c0.081,0.121,0.161,0.241,0.239,0.36
		c3.194-1.51,6.38-3.028,9.563-4.544c2.149-1.006,4.282-2.043,6.436-3.032c2.145-1.008,4.292-2.012,6.456-2.977
		c2.151-0.991,4.317-1.951,6.492-2.884c2.168-0.95,4.357-1.851,6.552-2.732c2.201-0.865,4.411-1.71,6.654-2.463
		c2.241-0.761,4.512-1.425,6.843-1.915c-0.327,0.021-0.653,0.049-0.979,0.081c-2.047,0.204-4.075,0.621-6.076,1.108
		c-0.436,0.111-0.87,0.229-1.305,0.348c-1.87,0.509-3.722,1.083-5.554,1.712C226.102,180.944,221.699,182.785,217.355,184.738z"/>
	<path style="fill:#D19A93;" d="M172.593,205.859l0.482,0.009c0.321,0.002,0.642,0,0.962-0.02c1.279-0.069,2.549-0.244,3.781-0.604
		c-1.28-0.029-2.538-0.012-3.792-0.029l-0.938-0.02l-0.467-0.02c-0.139-0.009-0.275-0.027-0.426-0.053
		c-0.596-0.104-1.208-0.268-1.812-0.434c-1.214-0.328-2.427-0.687-3.643-1.038c-1.218-0.346-2.435-0.697-3.666-1.014
		c1.156,0.531,2.334,1.002,3.52,1.455c1.189,0.445,2.388,0.863,3.609,1.232c0.614,0.177,1.225,0.351,1.875,0.475
		C172.238,205.829,172.416,205.851,172.593,205.859z"/>
	<path style="fill:#D19A93;" d="M172.181,208.954c0.161,0.031,0.338,0.054,0.516,0.061l0.482,0.009c0.321,0.001,0.642,0,0.962-0.02
		c1.279-0.069,2.549-0.244,3.781-0.604c-1.279-0.029-2.538-0.012-3.792-0.029l-0.938-0.02l-0.467-0.02
		c-0.139-0.009-0.275-0.027-0.426-0.053c-0.596-0.104-1.208-0.268-1.812-0.434c-1.214-0.328-2.427-0.687-3.643-1.038
		c-1.218-0.346-2.435-0.697-3.666-1.014c0.925,0.424,1.864,0.811,2.81,1.18c0.236,0.092,0.473,0.184,0.71,0.275
		c0.536,0.201,1.076,0.394,1.618,0.582c0.658,0.228,1.321,0.448,1.99,0.65C170.92,208.657,171.531,208.831,172.181,208.954z"/>
	<path style="fill:#D19A93;" d="M177.734,201.777c0.49,0.109,0.991,0.174,1.492,0.188c0.502,0.006,0.999-0.048,1.48-0.156
		c-0.493-0.045-0.977-0.083-1.447-0.181c-0.471-0.09-0.929-0.222-1.382-0.369c-0.902-0.309-1.779-0.699-2.646-1.121
		c-0.868-0.421-1.724-0.872-2.589-1.319c-0.431-0.225-0.862-0.454-1.299-0.672c-0.436-0.221-0.87-0.448-1.323-0.648
		c0.008,0.007,0.016,0.014,0.024,0.021c0.735,0.642,1.514,1.224,2.326,1.76c0.363,0.243,0.736,0.472,1.114,0.693
		c0.473,0.276,0.955,0.538,1.447,0.784C175.827,201.18,176.753,201.559,177.734,201.777z"/>
	<path style="fill:#E2A89F;" d="M179.569,188.64c0,0-0.367,2.057,1.984,2.801c0.941,0.359,1.527-1.247,1.527-1.247l-0.267-0.118
		l-3.203-1.418L179.569,188.64z"/>
	<polygon style="fill:#749DAF;" points="227.259,134.864 224.909,145.319 240.473,146.072 240.457,146.058 226.309,143.841 	"/>
	<path style="fill:#E4E1EF;" d="M228.29,134.993l-1.031-0.129l-0.951,8.977l14.149,2.217l0.381-3.061
		C235.304,142.973,229.821,140.62,228.29,134.993z"/>
	<path style="fill:#FFFFFF;" d="M240.839,142.997l0.783-6.338l-13.332-1.666C229.821,140.62,235.304,142.973,240.839,142.997z"/>
	<path style="fill:#4B3C4F;" d="M237.88,394.047c-15.168,1.836-24.588,0.003-30.791-0.555c0.012-0.251,0.038-0.492,0.072-0.728
		l-1.432,0.094c0,0,0,0,0.093,2.981c17.261,4.022,35.464-0.267,35.464-0.267l0.103,1.988c3.924,0.288,15.865-3.691,15.865-3.691
		l-0.677-5.967l-1.231,0.128c-0.005,0.771-0.034,1.226-0.034,1.226S253.048,392.211,237.88,394.047z"/>
	<path style="fill:#B26B5E;" d="M242.478,378.286c0.953-1.632,1.458-3.625,0.903-5.971c-1.19-1.886-3.629-2.423-5.62-2.109
		c-1.684,0.266-3.047,1.141-3.059,2.329c-0.026,2.594-3.273,9.257-11.081,11.69c-0.023,0.007-0.042,0.014-0.064,0.02
		c-8.454,1.463-15.581,2.796-16.397,8.517c-0.034,0.236-0.06,0.477-0.072,0.728c6.203,0.559,15.623,2.391,30.791,0.555
		c15.168-1.836,17.433-4.793,17.433-4.793s0.029-0.455,0.034-1.226c0.019-2.928-0.307-10.483-3.863-15.642
		c-0.471,1.651-0.994,3.428-1.57,5.375C246.933,378.626,244.424,378.614,242.478,378.286z"/>
	<path style="fill:#FAD4C8;" d="M237.675,363.784l0.086,6.422c1.99-0.314,4.429,0.223,5.62,2.109
		c0.555,2.346,0.05,4.339-0.903,5.971c1.946,0.329,4.455,0.341,7.436-0.525c0.576-1.947,1.099-3.724,1.57-5.375
		c0.921-3.224,1.64-5.953,2.158-8.445C247.453,365.069,241.336,364.416,237.675,363.784z"/>
	<path style="fill:#4B3C4F;" d="M181.805,385.018c-15.169,1.836-24.588,0.003-30.791-0.556c0.012-0.251,0.038-0.492,0.072-0.728
		l-1.432,0.094c0,0,0,0,0.093,2.981c17.261,4.022,35.464-0.267,35.464-0.267l0.103,1.988c3.924,0.288,15.866-3.691,15.866-3.691
		l-0.677-5.967l-1.231,0.128c-0.005,0.771-0.033,1.226-0.033,1.226S196.973,383.182,181.805,385.018z"/>
	<path style="fill:#B26B5E;" d="M185.958,369.943c1.226-1.748,1.983-3.97,1.347-6.657c-1.173-1.858-3.558-2.408-5.532-2.124
		c-1.724,0.249-3.135,1.134-3.147,2.344c-0.026,2.594-3.273,9.258-11.081,11.69c-0.023,0.007-0.042,0.014-0.064,0.021
		c-8.454,1.463-15.581,2.795-16.397,8.517c-0.034,0.236-0.06,0.477-0.072,0.728c6.203,0.559,15.623,2.391,30.791,0.556
		c15.168-1.836,17.433-4.793,17.433-4.793s0.028-0.455,0.033-1.226c0.02-3.034-0.329-11.038-4.261-16.194
		c-0.117-0.039-0.242-0.075-0.368-0.109c-0.1,1.487-0.229,3.059-0.385,4.776C191.218,370.24,188.104,370.365,185.958,369.943z"/>
	<path style="fill:#FAD4C8;" d="M181.013,357.006l0.76,4.156c1.974-0.285,4.359,0.266,5.532,2.124
		c0.636,2.687-0.121,4.909-1.347,6.657c2.146,0.423,5.26,0.298,8.299-2.47c0.156-1.717,0.285-3.289,0.385-4.776
		c0.16-2.393,0.242-4.563,0.222-6.731C189.526,357.57,184.346,357.406,181.013,357.006z"/>
	<path style="fill:#604C72;" d="M239.696,333.96c-3.165-1.483-5.774-3.677-7.934-6.321l2.489,35.419c0,0,1.3,0.359,3.423,0.726
		c3.661,0.632,9.779,1.285,15.967,0.157c1.048-0.191,2.098-0.432,3.138-0.734c1.697-10.436,2.762-19.173,3.357-26.723
		C253.177,337.521,245.99,336.781,239.696,333.96z"/>
	<path style="fill:#604C72;" d="M169.446,321.404l7.863,34.943c0,0,1.42,0.384,3.704,0.659c3.333,0.401,8.512,0.564,13.85-1.041
		c1.184-0.356,2.374-0.795,3.554-1.341c0.046-4.665,0.054-9.03,0.024-13.132c-1.393-0.434-2.749-0.938-4.053-1.513
		C184.88,335.71,176.325,329.298,169.446,321.404z"/>
	<path style="fill:#B5967C;" d="M316.356,346.896l-0.044-4.068l-1.942,0.049l-1.337-13.065c-2.961-1.752-5.807-3.666-8.539-5.723
		v22.807h4.394H316.356z"/>
	<path style="fill:#B5967C;" d="M298.467,355.117c-15.841,0.238-23.113-2.17-26.169-3.761h-1.218l-0.911,47.396h29.573v-43.658
		C299.321,355.102,298.897,355.11,298.467,355.117z"/>
	<path style="fill:#B5967C;" d="M299.741,320.273c-1.146-0.983-2.268-1.993-3.367-3.027c-0.631-0.593-1.255-1.194-1.871-1.803
		c-1.2-1.188-2.368-2.409-3.508-3.655c-0.953-1.041-1.884-2.103-2.795-3.183c-0.884-1.047-1.745-2.114-2.589-3.195
		c-0.589-0.754-1.168-1.514-1.737-2.283c-4.434-5.994-8.279-12.445-11.498-19.192l-1.211,62.96h28.576V320.273z"/>
	<path style="fill:#B5967C;" d="M316.433,353.991c-3.19,0.401-7.127,0.748-11.94,0.954v43.806h12.429l-0.245-22.443L316.433,353.991
		z"/>
	<path style="fill:#C6A88B;" d="M288.2,308.605c0.911,1.079,1.842,2.141,2.795,3.183c1.141,1.247,2.309,2.467,3.508,3.655
		c0.615,0.609,1.24,1.21,1.871,1.803c1.099,1.034,2.221,2.044,3.367,3.027V244.23c-15.037-0.018-22.131-2.26-25.206-3.771h-1.322
		l-0.836,43.477c3.219,6.746,7.064,13.198,11.498,19.192c0.569,0.769,1.149,1.53,1.737,2.283
		C286.455,306.491,287.316,307.558,288.2,308.605z"/>
	<path style="fill:#C6A88B;" d="M320.183,235.999l-1.026-43.71c-5.052,1.573-9.972,3.626-14.663,6.11v37.6h3.271H320.183z"/>
	<path style="fill:#C6A88B;" d="M299.741,201.107c-10.698,6.569-19.906,15.465-26.273,26.073l-0.169,8.819h26.443V201.107z"/>
	<path style="fill:#DDBFA6;" d="M319.156,192.289l-0.302-12.848c-4.495-0.039-9.444-0.083-14.361-0.125v19.083
		C309.185,195.914,314.105,193.862,319.156,192.289z"/>
	<path style="fill:#DDBFA6;" d="M299.741,201.107v-21.832c-12.781-0.11-24.225-0.206-25.348-0.206l-0.925,48.11
		C279.835,216.572,289.043,207.676,299.741,201.107z"/>
	<path style="fill:#B5967C;" d="M299.741,244.23v-3.771h-25.206C277.61,241.97,284.704,244.211,299.741,244.23z"/>
	<path style="fill:#B5967C;" d="M320.288,240.458h-9.673h-6.121v3.713c6.538-0.15,11.747-0.526,15.858-0.986L320.288,240.458z"/>
	<path style="fill:#A5866F;" d="M298.467,355.117c0.431-0.006,0.854-0.014,1.274-0.023v-3.738h-27.443
		C275.353,352.947,282.626,355.354,298.467,355.117z"/>
	<path style="fill:#E9DFEF;" d="M307.765,235.999h-3.271v4.46h6.121C309.441,239.132,308.464,237.643,307.765,235.999z"/>
	<polygon style="fill:#E9DFEF;" points="299.741,240.458 299.741,235.999 273.298,235.999 270.859,235.999 270.859,240.458 
		273.212,240.458 274.534,240.458 	"/>
	<path style="fill:#FFFFFF;" d="M310.615,240.458h9.673l-0.031-1.297l-0.074-3.163h-12.418
		C308.464,237.643,309.441,239.132,310.615,240.458z"/>
	<polygon style="fill:#E9DFEF;" points="299.741,351.356 299.741,346.896 271.165,346.896 266.107,346.896 266.107,351.356 
		271.08,351.356 272.298,351.356 	"/>
	<path style="fill:#E9DFEF;" d="M308.887,346.896h-4.394v4.46h7.029C310.476,349.99,309.587,348.498,308.887,346.896z"/>
	<path style="fill:#FFFFFF;" d="M311.522,351.356h4.882l-0.049-4.46h-7.469C309.587,348.498,310.476,349.99,311.522,351.356z"/>
	<polygon style="fill:#FFFFFF;" points="304.493,351.356 304.493,346.896 304.493,324.089 304.493,244.171 304.493,240.458 
		304.493,235.999 304.493,198.398 304.493,179.316 304.493,178.196 299.741,178.196 299.741,179.275 299.741,201.107 
		299.741,235.999 299.741,240.458 299.741,244.23 299.741,320.273 299.741,346.896 299.741,351.356 299.741,355.094 
		299.741,398.752 299.741,398.944 304.493,398.944 304.493,398.752 304.493,354.945 	"/>
	<path style="fill:#9E8163;" d="M338.836,318.001l-0.041,7.43c3.31-0.098,6.776-0.2,10.299-0.304l-0.001-0.308l3.37-0.1l0.253-9.541
		h-0.056C347.612,317.033,342.939,317.82,338.836,318.001z"/>
	<path style="fill:#9E8163;" d="M339.121,265.958l-0.247,44.969h3.484h10.47l1.004-37.873c-3.121-1-6.217-2.225-9.281-3.706
		C342.623,268.434,340.816,267.281,339.121,265.958z"/>
	<path style="fill:#9E8163;" d="M322.043,315.191l0.252,10.729c3.534-0.105,7.843-0.233,12.595-0.373l-0.003-7.551
		C327.558,317.647,322.757,315.526,322.043,315.191z"/>
	<path style="fill:#9E8163;" d="M320.288,240.458l0.064,2.727l1.591,67.742h8.515h4.424l-0.022-48.888
		c-2.34-2.502-4.392-5.304-6.151-8.182c-3.017-4.873-5.916-9.747-8.452-14.695L320.288,240.458z"/>
	<polygon style="fill:#B29572;" points="334.812,158.251 334.805,143.224 322.535,143.224 320.834,85.572 322.629,85.47 
		334.778,84.78 334.775,78.09 316.486,78.578 318.357,158.251 331.075,158.251 	"/>
	<path style="fill:#B29572;" d="M339.674,165.232l-0.553,100.727c1.694,1.323,3.502,2.476,5.431,3.39
		c3.063,1.481,6.159,2.706,9.281,3.706l2.93-110.55h-0.582C350.176,164.25,344.6,165.026,339.674,165.232z"/>
	<polygon style="fill:#B29572;" points="354.102,83.682 353.013,126.533 352.59,143.224 339.795,143.224 339.712,158.251 
		344.314,158.251 356.875,158.251 359.016,77.444 340.153,77.947 340.117,84.477 	"/>
	<path style="fill:#B29572;" d="M320.183,235.999l0.074,3.163c2.535,4.949,5.435,9.822,8.452,14.695
		c1.759,2.878,3.811,5.68,6.151,8.182l-0.045-96.781c-8.843-0.276-14.826-2.246-16.232-2.753h-0.126l0.398,16.936l0.302,12.848
		L320.183,235.999z"/>
	<path style="fill:#9B7F61;" d="M342.802,162.504h-3.113l-0.015,2.727c4.926-0.206,10.502-0.981,16.506-2.727H342.802z"/>
	<path style="fill:#9B7F61;" d="M331.673,162.504h-13.09c1.406,0.507,7.389,2.477,16.232,2.753l-0.001-2.753H331.673z"/>
	<path style="fill:#9B7F61;" d="M341.27,315.18h-2.419l-0.016,2.822c4.103-0.182,8.776-0.969,13.825-2.822H341.27z"/>
	<path style="fill:#9B7F61;" d="M322.019,315.18c0.007,0.004,0.016,0.007,0.024,0.011c0.715,0.335,5.516,2.457,12.843,2.805
		l-0.001-2.816h-2.589H322.019z"/>
	<path style="fill:#EBE4EF;" d="M322.629,85.47l-1.795,0.102l1.701,57.652h12.27l-0.013-28.212
		C327.549,106.897,324.021,96.277,322.629,85.47z"/>
	<path style="fill:#EBE4EF;" d="M353.013,126.533c-4.23-1.329-8.31-3.242-12.143-5.992c-0.321-0.236-0.636-0.476-0.947-0.719
		l-0.128,23.402h12.795L353.013,126.533z"/>
	<path style="fill:#FFFFFF;" d="M353.013,126.533l1.088-42.851l-13.984,0.795l-0.194,35.345c0.311,0.243,0.625,0.484,0.947,0.719
		C344.704,123.292,348.784,125.204,353.013,126.533z M352.779,86.423l-0.095,1.985l-10.302,0.472l-0.095-1.796L352.779,86.423z
		 M352.779,89.163l-0.095,1.985l-10.302,0.472l-0.095-1.796L352.779,89.163z M352.779,91.904l-0.095,1.985l-10.302,0.473
		l-0.095-1.796L352.779,91.904z"/>
	<path style="fill:#FFFFFF;" d="M334.778,84.78l-12.149,0.69c1.392,10.807,4.92,21.426,12.163,29.542L334.778,84.78z"/>
	<path style="fill:#FFC764;" d="M331.673,162.504c-0.27-1.398-0.458-2.812-0.598-4.253h-12.717h-1.304v4.253h1.404h0.126H331.673z"
		/>
	<path style="fill:#FFA73E;" d="M344.314,158.251h-4.602l-0.023,4.253h3.113C343.233,161.068,343.761,159.657,344.314,158.251z"/>
	<path style="fill:#FFA73E;" d="M334.812,158.251h-3.737c0.14,1.441,0.328,2.855,0.598,4.253h3.141L334.812,158.251z"/>
	<path style="fill:#FFC764;" d="M342.802,162.504h13.378h0.582h0.837v-4.253h-0.724h-12.561
		C343.761,159.657,343.233,161.068,342.802,162.504z"/>
	<path style="fill:#FFC764;" d="M332.296,315.18c-0.725-1.371-1.362-2.777-1.838-4.253h-8.515h-1.912v4.253h1.988H332.296z"/>
	<path style="fill:#FFA73E;" d="M332.296,315.18h2.589l-0.002-4.253h-4.424C330.933,312.402,331.571,313.809,332.296,315.18z"/>
	<path style="fill:#FFA73E;" d="M342.358,310.927h-3.484l-0.023,4.253h2.419C341.585,313.752,341.945,312.334,342.358,310.927z"/>
	<path style="fill:#FFC764;" d="M341.27,315.18h11.391h0.056h1.623v-4.253h-1.511h-10.47
		C341.945,312.334,341.585,313.752,341.27,315.18z"/>
	<polygon style="fill:#EBE4EF;" points="352.684,88.407 352.779,86.423 342.288,87.084 342.382,88.88 	"/>
	<polygon style="fill:#EBE4EF;" points="352.684,91.148 352.779,89.163 342.288,89.825 342.382,91.621 	"/>
	<polygon style="fill:#EBE4EF;" points="352.684,93.889 352.779,91.904 342.288,92.566 342.382,94.362 	"/>
	<path style="fill:#FFC764;" d="M334.792,115.012l0.013,28.212l0.007,15.027l0.002,4.253l0.001,2.753l0.045,96.781l0.022,48.888
		l0.002,4.253l0.001,2.816l0.003,7.551c1.273-0.038,2.576-0.076,3.906-0.116l0.041-7.43l0.016-2.822l0.023-4.253l0.247-44.969
		l0.553-100.727l0.015-2.727l0.023-4.253l0.083-15.027l0.128-23.402l0.194-35.345l0.036-6.53l0.008-1.495l-5.387,0.142l0.001,1.497
		l0.003,6.689L334.792,115.012z"/>
	<path style="fill:#C6A88B;" d="M67.273,379.472h0.849H67.273z"/>
	<path style="fill:#C6A88B;" d="M89.609,350.852c-9.116,6.589-16.283,15.922-19.368,28.607l19.369-0.118v-28.352L89.609,350.852z"/>
	<path style="fill:#C6A88B;" d="M103.037,343.52c0,0.049,0,0.095,0,0.145c-0.021,0.006-0.041,0.012-0.061,0.018v35.577l31.922-0.195
		l3.298-41.317c-0.002,0-0.005,0-0.007,0C127.164,337.228,114.508,338.886,103.037,343.52z M132.7,361.364h-24.414l-0.611-16.479
		c0.611,0,26.123-0.244,26.123-0.244L132.7,361.364z"/>
	<path style="fill:#B5967C;" d="M102.976,333.917c0,0,0.06,3.172,0.061,9.603c11.471-4.633,24.127-6.292,35.152-5.773
		c0.002,0,0.005,0,0.007,0l0.355-4.446L102.976,333.917z"/>
	<path style="fill:#B5967C;" d="M89.609,350.852l-0.06-16.703l-33.975,0.588l5.098,44.734h6.602h0.849h2.115
		c0.001-0.004,0.002-0.009,0.003-0.013C73.326,366.774,80.493,357.441,89.609,350.852z"/>
	<polygon style="fill:#C6A88B;" points="102.976,333.917 138.551,333.301 139.292,333.288 140.635,319.982 102.976,320.034 	"/>
	<polygon style="fill:#C6A88B;" points="89.548,334.081 89.609,334.081 89.609,320.053 52.5,320.104 54.697,334.753 55.574,334.738 
		89.549,334.149 	"/>
	<path style="fill:#FFFFFF;" d="M89.609,350.988v28.352v0.541h13.367v-0.622v-35.577C95.029,345.964,89.609,350.988,89.609,350.988z
		"/>
	<polygon style="fill:#FFFFFF;" points="89.609,334.081 102.976,333.921 102.976,320.034 102.976,319.25 89.609,319.25 
		89.609,320.053 	"/>
	<path style="fill:#FFFFFF;" d="M108.286,361.364H132.7l1.099-16.724c0,0-25.513,0.244-26.123,0.244L108.286,361.364z
		 M131.779,359.121l-8.287,0.046l-0.073-0.915h8.396L131.779,359.121z M131.743,357.427l-8.287,0.046l-0.073-0.916h8.396
		L131.743,357.427z M131.743,354.864l-0.036,0.87l-8.287,0.046l-0.073-0.915H131.743z M117.817,350.424l-8.287,0.046l-0.073-0.915
		h8.396L117.817,350.424z M117.781,348.73l-8.287,0.046l-0.073-0.915h8.396L117.781,348.73z M117.781,346.166l-0.036,0.87
		l-8.287,0.046l-0.073-0.916H117.781z"/>
	<path style="fill:#E4D8EA;" d="M89.609,334.081l-0.061,0.001l0,0.068l0.06,16.703l0,0.136c0,0,5.42-5.024,13.367-7.306
		c0.021-0.006,0.041-0.012,0.061-0.018c0-0.05,0-0.095,0-0.145c-0.001-6.431-0.061-9.598-0.061-9.598L89.609,334.081z"/>
	<polygon style="fill:#E4D8EA;" points="117.744,347.036 117.781,346.166 109.385,346.166 109.457,347.082 	"/>
	<polygon style="fill:#E4D8EA;" points="109.494,348.776 117.781,348.73 117.817,347.86 109.421,347.86 	"/>
	<polygon style="fill:#E4D8EA;" points="109.53,350.469 117.817,350.424 117.854,349.554 109.457,349.554 	"/>
	<polygon style="fill:#E4D8EA;" points="131.706,355.734 131.743,354.864 123.346,354.864 123.419,355.779 	"/>
	<polygon style="fill:#E4D8EA;" points="123.456,357.473 131.743,357.427 131.779,356.558 123.383,356.558 	"/>
	<polygon style="fill:#E4D8EA;" points="123.492,359.167 131.779,359.121 131.815,358.251 123.419,358.251 	"/>
	<path style="fill:#C6A88B;" d="M364.557,403.033l32.137-0.121l-1.127-55.992c-9.809,0.071-19.989,0.781-29.896,2.654
		L364.557,403.033z M372.693,385.582l1.246-2.157l1.246-2.157l1.246,2.157l1.245,2.157h-1.514v4.49v7.068h6.611v-5.761v-5.797
		h-1.514l1.246-2.157l1.246-2.157l1.246,2.157l1.246,2.157h-1.514v5.826v5.732h2.154v1.684h-15.019v-1.684h2.345v-7.999v-3.559
		H372.693z"/>
	<path style="fill:#C6A88B;" d="M349.152,353.996c-12.446,4.461-23.771,11.49-32.475,22.313l0.245,22.443l0.049,4.46l32.281-0.121
		L349.152,353.996z"/>
	<path style="fill:#A5866F;" d="M365.838,341.585c0.006,0.07,0.052,0.883-0.149,7.965c-0.006,0.001-0.012,0.002-0.017,0.003l0,0.021
		c9.907-1.873,20.087-2.583,29.896-2.654l-0.123-6.102l-29.607,0.752L365.838,341.585z"/>
	<path style="fill:#A5866F;" d="M349.118,342.046l0.009-0.051l-32.816,0.834l0.044,4.068l0.049,4.46h-4.882h-7.029v3.59
		c4.813-0.206,8.749-0.553,11.94-0.954l0.244,22.318c8.704-10.823,20.029-17.852,32.475-22.313l-0.01-5.149L349.118,342.046z"/>
	<path style="fill:#C6A88B;" d="M313.032,329.812l1.337,13.065l1.942-0.049l32.816-0.834l-0.034-16.866
		c-3.522,0.104-6.988,0.206-10.299,0.304c-1.329,0.039-2.633,0.078-3.906,0.116c-4.751,0.14-9.061,0.268-12.595,0.373l-0.252-10.729
		c-0.008-0.004-0.017-0.008-0.024-0.011h-1.988v-4.253h1.912l-1.591-67.742c-4.111,0.46-9.32,0.835-15.858,0.986v79.918
		C307.225,326.147,310.071,328.061,313.032,329.812z"/>
	<path style="fill:#C6A88B;" d="M397.5,323.705c0,0-14.385,0.422-31.309,0.92l-0.353,16.945l29.607-0.752l1.648-0.042L397.5,323.705
		z"/>
	<path style="fill:#FFC764;" d="M349.093,325.128l0.034,16.866l0,0.051l16.706-0.462c0,0,0.004-0.002,0.004,0.002l0-0.015
		l0.353-16.945l0.007-0.309l-13.735,0.405l-3.37,0.1L349.093,325.128z"/>
	<path style="fill:#FFC764;" d="M365.672,349.553c-9.358,1.537-16.513,4.445-16.513,4.445l-0.018-5.15l0.01,5.149l0.1,49.095
		l0,0.217h15.299l0.006-0.275l1.115-53.459L365.672,349.553z"/>
	<path style="fill:#FFA73E;" d="M365.837,341.579l-16.71,0.466l0.014,6.802l0.018,5.15c0,0,7.155-2.908,16.513-4.445
		c0.006-0.001,0.011-0.002,0.017-0.003c0.2-7.082,0.155-7.895,0.149-7.965C365.838,341.581,365.837,341.579,365.837,341.579z"/>
	<path style="fill:#726593;" d="M376.161,390.072v-4.49h1.514l-1.245-2.157l-1.246-2.157l-1.246,2.157l-1.246,2.157h1.514v3.559
		C374.826,389.497,375.479,389.806,376.161,390.072z"/>
	<path style="fill:#5F547F;" d="M374.207,397.14h-2.345v1.684h15.019v-1.684h-2.154v-5.732c-0.655,0.012-1.308,0.002-1.955-0.029
		v5.761h-6.611v-7.068c-0.682-0.266-1.336-0.575-1.954-0.931V397.14z"/>
	<path style="fill:#726593;" d="M384.727,391.408v-5.826h1.514l-1.246-2.157l-1.246-2.157l-1.246,2.157l-1.246,2.157h1.514v5.797
		C383.419,391.41,384.072,391.42,384.727,391.408z"/>
</g>
</svg>
