<svg xmlns="http://www.w3.org/2000/svg" xmlns:xlink="http://www.w3.org/1999/xlink" version="1.1" x="0px" y="0px" viewBox="0 0 500 500" style="enable-background:new 0 0 500 500;" xml:space="preserve">
<g id="BACKGROUND">
	<rect x="0.018" style="fill:#ffffff;" width="500" height="500"/>
</g>
<g id="OBJECTS">
	<g>
		<path style="fill:#e0e0e3;" d="M142.576,113.047c0,0,4.915-10.869,18.338-7.629c13.27,3.203,18.986-15.802,30.803-14.58    c11.816,1.222,7.58,12.135,22.656,14.58c15.076,2.445,19.44-3.503,25.79,7.629H142.576z"/>
		<path style="fill:#e0e0e0;" d="M418.093,413.267c9.24-9.774,22.511-36.678,16.986-70.582    c-3.761-23.079-16.986-56.118-50.099-75.668c-91.998-54.317-89.258-100.197-150.243-130.803    c-68.294-34.274-130.496,5.696-115.191,73.808c14.88,66.218-25.029,67.459-44.489,107.326    c-22.366,45.822,16.002,96.11,59.634,95.918L418.093,413.267z"/>
		<g>
			<path style="fill:#e0e0e3;" d="M114.385,229.639c0,0-3.946-8.725-14.721-6.124c-10.653,2.571-15.242-12.686-24.727-11.704     c-9.486,0.981-8.629,6.929-20.732,8.892s-13.061,0-18.159,8.937H114.385z"/>
		</g>
		<g>
			<path style="fill:#e0e0e3;" d="M451.452,176.778c0,0-4.887-10.807-18.233-7.586c-13.195,3.185-18.878-15.712-30.627-14.496     c-11.749,1.215-10.688,8.582-25.678,11.013c-14.99,2.431-16.178,0-22.492,11.069H451.452z"/>
		</g>
	</g>
	<g>
		<g>
			<path style="fill:#f44336;" d="M272.557,413.228H169.074V300.893c0-14.678,11.899-26.577,26.577-26.577h48.035     c15.945,0,28.871,12.926,28.871,28.871V413.228z"/>
		</g>
		<g>
			<g>
				<g>
					<g>
						<path style="fill:#f5a47a;" d="M113.447,373.606c11.293,3.066,26.733-34.275,31.984-47.978        c1.17-3.054,1.834-4.932,1.834-4.932l-16.22-11.102c0,0-1.009,1.779-2.592,4.746        C120.867,328.545,100.067,369.976,113.447,373.606z"/>
					</g>
					<g>
						<path style="fill:#002E3C;" d="M128.453,314.34l16.978,11.288c1.17-3.054,1.834-4.932,1.834-4.932l-16.22-11.102        C131.044,309.594,130.035,311.373,128.453,314.34z"/>
					</g>
					<g>
						<g>
							<path style="fill:#eaeff5;" d="M159.2,308.576l-0.119,0.807l-0.241,1.595l-0.865,5.789l-0.457,3.064l-0.219,1.458         l-0.338,2.271l-1.009,6.744l-11.191-7.521l-0.035-0.025l-0.057-0.037l-1.354-0.909l-0.104-0.072l-3.208-2.157l-1.561-1.048         l-11.186-7.516c2.452-4.686,4.965-9.251,7.474-13.544c0,0,0.003,0.003,0.003-0.002c0.639-1.086,1.272-2.154,1.908-3.2         c0.549-0.907,1.096-1.799,1.645-2.674c0,0,0-0.003,0.003-0.003c0.144-0.236,0.293-0.472,0.442-0.706         c6.967-11.045,13.684-19.306,18.815-21.416c0.42-0.171,0.827-0.303,1.225-0.39l0.01,0.914l0.06,5.404l0.022,2.102         l0.047,4.373l0.02,1.727l0.06,5.494l0.02,1.928l0.052,4.671l0.015,1.479l0.062,5.65l0.017,1.722L159.2,308.576z"/>
						</g>
					</g>
					<g>
						<g>
							<g>
								<g>
									<g>
										<path style="fill:#CED5DB;" d="M143.21,321.74l0.104,0.072l1.354,0.909l0.773-3.948l3.782-19.277            c0.082-0.44-0.199-0.862-0.641-0.952c-0.437-0.087-0.87,0.199-0.954,0.641l-3.106,15.843l-0.708,3.623L143.21,321.74z"/>
									</g>
								</g>
							</g>
						</g>
					</g>
					<g>
						<g>
							<g>
								<path style="fill:#eaeff5;" d="M265.195,344.689l-1.178,0.092l-3.548,0.276l-2.341,0.181l-10.548,0.82l-2.577,0.199          l-1.175,0.092l-2.303,0.179l-7.201,0.559c-0.517-1.988-0.594-2.972-0.594-2.972l-0.01,0.668l-0.179,10.391l-0.298,17.162          c0,0,0.062,19.721-0.174,40.807H129.63c1.25-7.641,2.728-16.702,4.329-26.46c0.092-0.556,0.184-1.116,0.276-1.677          c0.323-1.963,0.651-3.956,0.981-5.966c0.161-0.987,0.326-1.978,0.489-2.974c0.067-0.408,0.134-0.815,0.204-1.225          c0.117-0.713,0.234-1.429,0.355-2.147c0.673-4.077,1.359-8.215,2.05-12.359c0.045-0.268,0.09-0.537,0.134-0.803          c0.447-2.676,0.895-5.352,1.344-8.018c0.127-0.753,0.254-1.501,0.38-2.251c0.169-1.011,0.34-2.018,0.509-3.024          c0.142-0.832,0.283-1.662,0.422-2.49c1.23-7.246,2.45-14.327,3.623-20.991c0.579-3.295,1.148-6.488,1.7-9.549          c0.035-0.186,0.067-0.373,0.099-0.556c0.045-0.239,0.087-0.48,0.132-0.718c0.02-0.119,0.04-0.236,0.059-0.35          c0.075-0.38,0.139-0.758,0.209-1.135c0.045-0.241,0.089-0.48,0.129-0.721c1.416-7.742,3.416-17.791,5.481-25.931          c0.296-1.173,0.594-2.306,0.892-3.387c0.114-0.415,0.229-0.822,0.343-1.222c0.189-0.653,0.375-1.285,0.562-1.891          c1.195-3.884,2.358-6.709,3.387-7.651c0.132-0.119,0.258-0.209,0.385-0.266c0.224-0.102,0.445-0.201,0.666-0.298          c0.204-0.092,0.405-0.181,0.606-0.268h0.002c3.826-1.67,7.591-3.036,11.144-4.152c0.676-0.214,1.347-0.417,2.005-0.611          c0.606-0.179,1.203-0.35,1.792-0.514c1.071-0.298,2.112-0.574,3.123-0.827c9.504-2.383,16.236-2.88,16.236-2.88          l22.368,0.641c0,0,4.204,2.435,11.025,7.31h0.002c0.944,0.676,1.936,1.396,2.977,2.164          c4.09,3.019,8.888,6.763,14.143,11.229c0,0,0.636,0.45,1.675,1.359l0.02,0.017c0.35,0.311,0.743,0.668,1.173,1.081          c0,0.003,0,0.003,0.003,0.003c3.081,2.959,7.998,8.629,11.447,17.217c0.216,0.537,0.46,1.26,0.726,2.144          c0.286,0.947,0.596,2.08,0.917,3.364c0.107,0.422,0.214,0.862,0.323,1.319c0.139,0.589,0.281,1.203,0.425,1.841          c0.748,3.352,1.523,7.357,2.206,11.673c0.112,0.698,0.219,1.404,0.323,2.117v0.003c0.358,2.423,0.681,4.92,0.947,7.439          c0.087,0.795,0.167,1.59,0.239,2.388c0.082,0.872,0.154,1.747,0.219,2.616c0.067,0.87,0.124,1.737,0.172,2.599          c0.104,1.834,0.169,3.645,0.184,5.414v0.002C265.192,344.08,265.195,344.383,265.195,344.689z"/>
							</g>
						</g>
					</g>
					<g>
						<path style="fill:#044F5B;" d="M187.945,308.288c-1.88,0.082-3.689-0.321-5.414-1.21c-5.951-3.064-7.819-11.858-5.553-26.138        c1.635-10.303,4.926-19.903,4.959-19.999c0.225-0.652,0.937-0.999,1.589-0.774c0.653,0.225,0.999,0.937,0.774,1.589        c-3.537,10.256-10.545,37.991-0.624,43.099c2.705,1.393,5.612,1.246,8.887-0.448c12.365-6.399,24.844-32.855,26.087-41.666        c0.096-0.684,0.729-1.16,1.412-1.063c0.684,0.096,1.16,0.729,1.063,1.413c-1.332,9.443-14.157,36.676-27.413,43.536        C191.728,307.654,189.802,308.208,187.945,308.288z"/>
					</g>
					<g>
						<g>
							<g>
								<g>
									<path style="fill:#CED5DB;" d="M204.4,389.691c-0.032-0.017-0.062-0.036-0.091-0.057c-0.082-0.06-8.32-6.08-16.293-15.674           c-7.39-8.892-16.071-22.771-15.462-38.388c0.017-0.448,0.395-0.797,0.843-0.78c0.45,0.017,0.797,0.395,0.78,0.843           c-0.588,15.091,7.867,28.59,15.064,37.257c7.844,9.446,15.941,15.369,16.022,15.427c0.363,0.263,0.444,0.771,0.18,1.134           C205.201,389.787,204.753,389.882,204.4,389.691z"/>
								</g>
							</g>
						</g>
					</g>
					<g>
						<g>
							<g>
								<g>
									<g>
										<g>
											<g>
												<path style="fill:#CED5DB;" d="M206.012,287.858c0.438,0.141,0.915-0.081,1.085-0.514              c0.177-0.451-0.044-0.96-0.495-1.138c-18.183-7.16-19.785-19.549-19.799-19.673c-0.055-0.481-0.487-0.828-0.968-0.775              c-0.48,0.053-0.828,0.484-0.776,0.965c0.059,0.549,1.667,13.543,20.9,21.117              C205.977,287.846,205.994,287.852,206.012,287.858z"/>
											</g>
										</g>
									</g>
								</g>
							</g>
						</g>
					</g>
					<g>
						<g>
							<g>
								<g>
									<g>
										<g>
											<g>
												<path style="fill:#CED5DB;" d="M196.865,290.304c0.43,0.139,0.902-0.073,1.078-0.498              c0.186-0.447-0.026-0.961-0.473-1.147c-9.964-4.145-11.185-9.842-11.196-9.899c-0.093-0.475-0.554-0.785-1.03-0.693              c-0.475,0.093-0.785,0.554-0.692,1.03c0.053,0.271,1.422,6.68,12.244,11.182              C196.819,290.289,196.842,290.297,196.865,290.304z"/>
											</g>
										</g>
									</g>
								</g>
							</g>
						</g>
					</g>
					<g>
						<g>
							<g>
								<g>
									<g>
										<g>
											<path style="fill:#CED5DB;" d="M227.206,310.115l2.246,15.988l0.516,3.655l3.574,25.418l0.179-10.392l-2.173-15.444             l-2.733-19.452c-0.065-0.443-0.471-0.751-0.918-0.69C227.454,309.258,227.141,309.669,227.206,310.115z"/>
										</g>
									</g>
								</g>
							</g>
						</g>
						<g>
							<g>
								<g>
									<g>
										<path style="fill:#CED5DB;" d="M230.745,330.27c0.157,0,0.315-0.045,0.454-0.14c0.372-0.252,0.469-0.757,0.217-1.128            l-5.338-7.882c-0.251-0.371-0.756-0.468-1.128-0.217c-0.371,0.252-0.469,0.757-0.217,1.128l5.337,7.882            C230.229,330.145,230.485,330.27,230.745,330.27z"/>
									</g>
								</g>
							</g>
						</g>
					</g>
					<g>
						<g>
							<g>
								<g>
									<path style="fill:#CED5DB;" d="M175.431,413.143c-9.36-4.712-19.572-12.111-25.096-23.319           c-0.198-0.402-0.033-0.889,0.37-1.088c0.404-0.199,0.889-0.033,1.087,0.37c5.934,12.043,17.55,19.57,27.403,24.037H175.431           z"/>
								</g>
							</g>
						</g>
					</g>
				</g>
				<g>
					<g>
						<path style="fill:#002E3C;" d="M219.114,203.231c0,0,6.514-9.517,4.564-16.511c-1.95-6.994-8.288-0.362-8.288-0.362        s-0.306-17.158-9.106-16.835c-8.8,0.322-7.669,7.593-7.669,7.593s-15.514-10.2-27.906-7.387        c-12.392,2.814,1.587,12.519,1.587,12.519s-15.215-8.323-17.131,0.374c-1.916,8.697,5.499,12.084,5.499,12.084        s-11.121,3.345-5.668,7.943c5.453,4.597,10.053,2.486,10.053,2.486L219.114,203.231z"/>
					</g>
					<g>
						<g>
							<g>
								<g>
									<g>
										<g>
											<g>
												<g>
													<g>
														<g>
															<g>
																<g>
																	<g>
																		<g>
																			<g>
																				<g>
																					<g>
																						<path style="fill:#f5a47a;" d="M168.216,217.471c0,0-7.34-1.952-8.03,6.492                        c-0.689,8.444,9.066,16.004,15.635,12.313C175.822,236.276,172.177,220.51,168.216,217.471z"/>
																					</g>
																				</g>
																			</g>
																		</g>
																	</g>
																</g>
															</g>
														</g>
													</g>
												</g>
											</g>
										</g>
									</g>
								</g>
							</g>
						</g>
					</g>
					<g>
						<g>
							<g>
								<g>
									<g>
										<g>
											<g>
												<g>
													<g>
														<g>
															<g>
																<g>
																	<g>
																		<g>
																			<g>
																				<g>
																					<g>
																						<g>
																							<g>
																								<g>
																									<g>
																										<path style="fill:#f0a097;" d="M173.623,233.415c-0.427,0.044-0.841-0.217-0.974-0.643                            c-1.853-5.948-6.891-8.547-6.941-8.573c-0.454-0.229-0.637-0.783-0.409-1.237                            c0.228-0.454,0.78-0.638,1.235-0.411c0.235,0.117,5.782,2.952,7.876,9.673                            c0.152,0.486-0.12,1.003-0.606,1.154C173.744,233.396,173.684,233.408,173.623,233.415z"/>
																									</g>
																								</g>
																							</g>
																						</g>
																					</g>
																				</g>
																			</g>
																		</g>
																	</g>
																</g>
															</g>
														</g>
													</g>
												</g>
											</g>
										</g>
									</g>
								</g>
							</g>
						</g>
						<g>
							<g>
								<g>
									<g>
										<g>
											<g>
												<g>
													<g>
														<g>
															<g>
																<g>
																	<g>
																		<g>
																			<g>
																				<g>
																					<g>
																						<g>
																							<g>
																								<g>
																									<g>
																										<path style="fill:#f0a097;" d="M166.028,229.856c-0.323,0.033-0.654-0.106-0.852-0.391                            c-0.291-0.418-0.189-0.992,0.229-1.283c0.117-0.081,2.884-1.988,5.347-1.849                            c0.508,0.029,0.897,0.464,0.868,0.972c-0.029,0.508-0.464,0.897-0.973,0.868                            c-1.514-0.086-3.537,1.069-4.189,1.521C166.326,229.788,166.177,229.841,166.028,229.856z"/>
																									</g>
																								</g>
																							</g>
																						</g>
																					</g>
																				</g>
																			</g>
																		</g>
																	</g>
																</g>
															</g>
														</g>
													</g>
												</g>
											</g>
										</g>
									</g>
								</g>
							</g>
						</g>
					</g>
					<g>
						<g>
							<g>
								<g>
									<g>
										<g>
											<g>
												<g>
													<g>
														<g>
															<g>
																<g>
																	<g>
																		<g>
																			<g>
																				<g>
																					<g>
																						<g>
																							<path style="fill:#f5a47a;" d="M189.054,267.361c0,0,6.96,3.722,15.078,0.803                         c8.117-2.918,11.915-7.693,11.915-7.693l-2.582-6.531l-8.951-20.074l-22.171,7.97l3.24,12.321                         L189.054,267.361z"/>
																						</g>
																					</g>
																				</g>
																			</g>
																		</g>
																	</g>
																</g>
															</g>
														</g>
													</g>
												</g>
											</g>
										</g>
									</g>
								</g>
							</g>
						</g>
						<g>
							<g>
								<g>
									<g>
										<g>
											<g>
												<g>
													<g>
														<g>
															<g>
																<g>
																	<g>
																		<g>
																			<g>
																				<g>
																					<g>
																						<g>
																							<g>
																								<path style="fill:#002E3C;" d="M185.582,254.158c3.843,2.739,13.651,7.609,27.882-0.218l-8.951-20.074                          l-22.171,7.97L185.582,254.158z"/>
																							</g>
																						</g>
																					</g>
																				</g>
																			</g>
																		</g>
																	</g>
																</g>
															</g>
														</g>
													</g>
												</g>
											</g>
										</g>
									</g>
								</g>
							</g>
						</g>
					</g>
					<g>
						<g>
							<path style="fill:#f5a47a;" d="M169.379,225.638c0.971,2.788,2.1,5.634,3.375,8.406         c6.031,13.107,15.375,24.636,27.296,20.626c9.941-3.347,14.782-14.688,17.086-26.33c0.594-2.998,1.024-6.019,1.329-8.924         c0.663-6.407,0.726-12.277,0.648-16.186c-0.059-3.232-1.848-6.189-4.701-7.709c-22.333-11.904-48.543,1.11-49.364,9.614         C164.733,208.398,166.253,216.7,169.379,225.638z"/>
						</g>
					</g>
					<g>
						<g>
							<path style="fill:#f0a097;" d="M194.414,247.217c-1.914,0-3.272-0.447-3.38-0.483c-0.391-0.133-0.6-0.557-0.467-0.947         c0.132-0.39,0.556-0.599,0.946-0.468c0.055,0.018,4.544,1.467,8.496-1.332c0.336-0.238,0.803-0.159,1.041,0.178         c0.238,0.336,0.159,0.803-0.178,1.041C198.618,246.802,196.258,247.217,194.414,247.217z"/>
						</g>
					</g>
					<g>
						<path style="fill:#eaeff5;" d="M204.007,239.808c0,0-3.442-2.734-8.476-2.864c-8.75-0.227-8.004,5.656-8.004,5.656        C192.589,243.912,198.018,243.311,204.007,239.808z"/>
					</g>
					<g>
						<path style="fill:#002E3C;" d="M207.313,209.775l-11.458-4.931c0,0-2.484,0.056-0.293,3.593        c2.322,3.749,9.614,3.512,9.614,3.512S208.53,212.729,207.313,209.775z"/>
					</g>
					<g>
						<path style="fill:#002E3C;" d="M171.719,213.776l10.464-6.79c0,0,2.458-0.363,0.894,3.493        c-1.658,4.087-8.886,5.081-8.886,5.081S171.017,216.892,171.719,213.776z"/>
					</g>
					<g>
						<g>
							<g>
								<g>
									<g>
										<g>
											<g>
												<g>
													<g>
														<g>
															<g>
																<g>
																	<g>
																		<g>
																			<g>
																				<g>
																					<g>
																						<path style="fill:#f0a097;" d="M201.615,223.844c0.164,1.445,2.592,2.357,5.421,2.035                        c2.83-0.321,4.992-1.753,4.828-3.198c-0.164-1.445-2.591-2.357-5.421-2.036                        C203.612,220.967,201.451,222.399,201.615,223.844z"/>
																					</g>
																				</g>
																			</g>
																		</g>
																	</g>
																</g>
															</g>
														</g>
													</g>
												</g>
											</g>
										</g>
									</g>
								</g>
							</g>
						</g>
					</g>
					<g>
						<g>
							<g>
								<g>
									<g>
										<g>
											<g>
												<g>
													<g>
														<g>
															<g>
																<g>
																	<g>
																		<g>
																			<g>
																				<g>
																					<g>
																						<path style="fill:#f0a097;" d="M171.315,227.684c0.164,1.445,2.591,2.357,5.421,2.036                        c2.83-0.321,4.992-1.753,4.828-3.198c-0.164-1.445-2.591-2.356-5.422-2.036                        C173.312,224.807,171.151,226.239,171.315,227.684z"/>
																					</g>
																				</g>
																			</g>
																		</g>
																	</g>
																</g>
															</g>
														</g>
													</g>
												</g>
											</g>
										</g>
									</g>
								</g>
							</g>
						</g>
					</g>
					<g>
						<g>
							<g>
								<g>
									<g>
										<g>
											<g>
												<g>
													<g>
														<g>
															<g>
																<g>
																	<g>
																		<g>
																			<g>
																				<g>
																					<g>
																						<g>
																							<path style="fill:#002E3C;" d="M199.458,218.264c0.156,1.43,0.922,2.52,1.712,2.434                         c0.79-0.086,1.304-1.315,1.148-2.745c-0.156-1.43-0.922-2.519-1.712-2.433                         C199.816,215.605,199.302,216.834,199.458,218.264z"/>
																						</g>
																					</g>
																				</g>
																			</g>
																		</g>
																	</g>
																</g>
															</g>
														</g>
													</g>
												</g>
											</g>
										</g>
									</g>
								</g>
							</g>
						</g>
					</g>
					<g>
						<g>
							<g>
								<g>
									<g>
										<g>
											<g>
												<g>
													<g>
														<g>
															<g>
																<g>
																	<g>
																		<g>
																			<g>
																				<g>
																					<g>
																						<g>
																							<path style="fill:#002E3C;" d="M182.536,220.408c0.206,1.424-0.264,2.67-1.051,2.784                         c-0.786,0.114-1.591-0.948-1.797-2.372c-0.206-1.424,0.264-2.67,1.051-2.784                         C181.526,217.923,182.331,218.985,182.536,220.408z"/>
																						</g>
																					</g>
																				</g>
																			</g>
																		</g>
																	</g>
																</g>
															</g>
														</g>
													</g>
												</g>
											</g>
										</g>
									</g>
								</g>
							</g>
						</g>
					</g>
					<g>
						<g>
							<g>
								<g>
									<g>
										<g>
											<g>
												<g>
													<g>
														<g>
															<g>
																<g>
																	<g>
																		<g>
																			<g>
																				<g>
																					<g>
																						<path style="fill:#f0a097;" d="M191.864,234.293c0.965-0.122,1.992-0.477,2.537-0.686                        c0.427-0.163,0.641-0.642,0.477-1.07c-0.164-0.427-0.642-0.641-1.069-0.478                        c-1.028,0.393-2.21,0.661-2.694,0.627c-0.113-1.357,0.017-7.639,0.211-13.234                        c0.016-0.458-0.342-0.841-0.799-0.857c-0.458-0.018-0.841,0.342-0.857,0.799                        c-0.103,2.981-0.418,12.794-0.135,13.902c0.092,0.361,0.333,0.658,0.676,0.835                        C190.637,234.354,191.238,234.372,191.864,234.293z"/>
																					</g>
																				</g>
																			</g>
																		</g>
																	</g>
																</g>
															</g>
														</g>
													</g>
												</g>
											</g>
										</g>
									</g>
								</g>
							</g>
						</g>
					</g>
					<g>
						<g>
							<g>
								<g>
									<g>
										<g>
											<g>
												<g>
													<g>
														<g>
															<g>
																<g>
																	<g>
																		<g>
																			<g>
																				<g>
																					<g>
																						<path style="fill:#002E3C;" d="M215.358,211.015c0.395,1.115,2.161,0.215,2.833-0.1                        c1.314-0.615,1.21-6.81,1.827-9.577c0.617-2.766,2.331-10.224-18.546-14.258                        c-20.877-4.033-35.887,8.909-37.051,15.655c-1.165,6.746,2.472,16.89,3.845,15.986                        c1.373-0.904-0.065-10.875,0.435-11.856c0.499-0.98-0.401-5.561,2.568-6.524                        c2.969-0.962,6.191-2.359,12.637-4.939c6.445-2.579,17.966-2.151,21.9-0.688c0,0-2.014,3.955,1.016,7.562                        C209.851,205.883,213.467,205.678,215.358,211.015z"/>
																					</g>
																				</g>
																			</g>
																		</g>
																	</g>
																</g>
															</g>
														</g>
													</g>
												</g>
											</g>
										</g>
									</g>
								</g>
							</g>
						</g>
					</g>
					<g>
						<g>
							<g>
								<g>
									<g>
										<g>
											<g>
												<g>
													<g>
														<g>
															<g>
																<g>
																	<g>
																		<g>
																			<g>
																				<g>
																					<g>
																						<path style="fill:#f5a47a;" d="M217.556,211.217c0,0,6.621-3.722,9.396,4.284                        c2.774,8.005-4.786,17.76-12.069,15.824C214.883,231.325,214.48,215.148,217.556,211.217z"/>
																					</g>
																				</g>
																			</g>
																		</g>
																	</g>
																</g>
															</g>
														</g>
													</g>
												</g>
											</g>
										</g>
									</g>
								</g>
							</g>
						</g>
					</g>
					<g>
						<g>
							<g>
								<g>
									<g>
										<g>
											<g>
												<g>
													<g>
														<g>
															<g>
																<g>
																	<g>
																		<g>
																			<g>
																				<g>
																					<g>
																						<g>
																							<g>
																								<g>
																									<g>
																										<path style="fill:#f0a097;" d="M216.298,228.005c0.425-0.064,0.76-0.42,0.782-0.865                            c0.311-6.222,4.54-9.996,4.583-10.034c0.383-0.335,0.422-0.917,0.088-1.3                            c-0.334-0.383-0.915-0.423-1.299-0.09c-0.198,0.172-4.863,4.302-5.214,11.332                            c-0.025,0.509,0.366,0.941,0.875,0.967C216.176,228.018,216.238,228.015,216.298,228.005z"/>
																									</g>
																								</g>
																							</g>
																						</g>
																					</g>
																				</g>
																			</g>
																		</g>
																	</g>
																</g>
															</g>
														</g>
													</g>
												</g>
											</g>
										</g>
									</g>
								</g>
							</g>
						</g>
						<g>
							<g>
								<g>
									<g>
										<g>
											<g>
												<g>
													<g>
														<g>
															<g>
																<g>
																	<g>
																		<g>
																			<g>
																				<g>
																					<g>
																						<g>
																							<g>
																								<g>
																									<g>
																										<path style="fill:#f0a097;" d="M222.766,222.665c0.321-0.049,0.607-0.265,0.728-0.591                            c0.177-0.477-0.065-1.007-0.542-1.185c-0.133-0.05-3.289-1.206-5.639-0.456                            c-0.485,0.155-0.753,0.673-0.598,1.158c0.155,0.485,0.673,0.753,1.159,0.598                            c1.445-0.461,3.692,0.153,4.436,0.428C222.46,222.673,222.617,222.687,222.766,222.665z"/>
																									</g>
																								</g>
																							</g>
																						</g>
																					</g>
																				</g>
																			</g>
																		</g>
																	</g>
																</g>
															</g>
														</g>
													</g>
												</g>
											</g>
										</g>
									</g>
								</g>
							</g>
						</g>
					</g>
					<g>
						<g>
							<g>
								<g>
									<g>
										<path style="fill:#eaeff5;" d="M206.848,232.146c-3.18,0.741-6.458,0.199-9.231-1.525            c-2.773-1.724-4.707-4.426-5.448-7.606c-0.742-3.18-0.2-6.458,1.525-9.231c1.725-2.772,4.423-4.708,7.605-5.449            c3.18-0.741,6.459-0.199,9.231,1.525c2.772,1.725,4.708,4.426,5.449,7.606c0.742,3.18,0.2,6.458-1.525,9.231            c-1.506,2.421-3.757,4.204-6.421,5.11C207.646,231.939,207.251,232.052,206.848,232.146z M194.787,214.465            c-1.543,2.48-2.027,5.413-1.365,8.258v0c0.663,2.845,2.395,5.261,4.875,6.804c2.48,1.543,5.413,2.027,8.258,1.365            c2.848-0.662,5.262-2.394,6.805-4.875c1.542-2.48,2.027-5.413,1.364-8.258c-0.663-2.845-2.394-5.262-4.875-6.805            c-2.481-1.543-5.413-2.027-8.259-1.364c-0.361,0.084-0.714,0.185-1.06,0.303            C198.148,210.704,196.134,212.298,194.787,214.465z"/>
									</g>
								</g>
							</g>
						</g>
					</g>
					<g>
						<g>
							<g>
								<g>
									<g>
										<path style="fill:#eaeff5;" d="M180.259,234.54c-6.205,1.446-12.431-2.426-13.877-8.632l0,0            c-1.446-6.206,2.431-12.43,8.632-13.877c3.006-0.701,6.105-0.188,8.726,1.442c2.621,1.63,4.45,4.184,5.15,7.19            c0.701,3.006,0.189,6.105-1.441,8.726c-1.424,2.289-3.551,3.974-6.07,4.831            C181.014,234.345,180.64,234.452,180.259,234.54z M167.636,225.617L167.636,225.617c1.285,5.514,6.817,8.955,12.331,7.67            c2.672-0.623,4.94-2.248,6.389-4.577c1.449-2.329,1.904-5.083,1.281-7.754c-0.623-2.671-2.248-4.94-4.577-6.389            c-2.329-1.449-5.083-1.904-7.754-1.281c-0.336,0.078-0.664,0.172-0.984,0.281            C169.39,215.245,166.429,220.439,167.636,225.617z"/>
									</g>
								</g>
							</g>
						</g>
					</g>
					<g>
						<g>
							<g>
								<g>
									<g>
										<path style="fill:#eaeff5;" d="M192.766,220.911c0.194-0.066,0.365-0.201,0.472-0.393            c0.229-0.411,0.088-0.928-0.321-1.161c-0.104-0.06-2.59-1.435-5.182,0.631c-0.37,0.296-0.432,0.836-0.136,1.206            c0.296,0.371,0.836,0.432,1.206,0.136c1.664-1.327,3.204-0.513,3.269-0.478            C192.294,220.972,192.545,220.986,192.766,220.911z"/>
									</g>
								</g>
							</g>
						</g>
					</g>
				</g>
			</g>
			<g>
				<g>
					<g>
						<g>
							<g>
								<g>
									<g>
										<path style="fill:#f5a47a;" d="M236.437,346.92c0.04,0.837,0.08,1.784,0.129,2.813c0.01,0.246,0.022,0.497,0.032,0.753            c0.268,6.113,0.626,14.69,1.054,20.216c0.34,4.413,0.736,8.915,1.188,13.152c0.087,0.835,0.179,1.657,0.273,2.467            c0.002,0.032,0.007,0.067,0.01,0.099c0.109,0.949,0.221,1.878,0.338,2.788c0.388,3.081,0.813,5.906,1.277,8.297            c1.913,9.902,7.564,15.709,12.762,14.899c3.603-0.564,6.992-4.309,8.771-12.073c2.974-12.998,2.731-34.69,1.466-46.982            c-0.079-0.785-0.323-3.784-0.512-6.033c-0.092-1.058-0.167-1.951-0.211-2.368c-0.005-0.03-0.007-0.06-0.01-0.087            L236.437,346.92z"/>
									</g>
								</g>
							</g>
						</g>
					</g>
				</g>
				<g>
					<g>
						<g>
							<path style="fill:#002E3C;" d="M236.423,346.92c0.045,1.044,0.089,2.249,0.144,3.568l0.032-0.003l26.627-2.79         c-0.094-1.235-0.169-2.271-0.211-2.748c-0.005-0.03-0.007-0.06-0.01-0.087l-26.567,2.06H236.423z"/>
						</g>
					</g>
				</g>
			</g>
			<g>
				<g>
					<g>
						<path style="fill:#f5a47a;" d="M190.969,413.186c0,0,28.346,0.209,50.522-0.042c0.189-0.002,8.893,0.013,9.079,0        c0.972-0.069,1.961-0.318,2.93-0.74c3.595-1.563,6.937-5.541,8.259-11.952l0.383-1.851c0.927-4.505-1.183-9.144-5.27-11.256        c-0.132-0.067-0.268-0.134-0.405-0.201c-1.374-0.658-1.382-0.467-2.748-0.825c-3.392-0.895-6.679-1.101-9.899-0.795        c-0.283,0.027-0.567,0.057-0.85,0.092c-0.221,0.025-0.445,0.057-0.666,0.087c-1.071,0.154-2.134,0.363-3.19,0.619        c-0.097,0.022-0.196,0.047-0.293,0.074c-5.715,1.429-11.258,4.242-16.817,7.4c-11.47,6.523-31.536,9.966-31.536,9.966        C185.783,408.808,190.969,413.186,190.969,413.186z"/>
					</g>
				</g>
				<g>
					<g>
						<path style="fill:#002E3C;" d="M238.82,386.395c0.099,0.008,0.199,0.015,0.303,0.025c2.617,0.238,6.286,0.954,10.029,2.935        c0,0-2.291-2.204-5.332-3.832c-1.536-0.825-3.26-1.501-4.979-1.67c0.087,0.835,0.179,1.657,0.273,2.467        C239.016,386.343,238.917,386.368,238.82,386.395z"/>
					</g>
				</g>
				<g>
					<g>
						<path style="fill:#f5a47a;" d="M190.468,403.201c0,0-12.43-4.546-20.963-2.684c-8.533,1.863-11.925,12.347-11.925,12.347        l33.028-0.388C190.607,412.477,195.044,404.592,190.468,403.201z"/>
					</g>
				</g>
			</g>
		</g>
	</g>
	<g>
		<g>
			<g>
				<g>
					<g>
						<path style="fill:#044F5B;" d="M102.947,413.226h125.572c1.147,0,2.077-0.93,2.077-2.077v-3.598        c0-1.147-0.93-2.077-2.077-2.077H102.947c-1.147,0-2.077,0.93-2.077,2.077v3.598        C100.87,412.296,101.8,413.226,102.947,413.226z"/>
					</g>
				</g>
				<g>
					<g>
						<path style="fill:#002E3C;" d="M58.424,342.121l16.062,67.933c0.429,1.811,2.044,3.089,3.905,3.089h98.946        c2.589,0,4.501-2.417,3.905-4.935l-16.061-67.933c-0.429-1.811-2.044-3.089-3.905-3.089H62.329        C59.74,337.186,57.828,339.603,58.424,342.121z"/>
					</g>
				</g>
				<g>
					<g>
						<path style="fill:#044F5B;" d="M157.354,337.186l17.101,75.957h2.881c2.589,0,4.501-2.417,3.905-4.935l-16.061-67.933        c-0.429-1.811-2.044-3.089-3.905-3.089H157.354z"/>
					</g>
				</g>
				<g>
					<g>
						
							<ellipse transform="matrix(0.6838 -0.7297 0.7297 0.6838 -240.4009 203.7072)" style="fill:#044F5B;" cx="114.834" cy="379.225" rx="7.521" ry="7.521"/>
					</g>
				</g>
			</g>
		</g>
		<g>
			<g>
				<path style="fill:#002E3C;" d="M25.064,413.052h444.64c1.45,0,2.625,1.175,2.625,2.625v0.215c0,1.45-1.176,2.626-2.625,2.626      H25.064c-1.45,0-2.625-1.176-2.625-2.626v-0.215C22.438,414.228,23.614,413.052,25.064,413.052z"/>
			</g>
		</g>
	</g>
	<g>
		<g>
			<g>
				<g>
					<path style="fill:#f44336;" d="M118.343,261.668c-0.266-1.756-2.099-2.405-4.192-2.089c-2.434,0.368-4.479,2.184-5.309,4.741       l-10.839-3.513c2.068-5.872,7.218-10.474,16.277-11.845c8.888-1.345,16.077,1.389,17.148,8.467       c1.311,8.662-7.516,11.561-6.856,15.919l-11.663,1.765C111.872,268.263,118.866,265.121,118.343,261.668z M112.622,284.307       c-0.574-3.794,2.045-7.142,6.462-7.81c4.416-0.668,7.909,1.755,8.483,5.549c0.566,3.736-2.028,7.257-6.444,7.926       C116.706,290.639,113.187,288.043,112.622,284.307z"/>
				</g>
			</g>
		</g>
		<g>
			<g>
				<g>
					<path style="fill:#f44336;" d="M96.183,300.393c0.498,1.705,2.401,2.104,4.433,1.511c2.363-0.689,4.148-2.762,4.63-5.406       l11.211,2.038c-1.267,6.095-5.759,11.342-14.553,13.908c-8.629,2.517-16.119,0.766-18.124-6.106       c-2.453-8.41,5.909-12.459,4.674-16.691l11.324-3.303C101.718,292.994,95.205,297.041,96.183,300.393z M98.837,277.193       c1.075,3.684-1.076,7.351-5.363,8.602c-4.288,1.251-8.072-0.685-9.147-4.369c-1.058-3.628,1.043-7.463,5.331-8.714       C93.945,271.462,97.779,273.566,98.837,277.193z"/>
				</g>
			</g>
		</g>
	</g>
	<g>
		<g>
			<path style="fill:#e91e63;" d="M275.092,170.091c0,0-31.557,9.905-30.11,41.36c1.447,31.455,27.097,87.651,27.097,87.651     s81.55,12.703,91.201-25.496c6.179-24.457-5.524-59.694-14.745-81.883c-6.066-14.598-19.822-24.545-35.587-25.702     C301.938,165.213,288.555,165.774,275.092,170.091z"/>
			<g>
				<defs fill="#000000">
					<path id="SVGID_1_" d="M255.298,199.115c0,0,8.705-17.982,34.327-23.884c25.622-5.903,46.576,2.019,46.576,2.019       s22.498-6.651,16.283-25.327c-6.215-18.676-47.781-40.841-85.874-17.758C228.517,157.246,216.328,186.233,255.298,199.115z" fill="#000000"/>
				</defs>
				<clipPath id="SVGID_00000149363589437594106490000005143164275605712313_" fill="#000000">
					<use xlink:href="#SVGID_1_" style="overflow:visible;" fill="#000000"/>
				</clipPath>
				<g style="clip-path:url(#SVGID_00000149363589437594106490000005143164275605712313_);">
					<g>
						<g>
							<path style="fill:#CED5DB;" d="M274.406,180.664c0,0,3.927,7.359-1.623,10.939c-5.55,3.58-10.183-2.522-10.183-2.522         L274.406,180.664z"/>
						</g>
					</g>
					<g>
						<g>
							<g>
								<path style="fill:#FFBA80;" d="M241.955,176.18c2.943,4.128,7.428,6.508,12.116,6.889c0,0,0.01-0.007,0.017,0.003          c1.259,0.519,5.431,2.354,7.96,4.907c0,0,2.884-0.564,6.522-3.157c3.648-2.601,5.112-5.136,5.112-5.136          c-0.622-1.275-1.068-2.766-1.377-4.173c0,0,0,0,0.01-0.007c-0.577-2.649-0.679-5.033-0.701-5.319          c0.013-0.024,0.006-0.034,0.006-0.034c0.989-4.428,0.157-9.232-2.679-13.21c-5.315-7.456-15.656-9.189-23.112-3.874          c-0.63,0.449-1.231,0.938-1.777,1.462c-0.01,0.007-0.003,0.017-0.013,0.024C238.132,160.138,237.096,169.363,241.955,176.18          z"/>
							</g>
						</g>
						<g>
							<g>
								<g>
									<g>
										<path style="fill:#eaeff5;" d="M253.703,174.225c0.086-0.062,0.132-0.166,0.117-0.271l-0.181-1.296l1.166,0.594            c0.095,0.048,0.208,0.04,0.295-0.022c0.087-0.062,0.132-0.166,0.117-0.271l-0.181-1.296l1.165,0.594            c0.095,0.048,0.208,0.04,0.295-0.022l0,0c0.087-0.062,0.132-0.166,0.117-0.272l-0.182-1.295l1.166,0.594            c0.094,0.048,0.208,0.04,0.295-0.022l0,0c0.086-0.062,0.132-0.166,0.117-0.271l-0.182-1.295l1.165,0.594            c0.095,0.048,0.208,0.04,0.295-0.022c0.087-0.062,0.132-0.166,0.117-0.271l-0.182-1.296l1.165,0.594            c0.095,0.048,0.208,0.04,0.295-0.022l0,0c0.087-0.062,0.132-0.166,0.117-0.271l-0.182-1.295l1.165,0.594            c0.095,0.048,0.208,0.04,0.295-0.022c0.086-0.062,0.131-0.166,0.117-0.272l-0.182-1.295l1.165,0.594            c0.095,0.048,0.208,0.04,0.295-0.022l0,0c0.086-0.062,0.131-0.166,0.117-0.271l-0.258-1.837            c-0.022-0.156-0.166-0.264-0.322-0.242c-0.156,0.022-0.264,0.166-0.242,0.322l0.182,1.295l-1.165-0.594            c-0.095-0.048-0.208-0.04-0.295,0.022c-0.087,0.062-0.132,0.166-0.117,0.271l0.182,1.295l-1.165-0.594            c-0.095-0.048-0.208-0.04-0.295,0.022c-0.087,0.062-0.132,0.166-0.117,0.271l0.182,1.295l-1.165-0.594            c-0.095-0.048-0.208-0.04-0.295,0.022c-0.087,0.062-0.132,0.166-0.117,0.271l0.182,1.296l-1.165-0.594            c-0.094-0.048-0.208-0.04-0.295,0.022c-0.086,0.062-0.131,0.166-0.117,0.271l0.182,1.296l-1.165-0.594            c-0.095-0.048-0.208-0.04-0.295,0.022l0,0c-0.087,0.062-0.132,0.166-0.117,0.272l0.182,1.295l-1.165-0.594            c-0.094-0.048-0.208-0.04-0.295,0.022c-0.086,0.062-0.132,0.166-0.117,0.271l0.182,1.296l-1.165-0.594            c-0.095-0.048-0.208-0.04-0.295,0.022c-0.087,0.062-0.132,0.166-0.117,0.271l0.181,1.296l-1.166-0.594            c-0.14-0.071-0.312-0.016-0.383,0.124c-0.072,0.14-0.016,0.312,0.124,0.383l1.653,0.842            C253.503,174.295,253.617,174.287,253.703,174.225z"/>
									</g>
								</g>
							</g>
							<g>
								<g>
									<g>
										<g>
											<path style="fill:#eaeff5;" d="M269.025,179.594c0.152-0.125,0.304-0.251,0.454-0.379l-5.646-12.464l0,0l-0.407-0.897             L263,164.914l-0.15-0.331c-0.085,0.01-0.169,0.03-0.25,0.059c-0.069,0.023-0.137,0.055-0.202,0.092             c-0.025,0.022-0.049,0.046-0.072,0.07l0.546,1.207l0.408,0.9l0.049,0.109l0.117,0.259L269.025,179.594z"/>
										</g>
									</g>
								</g>
								<g>
									<g>
										<g>
											<path style="fill:#eaeff5;" d="M261.999,166.538c0.255,0.357,0.663,0.54,1.072,0.521c0.087-0.004,0.174-0.017,0.259-0.04             c0.101-0.026,0.199-0.066,0.293-0.119c0.039-0.022,0.075-0.045,0.112-0.071c0.035-0.025,0.068-0.051,0.099-0.079             c0.475-0.415,0.567-1.132,0.193-1.657c-0.276-0.388-0.735-0.569-1.175-0.511c-0.085,0.011-0.169,0.03-0.25,0.059             c-0.069,0.024-0.137,0.055-0.202,0.092c-0.037,0.021-0.073,0.044-0.109,0.069c-0.064,0.046-0.121,0.096-0.173,0.15             C261.707,165.375,261.645,166.042,261.999,166.538z"/>
										</g>
									</g>
								</g>
								<g>
									<g>
										<g>
											<path style="fill:#eaeff5;" d="M251.263,174.191c0.396,0.555,1.163,0.688,1.722,0.3c0.005-0.003,0.01-0.006,0.014-0.009             c0.158-0.113,0.281-0.255,0.369-0.413c0.223-0.406,0.21-0.92-0.077-1.323c-0.385-0.539-1.119-0.68-1.673-0.333             c-0.021,0.013-0.042,0.028-0.063,0.042c-0.14,0.1-0.254,0.224-0.338,0.362             C250.962,173.23,250.964,173.772,251.263,174.191z"/>
										</g>
									</g>
								</g>
							</g>
							<g>
								<g>
									<g>
										<path style="fill:#eaeff5;" d="M251.216,172.817l0.386,0.365l0.33,0.313l1.053,0.996l9.907,9.37            c0.167-0.1,0.335-0.202,0.505-0.305l-9.813-9.281l-0.217-0.205l-1.103-1.044l-0.647-0.612            c-0.021,0.013-0.043,0.028-0.063,0.042C251.414,172.555,251.3,172.679,251.216,172.817z"/>
									</g>
								</g>
							</g>
						</g>
						<g style="opacity:0.5;">
							<g>
								<path style="fill:#FFBA80;" d="M241.955,176.18c2.943,4.128,7.428,6.508,12.116,6.889c0,0,0.01-0.007,0.017,0.003          c1.259,0.519,5.431,2.354,7.96,4.907c0,0,2.884-0.564,6.522-3.157c3.648-2.601,5.112-5.136,5.112-5.136          c-0.622-1.275-1.068-2.766-1.377-4.173c-2.225,2.355-9.083,9.038-11.778,5.11c-3.247-4.725-9.371-2.741-16.173-9.831          c-5.988-6.223-1.482-14.364-0.314-16.237C238.132,160.138,237.096,169.363,241.955,176.18z"/>
							</g>
						</g>
						<g>
							<g>
								<path style="fill:#eaeff5;" d="M271.738,177.124c1.299-1.322,3.64-0.323,3.487,1.523c-0.218,2.638-2.376,4.678-5.846,7.152          c-3.661,2.61-6.265,4.089-8.809,3.268c-1.702-0.549-1.843-2.907-0.265-3.748          C263.445,183.645,268.124,180.803,271.738,177.124z"/>
							</g>
						</g>
					</g>
				</g>
				<g style="clip-path:url(#SVGID_00000149363589437594106490000005143164275605712313_);">
					<g>
						<g>
							<path style="fill:#CED5DB;" d="M294.979,173.757c0,0,0.323,8.335-6.233,9.135c-6.556,0.8-8.063-6.712-8.063-6.712         L294.979,173.757z"/>
						</g>
					</g>
					<g>
						<g>
							<g>
								<path style="fill:#FFBA80;" d="M267.734,155.566c0.847,4.998,3.845,9.096,7.897,11.484c0,0,0.012-0.002,0.014,0.01          c0.907,1.017,3.861,4.487,5.022,7.888c0,0,2.841,0.751,7.246,0.004c4.417-0.749,6.84-2.392,6.84-2.392          c-0.004-1.419,0.246-2.955,0.581-4.356c0,0,0,0,0.012-0.002c0.637-2.635,1.585-4.825,1.689-5.092          c0.022-0.016,0.02-0.028,0.02-0.028c2.821-3.553,4.169-8.238,3.352-13.055c-1.53-9.028-10.079-15.098-19.107-13.568          c-0.762,0.129-1.517,0.307-2.236,0.541c-0.012,0.002-0.01,0.014-0.022,0.016          C271.291,139.463,266.335,147.313,267.734,155.566z"/>
							</g>
						</g>
						<g>
							<g>
								<g>
									<g>
										<path style="fill:#eaeff5;" d="M279.158,158.932c0.105-0.018,0.191-0.092,0.223-0.193l0.402-1.245l0.79,1.043            c0.064,0.085,0.17,0.126,0.275,0.109c0.105-0.018,0.191-0.092,0.224-0.193l0.402-1.245l0.789,1.043            c0.064,0.085,0.17,0.127,0.275,0.109l0,0c0.105-0.018,0.191-0.092,0.224-0.193l0.401-1.245l0.79,1.043            c0.064,0.085,0.17,0.127,0.275,0.109l0,0c0.105-0.018,0.191-0.092,0.223-0.193l0.402-1.245l0.789,1.043            c0.064,0.085,0.17,0.127,0.275,0.109c0.105-0.018,0.191-0.092,0.224-0.193l0.402-1.245l0.789,1.043            c0.064,0.085,0.17,0.127,0.275,0.109l0,0c0.105-0.018,0.191-0.092,0.223-0.193l0.401-1.245l0.789,1.043            c0.064,0.085,0.17,0.127,0.275,0.109c0.105-0.018,0.191-0.092,0.223-0.193l0.401-1.245l0.789,1.043            c0.064,0.085,0.17,0.127,0.275,0.109l0,0c0.105-0.018,0.191-0.092,0.223-0.193l0.569-1.766            c0.048-0.15-0.034-0.31-0.184-0.359c-0.15-0.048-0.31,0.034-0.358,0.184l-0.401,1.244l-0.789-1.043            c-0.064-0.085-0.17-0.127-0.275-0.109c-0.105,0.018-0.191,0.092-0.224,0.193l-0.402,1.245l-0.789-1.043            c-0.064-0.085-0.17-0.127-0.275-0.109c-0.105,0.018-0.191,0.092-0.223,0.193l-0.401,1.245l-0.789-1.043            c-0.064-0.085-0.17-0.127-0.275-0.109c-0.105,0.018-0.191,0.092-0.223,0.193l-0.402,1.245l-0.789-1.043            c-0.064-0.085-0.17-0.127-0.275-0.109c-0.105,0.018-0.191,0.092-0.223,0.193l-0.402,1.245l-0.789-1.043            c-0.064-0.085-0.17-0.127-0.275-0.109l0,0c-0.105,0.018-0.191,0.092-0.224,0.193l-0.401,1.245l-0.789-1.043            c-0.064-0.085-0.17-0.127-0.275-0.109c-0.105,0.018-0.191,0.092-0.223,0.193l-0.402,1.245l-0.789-1.043            c-0.064-0.085-0.17-0.127-0.275-0.109c-0.105,0.018-0.191,0.092-0.224,0.193l-0.402,1.245l-0.79-1.043            c-0.095-0.125-0.274-0.15-0.399-0.055c-0.126,0.095-0.15,0.273-0.055,0.399l1.12,1.479            C278.947,158.908,279.053,158.95,279.158,158.932z"/>
									</g>
								</g>
							</g>
							<g>
								<g>
									<g>
										<g>
											<path style="fill:#eaeff5;" d="M290.603,170.447c0.191-0.046,0.383-0.094,0.574-0.143l0.356-13.679v-0.001l0.026-0.985             l0.027-1.031l0.01-0.363c-0.081-0.028-0.165-0.047-0.251-0.056c-0.072-0.009-0.147-0.01-0.222-0.006             c-0.032,0.009-0.064,0.02-0.095,0.031l-0.035,1.325l-0.026,0.987l-0.003,0.12l-0.008,0.284L290.603,170.447z"/>
										</g>
									</g>
								</g>
								<g>
									<g>
										<g>
											<path style="fill:#eaeff5;" d="M289.975,155.634c0.073,0.433,0.361,0.775,0.737,0.936             c0.08,0.034,0.163,0.061,0.251,0.077c0.102,0.02,0.208,0.027,0.315,0.021c0.044-0.003,0.087-0.007,0.132-0.015             c0.042-0.007,0.083-0.016,0.123-0.028c0.608-0.167,1.004-0.772,0.896-1.407c-0.079-0.469-0.413-0.833-0.835-0.973             c-0.081-0.027-0.165-0.046-0.251-0.056c-0.072-0.009-0.147-0.01-0.222-0.006c-0.042,0.002-0.085,0.008-0.128,0.015             c-0.077,0.013-0.151,0.033-0.221,0.059C290.221,154.459,289.874,155.033,289.975,155.634z"/>
										</g>
									</g>
								</g>
								<g>
									<g>
										<g>
											<path style="fill:#eaeff5;" d="M276.977,157.837c0.114,0.672,0.747,1.126,1.419,1.021c0.005,0,0.011-0.001,0.016-0.002             c0.191-0.032,0.364-0.106,0.512-0.211c0.378-0.268,0.59-0.737,0.508-1.224c-0.111-0.653-0.711-1.1-1.36-1.03             c-0.025,0.003-0.05,0.007-0.075,0.011c-0.17,0.029-0.326,0.091-0.463,0.178             C277.126,156.841,276.891,157.329,276.977,157.837z"/>
										</g>
									</g>
								</g>
							</g>
							<g>
								<g>
									<g>
										<path style="fill:#eaeff5;" d="M277.534,156.58l0.188,0.497l0.161,0.425l0.513,1.356l4.827,12.753            c0.194-0.017,0.39-0.035,0.588-0.054l-4.782-12.632l-0.105-0.279l-0.537-1.421l-0.315-0.833            c-0.025,0.003-0.05,0.007-0.075,0.011C277.827,156.431,277.67,156.493,277.534,156.58z"/>
									</g>
								</g>
							</g>
						</g>
						<g style="opacity:0.5;">
							<g>
								<path style="fill:#FFBA80;" d="M267.734,155.566c0.847,4.998,3.845,9.096,7.897,11.484c0,0,0.012-0.002,0.014,0.01          c0.907,1.017,3.861,4.487,5.022,7.888c0,0,2.841,0.751,7.246,0.004c4.417-0.749,6.84-2.392,6.84-2.392          c-0.004-1.419,0.246-2.955,0.581-4.356c-3.03,1.148-12.116,4.17-12.827-0.54c-0.861-5.668-7.236-6.554-10.265-15.901          c-2.674-8.212,4.933-13.572,6.8-14.748C271.291,139.463,266.335,147.313,267.734,155.566z"/>
							</g>
						</g>
						<g>
							<g>
								<path style="fill:#eaeff5;" d="M294.121,169.408c1.745-0.623,3.416,1.297,2.473,2.892c-1.347,2.278-4.179,3.173-8.381,3.886          c-4.432,0.751-7.421,0.947-9.352-0.902c-1.292-1.237-0.39-3.419,1.397-3.488          C283.815,171.658,289.265,171.141,294.121,169.408z"/>
							</g>
						</g>
					</g>
				</g>
				<g style="clip-path:url(#SVGID_00000149363589437594106490000005143164275605712313_);">
					<g>
						<g>
							<path style="fill:#CED5DB;" d="M329.606,176.807c0,0-4.259,7.172-10.197,4.28c-5.938-2.892-3.119-10.016-3.119-10.016         L329.606,176.807z"/>
						</g>
					</g>
					<g>
						<g>
							<g>
								<path style="fill:#FFBA80;" d="M316.626,146.729c-2.006,4.656-1.717,9.725,0.386,13.932c0,0,0.011,0.005,0.006,0.016          c0.209,1.346,0.801,5.865-0.072,9.351c0,0,1.977,2.175,6.08,3.942c4.115,1.773,7.042,1.71,7.042,1.71          c0.768-1.193,1.813-2.346,2.856-3.341c0,0,0,0,0.011,0.005c1.967-1.866,3.953-3.189,4.185-3.356          c0.027-0.001,0.032-0.013,0.032-0.013c4.299-1.449,7.977-4.649,9.91-9.136c3.623-8.41-0.253-18.152-8.662-21.775          c-0.71-0.306-1.44-0.567-2.171-0.762c-0.011-0.005-0.016,0.006-0.027,0.002C328.365,135.146,319.938,139.04,316.626,146.729          z"/>
							</g>
						</g>
						<g>
							<g>
								<g>
									<g>
										<path style="fill:#eaeff5;" d="M324.385,155.764c0.098,0.042,0.21,0.026,0.293-0.041l1.014-0.827l0.096,1.305            c0.008,0.106,0.074,0.199,0.171,0.241c0.098,0.042,0.21,0.026,0.293-0.041l1.014-0.827l0.096,1.305            c0.008,0.106,0.074,0.199,0.171,0.241l0,0c0.098,0.042,0.21,0.026,0.293-0.041l1.014-0.827l0.096,1.305            c0.008,0.106,0.074,0.199,0.171,0.241l0,0c0.098,0.042,0.21,0.026,0.293-0.041l1.014-0.827l0.096,1.305            c0.008,0.106,0.074,0.199,0.171,0.241c0.098,0.042,0.21,0.026,0.293-0.041l1.014-0.827l0.095,1.305            c0.008,0.106,0.074,0.199,0.171,0.241l0,0c0.098,0.042,0.21,0.026,0.293-0.041l1.014-0.826l0.096,1.304            c0.008,0.106,0.074,0.199,0.172,0.241c0.097,0.042,0.21,0.026,0.293-0.041l1.014-0.827l0.096,1.305            c0.008,0.106,0.074,0.199,0.171,0.241l0,0c0.098,0.042,0.21,0.026,0.293-0.041l1.437-1.173            c0.122-0.099,0.14-0.279,0.041-0.401c-0.099-0.122-0.279-0.14-0.401-0.041l-1.013,0.827l-0.096-1.304            c-0.008-0.106-0.074-0.199-0.171-0.241c-0.098-0.042-0.21-0.026-0.293,0.041l-1.014,0.827l-0.095-1.305            c-0.008-0.106-0.074-0.199-0.171-0.241c-0.098-0.042-0.21-0.026-0.293,0.041l-1.014,0.827l-0.096-1.305            c-0.008-0.106-0.074-0.199-0.171-0.241c-0.098-0.042-0.21-0.026-0.293,0.041l-1.014,0.827l-0.096-1.305            c-0.008-0.106-0.074-0.199-0.171-0.241c-0.097-0.042-0.21-0.026-0.293,0.041l-1.014,0.827l-0.096-1.305            c-0.008-0.106-0.074-0.199-0.171-0.241l0,0c-0.098-0.042-0.21-0.026-0.293,0.041l-1.014,0.827l-0.096-1.304            c-0.008-0.106-0.074-0.199-0.171-0.241c-0.097-0.042-0.21-0.026-0.293,0.041l-1.014,0.827l-0.096-1.305            c-0.008-0.106-0.074-0.199-0.171-0.241c-0.098-0.042-0.21-0.026-0.293,0.041l-1.014,0.827l-0.096-1.305            c-0.012-0.157-0.148-0.275-0.305-0.263c-0.157,0.012-0.275,0.148-0.263,0.305l0.136,1.85            C324.221,155.629,324.287,155.722,324.385,155.764z"/>
									</g>
								</g>
							</g>
							<g>
								<g>
									<g>
										<g>
											<path style="fill:#eaeff5;" d="M327.733,171.65c0.186,0.066,0.373,0.129,0.559,0.192l7.735-11.288l0,0l0.557-0.813             l0.583-0.851l0.206-0.3c-0.053-0.067-0.113-0.129-0.18-0.183c-0.056-0.047-0.118-0.089-0.183-0.125             c-0.032-0.01-0.064-0.018-0.097-0.026l-0.749,1.093l-0.558,0.815l-0.068,0.099l-0.161,0.234L327.733,171.65z"/>
										</g>
									</g>
								</g>
								<g>
									<g>
										<g>
											<path style="fill:#eaeff5;" d="M335.257,158.875c-0.174,0.403-0.118,0.846,0.11,1.186             c0.049,0.072,0.104,0.14,0.169,0.201c0.075,0.073,0.16,0.136,0.254,0.189c0.038,0.022,0.077,0.041,0.119,0.059             c0.039,0.017,0.079,0.032,0.118,0.044c0.601,0.191,1.262-0.102,1.517-0.694c0.188-0.437,0.106-0.923-0.172-1.27             c-0.053-0.067-0.113-0.129-0.181-0.184c-0.056-0.047-0.118-0.088-0.183-0.125c-0.037-0.021-0.076-0.04-0.115-0.057             c-0.072-0.031-0.145-0.054-0.218-0.071C336.102,158.023,335.499,158.315,335.257,158.875z"/>
										</g>
									</g>
								</g>
								<g>
									<g>
										<g>
											<path style="fill:#eaeff5;" d="M323.15,153.659c-0.27,0.626,0.015,1.351,0.636,1.628c0.005,0.003,0.01,0.005,0.015,0.007             c0.178,0.077,0.363,0.109,0.544,0.101c0.463-0.019,0.896-0.298,1.091-0.751c0.262-0.608,0.002-1.31-0.582-1.604             c-0.022-0.011-0.046-0.022-0.069-0.032c-0.158-0.068-0.323-0.101-0.485-0.102             C323.816,152.904,323.353,153.186,323.15,153.659z"/>
										</g>
									</g>
								</g>
							</g>
							<g>
								<g>
									<g>
										<path style="fill:#eaeff5;" d="M324.3,152.907l-0.112,0.519l-0.096,0.444l-0.306,1.417l-2.88,13.329            c0.172,0.091,0.346,0.182,0.523,0.274l2.853-13.202l0.063-0.292l0.321-1.484l0.188-0.871            c-0.022-0.011-0.046-0.022-0.069-0.032C324.627,152.94,324.462,152.908,324.3,152.907z"/>
									</g>
								</g>
							</g>
						</g>
						<g style="opacity:0.5;">
							<g>
								<path style="fill:#FFBA80;" d="M316.626,146.729c-2.006,4.656-1.717,9.725,0.386,13.932c0,0,0.011,0.005,0.006,0.016          c0.209,1.346,0.801,5.865-0.072,9.351c0,0,1.977,2.175,6.08,3.942c4.115,1.773,7.042,1.71,7.042,1.71          c0.768-1.193,1.813-2.346,2.856-3.341c-3.167-0.683-12.437-3.086-10.473-7.426c2.358-5.226-2.511-9.435,0.027-18.926          c2.219-8.346,11.518-8.711,13.724-8.682C328.365,135.146,319.938,139.04,316.626,146.729z"/>
							</g>
						</g>
						<g>
							<g>
								<path style="fill:#eaeff5;" d="M331.25,172.69c1.803,0.426,2.163,2.946,0.504,3.772c-2.369,1.18-5.233,0.392-9.146-1.294          c-4.129-1.779-6.744-3.239-7.36-5.84c-0.412-1.74,1.531-3.082,3.069-2.169C321.376,168.977,326.232,171.505,331.25,172.69z"/>
							</g>
						</g>
					</g>
				</g>
			</g>
		</g>
		<g>
			<path style="fill:#002E3C;" d="M343.236,185.373c0,0,41.778,12.012,59.701,14.253l-9.957,26.318l-41.158-5.763L343.236,185.373z"/>
		</g>
		<g>
			<g>
				<g>
					<path style="fill:#CED5DB;" d="M413.078,331.972c0,0-11.799,26.265-33.296,18.671c-21.497-7.594-14.62-33.132-14.62-33.132       L413.078,331.972z"/>
				</g>
			</g>
			<g>
				<g>
					<g>
						<path style="fill:#FFBA80;" d="M356.782,233.897c-5.056,16.753-2.081,34.026,6.78,47.632c0,0,0.041,0.012,0.028,0.053        c1.242,4.535,5.044,19.801,3.413,32.099c0,0,7.631,6.685,22.396,11.141c14.806,4.468,24.82,3.109,24.82,3.109        c2.166-4.391,5.298-8.757,8.486-12.575c0,0,0,0,0.04,0.012c6.014-7.169,12.309-12.484,13.041-13.148        c0.093-0.016,0.106-0.057,0.106-0.057c14.179-6.653,25.538-19.069,30.411-35.213c9.132-30.261-7.974-62.155-38.235-71.288        c-2.556-0.771-5.16-1.38-7.745-1.762c-0.04-0.012-0.052,0.028-0.093,0.016C392.508,189.577,365.131,206.232,356.782,233.897z"/>
					</g>
				</g>
				<g>
					<g>
						<g>
							<g>
								<path style="fill:#eaeff5;" d="M386.932,261.846c0.351,0.106,0.732,0.008,0.988-0.254l3.155-3.233l0.839,4.438          c0.068,0.36,0.331,0.652,0.682,0.758c0.351,0.106,0.732,0.008,0.988-0.254l3.154-3.232l0.839,4.437          c0.068,0.361,0.331,0.653,0.682,0.759l0,0c0.351,0.106,0.732,0.008,0.988-0.255l3.152-3.232l0.839,4.437          c0.068,0.36,0.331,0.652,0.682,0.758l0,0c0.351,0.106,0.732,0.008,0.988-0.255l3.153-3.232l0.839,4.437          c0.068,0.361,0.331,0.653,0.682,0.759c0.351,0.106,0.732,0.008,0.988-0.254l3.154-3.232l0.839,4.437          c0.068,0.361,0.331,0.653,0.682,0.759l0,0c0.351,0.106,0.732,0.008,0.988-0.255l3.153-3.232l0.838,4.436          c0.068,0.361,0.331,0.653,0.682,0.759c0.351,0.106,0.732,0.008,0.988-0.255l3.153-3.232l0.839,4.437          c0.068,0.361,0.331,0.653,0.682,0.759l0,0c0.351,0.106,0.731,0.008,0.988-0.255l4.471-4.584          c0.379-0.389,0.371-1.011-0.017-1.391c-0.388-0.379-1.011-0.371-1.391,0.018l-3.152,3.232l-0.838-4.436          c-0.068-0.36-0.331-0.652-0.682-0.758c-0.351-0.106-0.732-0.008-0.988,0.254l-3.153,3.232l-0.839-4.437          c-0.068-0.36-0.331-0.652-0.682-0.758c-0.351-0.106-0.732-0.008-0.988,0.254l-3.153,3.232l-0.839-4.437          c-0.068-0.36-0.331-0.652-0.682-0.758c-0.351-0.106-0.732-0.008-0.988,0.255l-3.154,3.232l-0.839-4.437          c-0.068-0.36-0.331-0.652-0.682-0.758c-0.35-0.106-0.731-0.008-0.987,0.255l-3.154,3.232l-0.839-4.437          c-0.068-0.36-0.331-0.652-0.682-0.758l0,0c-0.351-0.106-0.732-0.008-0.988,0.255l-3.152,3.232l-0.839-4.437          c-0.068-0.36-0.331-0.652-0.682-0.758c-0.351-0.106-0.732-0.008-0.987,0.255l-3.155,3.232l-0.839-4.437          c-0.068-0.36-0.331-0.652-0.682-0.758c-0.351-0.106-0.732-0.008-0.988,0.254l-3.155,3.233l-0.84-4.439          c-0.102-0.533-0.616-0.884-1.149-0.783c-0.534,0.101-0.884,0.615-0.783,1.149l1.191,6.293          C386.318,261.448,386.58,261.74,386.932,261.846z"/>
							</g>
						</g>
					</g>
					<g>
						<g>
							<g>
								<g>
									<path style="fill:#eaeff5;" d="M404.634,315.021c0.662,0.152,1.328,0.298,1.993,0.439l22.107-41.742l0.001-0.001           l1.591-3.006l1.666-3.146l0.588-1.109c-0.207-0.21-0.439-0.398-0.69-0.559c-0.21-0.139-0.439-0.257-0.677-0.358           c-0.113-0.022-0.228-0.038-0.342-0.05l-2.142,4.042l-1.595,3.013l-0.194,0.366l-0.46,0.867L404.634,315.021z"/>
								</g>
							</g>
						</g>
						<g>
							<g>
								<g>
									<path style="fill:#eaeff5;" d="M425.44,268.261c-0.438,1.45-0.074,2.949,0.842,4.025c0.195,0.229,0.412,0.439,0.657,0.623           c0.284,0.22,0.6,0.404,0.943,0.549c0.141,0.059,0.281,0.111,0.43,0.156c0.141,0.043,0.281,0.078,0.422,0.103           c2.137,0.419,4.29-0.844,4.932-2.974c0.475-1.573,0.003-3.208-1.087-4.288c-0.208-0.209-0.439-0.397-0.691-0.559           c-0.21-0.138-0.438-0.257-0.677-0.358c-0.134-0.057-0.275-0.107-0.418-0.15c-0.26-0.078-0.518-0.13-0.776-0.157           C428.001,265.006,426.048,266.246,425.44,268.261z"/>
								</g>
							</g>
						</g>
						<g>
							<g>
								<g>
									<path style="fill:#eaeff5;" d="M381.871,255.112c-0.68,2.253,0.579,4.627,2.819,5.335c0.017,0.008,0.037,0.014,0.054,0.019           c0.64,0.193,1.289,0.231,1.907,0.134c1.58-0.248,2.956-1.372,3.448-3.004c0.661-2.189-0.507-4.493-2.624-5.273           c-0.08-0.029-0.165-0.057-0.249-0.082c-0.57-0.172-1.148-0.219-1.704-0.159C383.86,252.261,382.385,253.41,381.871,255.112           z"/>
								</g>
							</g>
						</g>
					</g>
					<g>
						<g>
							<g>
								<path style="fill:#eaeff5;" d="M385.523,252.082l-0.181,1.825l-0.156,1.561l-0.495,4.98l-4.659,46.841          c0.626,0.245,1.258,0.489,1.901,0.734l4.616-46.397l0.103-1.026l0.521-5.217l0.304-3.06          c-0.08-0.029-0.166-0.057-0.249-0.082C386.658,252.068,386.078,252.02,385.523,252.082z"/>
							</g>
						</g>
					</g>
				</g>
				<g style="opacity:0.5;">
					<g>
						<path style="fill:#FFBA80;" d="M356.782,233.897c-5.056,16.753-2.081,34.026,6.78,47.632c0,0,0.041,0.012,0.028,0.053        c1.242,4.535,5.044,19.801,3.413,32.099c0,0,7.631,6.685,22.396,11.141c14.806,4.468,24.82,3.109,24.82,3.109        c2.166-4.391,5.298-8.757,8.486-12.575c-11.13-1.102-43.862-5.713-38.828-21.366c6.042-18.845-12.306-31.375-7.316-64.922        c4.342-29.493,36.091-34.385,43.669-35.151C392.508,189.577,365.131,206.232,356.782,233.897z"/>
					</g>
				</g>
				<g>
					<g>
						<path style="fill:#eaeff5;" d="M417.105,317.211c6.352,0.754,8.57,9.256,3.206,12.739c-7.663,4.975-17.793,3.394-31.876-0.857        c-14.857-4.484-24.397-8.469-27.528-17.149c-2.095-5.807,4.044-11.17,9.675-8.64        C381.787,308.341,399.43,315.112,417.105,317.211z"/>
					</g>
				</g>
			</g>
		</g>
		<g>
			<g>
				<path style="fill:#e91e63;" d="M415.27,413.05l-42.78,0.18l-2.09,0.01l-6.28,0.03c-4.64-9.33-5.58-18.13-9.38-26.67l-2.09-11.44      l46.86-9.34L415.27,413.05z"/>
			</g>
			<g>
				<path style="fill:#BB222C;" d="M372.49,413.23l-2.09,0.01l-9.02-29.09c-0.17-0.53,0.13-1.09,0.66-1.25s1.08,0.13,1.25,0.66      L372.49,413.23z"/>
			</g>
			<g>
				<path style="fill:#f44336;" d="M358.654,398.048L358,413.04l-42.33,0.18l-2.08,0.01l-8.37,0.04l-7.63-27.88l7.58-1.11l2-0.29      l60.31-8.83C367.48,384.03,358.654,398.048,358.654,398.048z"/>
			</g>
			<g>
				<path style="fill:#e91e63;" d="M315.67,413.22l-2.08,0.01l-8.42-28.95l-0.46-1.6c-0.16-0.53,0.15-1.09,0.68-1.24      c0.53-0.16,1.08,0.15,1.24,0.68l0.54,1.87L315.67,413.22z"/>
			</g>
		</g>
		<g>
			<g>
				<path style="fill:#002E3C;" d="M399.514,365.821c-2.504,9.188-58.902,20.783-101.924,19.568l-1.972-6.811l-0.58-2.009      l-31.191-107.791c0,0-14.699-56.081,0-68.105c14.697-12.023,27.527-22.254,27.527-22.254l27.688-1.944      c0,0,38.619,10.333,42.602,24.397c3.473,12.26,29.727,127.845,36.403,157.291c0.174,0.769,0.336,1.481,0.483,2.128      c0.483,2.131,0.814,3.59,0.966,4.257C399.611,364.967,399.629,365.406,399.514,365.821z"/>
			</g>
			<g>
				<path style="fill:#044F5B;" d="M294.821,254.708c0.015,0.553-0.418,1.013-0.97,1.028c-10.81,0.31-17.473,1.062-20.105,1.415      c-0.845,0.112-1.275,0.185-1.292,0.188c-0.057,0.01-0.115,0.015-0.17,0.015c-0.305,0-0.59-0.143-0.775-0.373      c-0.105-0.127-0.18-0.285-0.21-0.46c-0.092-0.545,0.272-1.06,0.818-1.155c0.035-0.005,0.16-0.025,0.38-0.06      c0.438-0.065,1.245-0.182,2.438-0.325c3.293-0.39,9.508-0.975,18.86-1.245C294.343,253.718,294.806,254.155,294.821,254.708z"/>
			</g>
			<g>
				<g>
					<path style="fill:#044F5B;" d="M269.735,289.127l22.379-3.988c0.54-0.097,1.058,0.264,1.155,0.807       c0.095,0.54-0.264,1.058-0.807,1.155l-22.17,3.951L269.735,289.127z"/>
				</g>
			</g>
			<path style="fill:#f44336;" d="M327.846,179.046c0,0,39.609,48.89,51.527,98.554c0,0,4.38-12.851-2.353-34.36     c-4.875-15.574-30.839-56.902-30.839-56.902S335.43,175.932,327.846,179.046z"/>
			<path style="fill:#f44336;" d="M273.284,192.988c0,0,11.88,9.912,14.227,39.482c2.497,31.448-12.997,71.565-12.997,71.565     s-3.12,13.909,4.942,18.686c0,0,24.366-48.879,19.964-89.302c-4.402-40.423-17.911-47.082-17.911-47.082     S275.801,186.229,273.284,192.988z"/>
			<g>
				<path style="fill:#044F5B;" d="M341.068,351.084c1.976-1.124,3.908-2.401,5.79-3.828c5.323-4.038,10.263-9.283,14.681-15.591      c7.504-10.714,10.861-20.645,11-21.062c0.175-0.524-0.108-1.09-0.632-1.265c-0.523-0.175-1.09,0.108-1.265,0.632      c-0.034,0.1-3.422,10.112-10.772,20.592c-6.734,9.601-18.279,21.581-35.034,24.133c-0.546,0.083-0.921,0.593-0.838,1.139      c0.083,0.546,0.593,0.921,1.139,0.838C330.689,355.825,336.025,353.952,341.068,351.084z"/>
			</g>
			<g>
				<path style="fill:#044F5B;" d="M317.531,287.936c1.528-1.683,2.967-3.498,4.311-5.44c3.803-5.494,6.864-12.016,9.1-19.386      c3.798-12.517,3.898-22.999,3.9-23.439c0.003-0.552-0.442-1.002-0.994-1.005c-0.552-0.003-1.003,0.442-1.006,0.994      c-0.001,0.105-0.105,10.675-3.829,22.921c-3.412,11.219-10.656,26.197-25.785,33.836c-0.493,0.249-0.691,0.851-0.442,1.344      c0.249,0.493,0.85,0.691,1.343,0.442C309.143,295.672,313.63,292.231,317.531,287.936z"/>
			</g>
			<g>
				<g>
					<path style="fill:#044F5B;" d="M398.551,360.293c-5.775,4.189-13.601,7.712-23.367,10.507       c-10.35,2.965-22.909,5.133-37.329,6.447c-12.715,1.158-24.679,1.439-33.282,1.439c-3.659,0-6.714-0.05-8.954-0.107       l-0.58-2.009c7.122,0.194,24.084,0.383,42.656-1.309c28.261-2.574,48.932-8.449,60.373-17.096       C398.242,358.934,398.404,359.645,398.551,360.293z"/>
				</g>
			</g>
			<g>
				<path style="fill:#044F5B;" d="M333.23,344.423c1.895-1.078,4.609-2.859,7.367-5.478c4.571-4.34,10.098-11.883,10.469-23.174      c0.018-0.552-0.415-1.014-0.967-1.032c-0.552-0.018-1.014,0.414-1.032,0.966c-0.279,8.495-3.574,15.809-9.793,21.738      c-4.672,4.455-9.335,6.413-9.382,6.432c-0.508,0.213-0.753,0.796-0.543,1.306c0.211,0.51,0.794,0.754,1.305,0.544      C330.744,345.688,331.73,345.276,333.23,344.423z"/>
			</g>
			<g>
				<path style="fill:#044F5B;" d="M331.175,196.261c-6.101,3.238-14.643,3.101-24.776-0.411      c-7.832-2.714-13.786-6.417-14.035-6.574c-0.468-0.293-0.61-0.91-0.317-1.378c0.293-0.468,0.91-0.61,1.378-0.317      c0.236,0.147,23.732,14.641,37.407,6.581c0.48-0.281,1.089-0.122,1.369,0.353c0.28,0.476,0.122,1.089-0.353,1.369      C331.627,196.014,331.402,196.14,331.175,196.261z"/>
			</g>
			<g>
				<g>
					<path style="fill:#eaeff5;" d="M309.586,211.611c-7.811,0-14.272-5.446-18.721-15.799c-3.363-7.826-4.4-15.613-4.443-15.941       c-0.089-0.682,0.392-1.306,1.074-1.394c0.681-0.089,1.306,0.392,1.395,1.074c0.039,0.299,4.05,29.571,20.7,29.571       c0.199,0,0.398-0.004,0.6-0.012c3.327-0.139,5.851-1.389,7.717-3.822c6.564-8.563,2.215-28.34,2.17-28.538       c-0.151-0.671,0.27-1.337,0.941-1.488c0.67-0.151,1.336,0.27,1.487,0.941c0.193,0.857,4.649,21.109-2.621,30.598       c-2.309,3.014-5.536,4.628-9.59,4.797C310.058,211.606,309.821,211.611,309.586,211.611z"/>
				</g>
			</g>
			<g>
				<g>
					<path style="fill:#002E3C;" d="M262.028,202.571c0,0-25.888,40.882-22.885,69.56c3.003,28.678,22.322,4.128,38.879-32.181       C285.953,222.56,286.619,188.122,262.028,202.571z"/>
				</g>
				<g>
					<path style="fill:#044F5B;" d="M273.011,257.241c-0.447,0-0.854-0.302-0.969-0.755c-0.883-3.494-4.592-6.332-4.629-6.36       c-0.44-0.333-0.527-0.96-0.194-1.401c0.333-0.441,0.96-0.527,1.401-0.194c0.176,0.133,4.308,3.298,5.362,7.465       c0.135,0.535-0.189,1.079-0.724,1.215C273.175,257.231,273.092,257.241,273.011,257.241z"/>
				</g>
				<g>
					<path style="fill:#002E3C;" d="M239.275,270.921c0,0,13.564-17.916,36.62-15.555c23.056,2.362,54.354-7.333,65.805,2.82       c11.451,10.154-2.477,19.864-33.605,23.834c-25.065,3.197-49.45,12.272-60.651,6.758       C236.242,283.265,239.275,270.921,239.275,270.921z"/>
				</g>
				<g>
					<path style="fill:#044F5B;" d="M284.701,220.357c-0.147,0.988-3.278,21.87-9.768,34.623c-0.385,0.755-0.78,1.48-1.188,2.17       c-0.845,0.112-1.275,0.185-1.292,0.188c-0.057,0.01-0.115,0.015-0.17,0.015c-0.305,0-0.59-0.143-0.775-0.373       c0.337-0.532,0.668-1.092,0.987-1.675c6.785-12.293,10.19-34.993,10.228-35.241c0.08-0.548,0.585-0.925,1.135-0.842       C284.403,219.302,284.781,219.81,284.701,220.357z"/>
				</g>
				<g>
					<path style="fill:#044F5B;" d="M272.284,257.352c-0.217,0-0.436-0.071-0.62-0.216c-2.611-2.069-7.88-2.183-7.932-2.184       c-0.552-0.009-0.992-0.464-0.983-1.016c0.009-0.546,0.455-0.983,0.999-0.983c0.005,0,0.011,0,0.016,0       c0.243,0.004,5.997,0.124,9.142,2.616c0.433,0.343,0.506,0.972,0.163,1.405C272.871,257.222,272.579,257.352,272.284,257.352z"/>
				</g>
				<g>
					<g>
						<g>
							<g>
								<g>
									<g>
										<g>
											<g>
												<g>
													<path style="fill:#f5a47a;" d="M332.13,274.021c-2.498-1.95-5.636-11.216,1.708-18.56               c6.804-6.803,7.22-10.404,12.832-14.68c4.859-3.703,3.069,1.254,1.302,5.874c-1.768,4.62-3.574,6.022,0.816,6.589               c4.391,0.567,22.318-4.757,27.016-3.331c4.698,1.427-18.085,8.23-18.085,8.23s20.091-2.537,21.552-0.124               c1.749,2.889-19.558,6.819-19.558,6.819s17.369,0.288,17.507,1.616c0.268,2.576-17.076,5.011-17.076,5.011               s11.944,0.809,10.975,2.732C370.148,276.119,346.121,279.228,332.13,274.021z"/>
												</g>
											</g>
										</g>
									</g>
								</g>
							</g>
						</g>
					</g>
				</g>
			</g>
		</g>
		<g>
			<path style="fill:#002E3C;" d="M468.146,242.048c0,0,9.967,8.37,6.98,22.055c-2.987,13.686-15.208,16.874-15.208,16.874     S442.994,264.557,468.146,242.048z"/>
		</g>
		<g>
			<g>
				<g>
					<g>
						<g>
							<g>
								<g>
									<g>
										<g>
											<path style="fill:#f5a47a;" d="M473.74,264.925c0.046-3.168-5.208-11.422-15.533-10.3             c-9.565,1.039-12.632-0.894-19.481,0.799c-5.931,1.466-0.947,3.177,3.762,4.696c4.708,1.518,6.933,0.988,4.623,4.766             c-2.31,3.777-17.694,14.41-19.527,18.964c-1.833,4.555,17.747-8.934,17.747-8.934s-14.568,14.066-13.603,16.716             c1.155,3.174,17.571-10.967,17.571-10.967s-10.661,13.715-9.712,14.655c1.839,1.824,14.606-10.166,14.606-10.166             s-6.855,9.815-4.749,10.264C451.549,295.866,469.029,279.091,473.74,264.925z"/>
										</g>
									</g>
								</g>
							</g>
						</g>
					</g>
				</g>
			</g>
		</g>
		<g>
			<g>
				<path style="fill:#002E3C;" d="M271.35,121.651c0,0-13.153-6.194-10.712-12.638c2.142-5.655,10.564-2.197,10.564-2.197      s-6.303-9.274-2.372-12.447c3.931-3.173,10.457,1.708,10.457,1.708s-3.939-10.007,3.187-10.251      c7.126-0.244,9.202,6.102,9.202,6.102s-3.161-9.763,4.216-8.786c7.376,0.976,8.547,9.03,8.547,9.03s3.942-7.566,9.806-5.614      c5.864,1.953,0,10.739,0,10.739s10.433-5.858,12.786-1.22c2.353,4.637-3.316,7.566-3.316,7.566s9.688-1.281,9.397,3.417      c-0.306,4.932-7.557,6.276-7.557,6.276S276.263,110.941,271.35,121.651z"/>
			</g>
			<g>
				<g>
					<g>
						<g>
							<g>
								<g>
									<g>
										<g>
											<g>
												<g>
													<g>
														<g>
															<g>
																<g>
																	<path style="fill:#f5a47a;" d="M278.945,131.602c0,0-6.871-2.246-7.976,5.742                   c-1.104,7.987,7.762,15.691,14.201,12.533C285.17,149.876,282.546,134.701,278.945,131.602z"/>
																</g>
															</g>
														</g>
													</g>
												</g>
											</g>
										</g>
									</g>
								</g>
							</g>
						</g>
					</g>
				</g>
			</g>
			<g>
				<g>
					<g>
						<g>
							<g>
								<g>
									<g>
										<g>
											<g>
												<g>
													<g>
														<g>
															<g>
																<g>
																	<g>
																		<g>
																			<g>
																				<g>
																					<path style="fill:#f0a097;" d="M283.233,147.04c-0.408,0.019-0.787-0.251-0.891-0.663                       c-1.444-5.75-6.092-8.489-6.139-8.516c-0.419-0.242-0.564-0.778-0.323-1.198                       c0.241-0.419,0.776-0.565,1.195-0.325c0.217,0.124,5.337,3.113,6.969,9.611                       c0.118,0.47-0.167,0.947-0.637,1.064C283.349,147.03,283.291,147.038,283.233,147.04z"/>
																				</g>
																			</g>
																		</g>
																	</g>
																</g>
															</g>
														</g>
													</g>
												</g>
											</g>
										</g>
									</g>
								</g>
							</g>
						</g>
					</g>
				</g>
				<g>
					<g>
						<g>
							<g>
								<g>
									<g>
										<g>
											<g>
												<g>
													<g>
														<g>
															<g>
																<g>
																	<g>
																		<g>
																			<g>
																				<g>
																					<path style="fill:#f0a097;" d="M276.205,143.255c-0.309,0.014-0.615-0.135-0.789-0.416                       c-0.254-0.413-0.126-0.952,0.286-1.207c0.115-0.071,2.847-1.735,5.179-1.472                       c0.482,0.054,0.828,0.489,0.773,0.97c-0.055,0.481-0.488,0.828-0.971,0.773                       c-1.434-0.162-3.418,0.827-4.061,1.222C276.492,143.206,276.348,143.248,276.205,143.255z"/>
																				</g>
																			</g>
																		</g>
																	</g>
																</g>
															</g>
														</g>
													</g>
												</g>
											</g>
										</g>
									</g>
								</g>
							</g>
						</g>
					</g>
				</g>
			</g>
			<g>
				<g>
					<g>
						<g>
							<g>
								<g>
									<g>
										<g>
											<g>
												<g>
													<g>
														<g>
															<g>
																<g>
																	<g>
																		<path style="fill:#f5a47a;" d="M290.447,181.13c0,0,5.847,4.575,14.389,3.575c8.542-1,13.178-6.803,13.178-6.803                    l-0.778-3.835l-3.891-19.229l-23.332,2.733l0.209,11.374L290.447,181.13z"/>
																	</g>
																</g>
															</g>
														</g>
													</g>
												</g>
											</g>
										</g>
									</g>
								</g>
							</g>
						</g>
					</g>
				</g>
				<g>
					<g>
						<path style="fill:#002E3C;" d="M290.223,168.943c3.066,3.123,11.394,9.243,27.014,5.123l-3.891-19.229l-23.332,2.733        L290.223,168.943z"/>
					</g>
				</g>
			</g>
			<g>
				<g>
					<g>
						<g>
							<g>
								<g>
									<g>
										<g>
											<g>
												<g>
													<g>
														<g>
															<g>
																<g>
																	<path style="fill:#f5a47a;" d="M275.021,136.574c0.526,1.972,1.148,4.042,1.866,6.153                   c0.901,2.66,1.951,5.378,3.135,8.028c5.625,12.53,14.412,23.583,25.794,19.875                   c9.492-3.093,14.2-13.845,16.497-24.899c0.593-2.849,1.031-5.722,1.344-8.482c0.2-1.777,0.349-3.509,0.464-5.162                   c0.279-4.028,0.327-7.597,0.303-10.236c-0.028-3.08-1.704-5.911-4.409-7.38c-21.144-11.53-46.204,0.618-47.063,8.7                   C272.704,125.509,273.42,130.571,275.021,136.574z"/>
																</g>
															</g>
														</g>
													</g>
												</g>
											</g>
										</g>
									</g>
								</g>
							</g>
						</g>
					</g>
				</g>
			</g>
			<g>
				<path style="fill:#002E3C;" d="M290.525,134.089c0,0,1.373-3.846-1.415-5.432c-2.788-1.585-7.766-2.252-9.372,1.56      L290.525,134.089z"/>
			</g>
			<g>
				<path style="fill:#002E3C;" d="M302.604,132.582c0,0-2.145-3.475,0.25-5.607s7.125-3.824,9.492-0.431L302.604,132.582z"/>
			</g>
			<g>
				<g>
					<g>
						<g>
							<g>
								<g>
									<g>
										<g>
											<g>
												<g>
													<g>
														<g>
															<g>
																<g>
																	<path style="fill:#044F5B;" d="M270.623,121.575c1.134,7.888,6.432,22.936,7.601,22.179                   c1.315-0.847-1.183-10.437-1.51-13.389l0.038-8.144l-1.852-2.978c0,0,8.314-7.071,21.463-7.898                   c13.635-0.859,21.821,2.908,21.821,2.908l-1.203,3.256c0.523,2.422,2.197,11.168,2.197,11.168                   c0.32,1.079,3.293,9.497,3.936,9.203c1.255-0.573,1.572-15.197,2.184-17.825c0.221-0.951,0.569-3.49,0.007-6.633                   c-0.99-5.537-4.802-12.949-17.111-16.846c-14.967-4.742-37.784,2.017-37.786,22.479                   C270.409,119.763,270.486,120.615,270.623,121.575z"/>
																</g>
															</g>
														</g>
													</g>
												</g>
											</g>
										</g>
									</g>
								</g>
							</g>
						</g>
					</g>
				</g>
			</g>
			<g>
				<path style="fill:#002E3C;" d="M270.623,121.575l6.13,0.646l-1.852-2.978c0,0,8.314-7.071,21.463-7.898      c13.635-0.859,21.821,2.908,21.821,2.908l-1.203,3.256l8.325-4.086c0.245-5.242-4.155-14.674-16.463-18.571      c-14.967-4.742-39.276,2.058-38.433,24.204C270.436,119.763,270.486,120.615,270.623,121.575z"/>
			</g>
			<g>
				<g>
					<g>
						<g>
							<g>
								<g>
									<g>
										<g>
											<g>
												<g>
													<g>
														<g>
															<g>
																<g>
																	<path style="fill:#f0a097;" d="M308.549,141.129c0.143,1.377,2.445,2.266,5.141,1.986                   c2.697-0.28,4.766-1.623,4.623-3c-0.143-1.377-2.445-2.266-5.141-1.986                   C310.476,138.409,308.406,139.753,308.549,141.129z"/>
																</g>
															</g>
														</g>
													</g>
												</g>
											</g>
										</g>
									</g>
								</g>
							</g>
						</g>
					</g>
				</g>
			</g>
			<g>
				<g>
					<g>
						<g>
							<g>
								<g>
									<g>
										<g>
											<g>
												<g>
													<g>
														<g>
															<g>
																<g>
																	<path style="fill:#f0a097;" d="M277.469,144.769c0.144,1.377,2.445,2.266,5.141,1.986                   c2.696-0.28,4.766-1.624,4.623-3c-0.143-1.377-2.445-2.266-5.141-1.986                   C279.397,142.049,277.327,143.393,277.469,144.769z"/>
																</g>
															</g>
														</g>
													</g>
												</g>
											</g>
										</g>
									</g>
								</g>
							</g>
						</g>
					</g>
				</g>
			</g>
			<g>
				<g>
					<g>
						<g>
							<g>
								<g>
									<g>
										<g>
											<g>
												<g>
													<g>
														<g>
															<g>
																<g>
																	<g>
																		<g>
																			<g>
																				<path style="fill:#002E3C;" d="M274.515,136.206c0.526,1.972,1.654,4.41,2.372,6.521                      c0.901,2.66,1.951,5.378,3.135,8.028c5.625,12.53,14.412,23.583,25.794,19.875                      c9.492-3.093,14.2-13.845,16.497-24.899c0.593-2.849,1.031-5.722,1.344-8.482c0.2-1.777,0.554-4.35,0.669-6.003                      l-5.148-2.568c0,0-0.145,19.965-5.358,21.658c-5.208,1.693-5.832-4.998-15.753,0.802                      c0,0-4.151-1.501-8.097,0.827c-4.228,2.496-5.806,0.039-7.86-2.443c-2.053-2.477-4.398-13.691-4.398-13.691                      L274.515,136.206z"/>
																			</g>
																		</g>
																	</g>
																</g>
															</g>
														</g>
													</g>
												</g>
											</g>
										</g>
									</g>
								</g>
							</g>
						</g>
					</g>
				</g>
			</g>
			<g>
				<g>
					<g>
						<g>
							<g>
								<g>
									<g>
										<path style="fill:#eaeff5;" d="M307.219,153.317c0,0-10.575,2.984-17.237,1.347c0,0,2.937,6.769,9.648,5.983            C305.329,159.98,307.219,153.317,307.219,153.317z"/>
									</g>
								</g>
							</g>
						</g>
					</g>
				</g>
			</g>
			<g>
				<g>
					<g>
						<g>
							<g>
								<g>
									<g>
										<g>
											<g>
												<g>
													<g>
														<g>
															<g>
																<g>
																	<g>
																		<path style="fill:#002E3C;" d="M304.992,135.981c0.135,1.362,0.855,2.406,1.607,2.332                    c0.752-0.075,1.253-1.24,1.118-2.602c-0.135-1.362-0.855-2.406-1.607-2.331                    C305.357,133.454,304.856,134.619,304.992,135.981z"/>
																	</g>
																</g>
															</g>
														</g>
													</g>
												</g>
											</g>
										</g>
									</g>
								</g>
							</g>
						</g>
					</g>
				</g>
			</g>
			<g>
				<g>
					<g>
						<g>
							<g>
								<g>
									<g>
										<g>
											<g>
												<g>
													<g>
														<g>
															<g>
																<g>
																	<g>
																		<path style="fill:#002E3C;" d="M288.868,137.869c0.183,1.357-0.276,2.539-1.025,2.64                    c-0.749,0.101-1.505-0.916-1.689-2.273c-0.183-1.357,0.276-2.538,1.025-2.64                    C287.929,135.495,288.685,136.513,288.868,137.869z"/>
																	</g>
																</g>
															</g>
														</g>
													</g>
												</g>
											</g>
										</g>
									</g>
								</g>
							</g>
						</g>
					</g>
				</g>
			</g>
			<g>
				<g>
					<g>
						<g>
							<g>
								<g>
									<g>
										<g>
											<g>
												<g>
													<g>
														<g>
															<g>
																<g>
																	<path style="fill:#f0a097;" d="M297.373,149.058c0.919-0.108,1.9-0.436,2.421-0.63                   c0.408-0.152,0.616-0.605,0.464-1.014c-0.152-0.408-0.605-0.616-1.013-0.464c-0.982,0.365-2.109,0.609-2.569,0.573                   c-0.096-1.293,0.086-7.27,0.321-12.593c0.019-0.435-0.318-0.803-0.753-0.823c-0.435-0.021-0.804,0.318-0.823,0.753                   c-0.125,2.836-0.514,12.173-0.254,13.23c0.085,0.345,0.311,0.629,0.636,0.801                   C296.205,149.105,296.776,149.128,297.373,149.058z"/>
																</g>
															</g>
														</g>
													</g>
												</g>
											</g>
										</g>
									</g>
								</g>
							</g>
						</g>
					</g>
				</g>
			</g>
			<g>
				<g>
					<g>
						<g>
							<g>
								<g>
									<g>
										<g>
											<g>
												<g>
													<g>
														<g>
															<g>
																<g>
																	<path style="fill:#f5a47a;" d="M322.867,129.435c0,0,6.335-3.482,8.903,4.161                   c2.568,7.644-4.715,16.859-11.629,14.951C320.141,148.548,319.904,133.149,322.867,129.435z"/>
																</g>
															</g>
														</g>
													</g>
												</g>
											</g>
										</g>
									</g>
								</g>
							</g>
						</g>
					</g>
				</g>
			</g>
			<g>
				<g>
					<g>
						<g>
							<g>
								<g>
									<g>
										<g>
											<g>
												<g>
													<g>
														<g>
															<g>
																<g>
																	<g>
																		<g>
																			<g>
																				<g>
																					<path style="fill:#f0a097;" d="M322.486,144.874c0.405-0.057,0.727-0.393,0.752-0.817                       c0.352-5.919,4.411-9.472,4.452-9.507c0.367-0.316,0.41-0.869,0.095-1.237                       c-0.315-0.367-0.867-0.411-1.235-0.098c-0.19,0.162-4.667,4.05-5.064,10.738                       c-0.029,0.484,0.34,0.899,0.824,0.928C322.37,144.884,322.429,144.882,322.486,144.874z"/>
																				</g>
																			</g>
																		</g>
																	</g>
																</g>
															</g>
														</g>
													</g>
												</g>
											</g>
										</g>
									</g>
								</g>
							</g>
						</g>
					</g>
				</g>
				<g>
					<g>
						<g>
							<g>
								<g>
									<g>
										<g>
											<g>
												<g>
													<g>
														<g>
															<g>
																<g>
																	<g>
																		<g>
																			<g>
																				<g>
																					<path style="fill:#f0a097;" d="M328.689,139.849c0.306-0.043,0.58-0.247,0.698-0.556                       c0.173-0.453-0.053-0.959-0.505-1.132c-0.126-0.049-3.119-1.177-5.362-0.485                       c-0.463,0.143-0.723,0.634-0.58,1.097c0.143,0.463,0.634,0.723,1.097,0.58                       c1.379-0.426,3.512,0.179,4.218,0.447C328.398,139.854,328.547,139.869,328.689,139.849z"/>
																				</g>
																			</g>
																		</g>
																	</g>
																</g>
															</g>
														</g>
													</g>
												</g>
											</g>
										</g>
									</g>
								</g>
							</g>
						</g>
					</g>
				</g>
			</g>
		</g>
	</g>
	<g>
		<g>
			<g>
				<g>
					<path style="fill:#f44336;" d="M98.086,141.815c0.681,0,1.265,0.465,1.419,1.131c0.559,2.417,1.33,3.187,3.746,3.746       c0.666,0.154,1.131,0.738,1.131,1.419c0,0.681-0.465,1.265-1.131,1.419c-2.417,0.559-3.187,1.329-3.746,3.746       c-0.154,0.666-0.737,1.132-1.419,1.132c-0.681,0-1.265-0.465-1.419-1.132c-0.559-2.417-1.329-3.187-3.746-3.746       c-0.666-0.154-1.132-0.738-1.132-1.419c0-0.681,0.465-1.265,1.132-1.419l0,0c2.417-0.559,3.187-1.329,3.746-3.746       C96.821,142.281,97.404,141.815,98.086,141.815z M101.896,148.112c-2.071-0.659-3.151-1.739-3.81-3.81       c-0.659,2.071-1.739,3.151-3.81,3.81c2.071,0.659,3.151,1.739,3.81,3.81C98.745,149.851,99.824,148.771,101.896,148.112z        M93.115,147.533h-0.002H93.115z"/>
				</g>
			</g>
			<g>
				<g>
					<path style="fill:#eaeff5;" d="M77.975,129.679c2.473,0,4.485,2.012,4.485,4.485c0,2.473-2.012,4.485-4.485,4.485       c-2.473,0-4.485-2.012-4.485-4.485C73.489,131.691,75.501,129.679,77.975,129.679z M77.975,136.924       c1.522,0,2.76-1.238,2.76-2.76c0-1.522-1.238-2.76-2.76-2.76c-1.522,0-2.76,1.238-2.76,2.76       C75.215,135.686,76.453,136.924,77.975,136.924z"/>
				</g>
			</g>
			<g>
				<g>
					<g>
						<path style="fill:#002E3C;" d="M75.215,161.664c0.477,0,0.863,0.386,0.863,0.863v2.285c0,0.476-0.386,0.863-0.863,0.863        c-0.476,0-0.863-0.386-0.863-0.863v-2.285C74.352,162.051,74.738,161.664,75.215,161.664z"/>
					</g>
				</g>
				<g>
					<g>
						<path style="fill:#002E3C;" d="M75.215,155.56c0.477,0,0.863,0.386,0.863,0.863v2.285c0,0.476-0.386,0.863-0.863,0.863        c-0.476,0-0.863-0.386-0.863-0.863v-2.285C74.352,155.946,74.738,155.56,75.215,155.56z"/>
					</g>
				</g>
				<g>
					<g>
						<g>
							<path style="fill:#002E3C;" d="M77.018,159.951h2.284c0.477,0,0.863,0.386,0.863,0.863c0,0.476-0.386,0.863-0.863,0.863         h-2.284c-0.477,0-0.863-0.386-0.863-0.863C76.155,160.337,76.541,159.951,77.018,159.951z"/>
						</g>
					</g>
					<g>
						<g>
							<path style="fill:#002E3C;" d="M71.127,159.951h2.285c0.476,0,0.863,0.386,0.863,0.863c0,0.476-0.386,0.863-0.863,0.863         h-2.285c-0.477,0-0.863-0.386-0.863-0.863C70.265,160.337,70.651,159.951,71.127,159.951z"/>
						</g>
					</g>
				</g>
			</g>
			<g>
				<g>
					<g>
						<path style="fill:#044F5B;" d="M98.202,121.553c0.476,0,0.863,0.386,0.863,0.863v2.285c0,0.476-0.386,0.863-0.863,0.863        c-0.476,0-0.863-0.386-0.863-0.863v-2.285C97.339,121.94,97.726,121.553,98.202,121.553z"/>
					</g>
				</g>
				<g>
					<g>
						<path style="fill:#044F5B;" d="M98.202,115.449c0.476,0,0.863,0.386,0.863,0.863v2.285c0,0.476-0.386,0.863-0.863,0.863        c-0.476,0-0.863-0.386-0.863-0.863v-2.285C97.339,115.835,97.726,115.449,98.202,115.449z"/>
					</g>
				</g>
				<g>
					<g>
						<g>
							<path style="fill:#044F5B;" d="M100.005,119.84h2.285c0.477,0,0.863,0.386,0.863,0.863c0,0.476-0.386,0.863-0.863,0.863         h-2.285c-0.476,0-0.863-0.386-0.863-0.863C99.142,120.226,99.528,119.84,100.005,119.84z"/>
						</g>
					</g>
					<g>
						<g>
							<path style="fill:#044F5B;" d="M94.115,119.84h2.285c0.476,0,0.863,0.386,0.863,0.863c0,0.476-0.386,0.863-0.863,0.863         h-2.285c-0.476,0-0.863-0.386-0.863-0.863C93.252,120.226,93.638,119.84,94.115,119.84z"/>
						</g>
					</g>
				</g>
			</g>
		</g>
		<g>
			<g>
				<g>
					<path style="fill:#f44336;" d="M462.52,354.9c-0.559-2.417-1.329-3.187-3.746-3.746l0,0c-0.666-0.154-1.131-0.738-1.131-1.419       c0-0.681,0.465-1.265,1.131-1.419c2.417-0.559,3.187-1.329,3.746-3.746c0.154-0.666,0.737-1.131,1.419-1.131       c0.681,0,1.265,0.465,1.419,1.132c0.56,2.417,1.33,3.187,3.746,3.746c0.666,0.154,1.131,0.738,1.131,1.419       c0,0.681-0.465,1.265-1.131,1.419c-2.417,0.559-3.187,1.329-3.746,3.746c-0.154,0.666-0.737,1.131-1.419,1.131       C463.257,356.031,462.674,355.566,462.52,354.9z M463.939,345.924c-0.659,2.072-1.739,3.151-3.81,3.81       c2.072,0.659,3.152,1.739,3.81,3.81c0.659-2.072,1.739-3.151,3.81-3.81C465.678,349.076,464.598,347.996,463.939,345.924z        M458.966,350.313h0.002H458.966z"/>
				</g>
			</g>
			<g>
				<g>
					<path style="fill:#eaeff5;" d="M439.343,363.683c0-2.473,2.012-4.485,4.485-4.485c2.473,0,4.485,2.012,4.485,4.485       s-2.012,4.485-4.485,4.485C441.354,368.168,439.343,366.156,439.343,363.683z M441.068,363.683c0,1.522,1.238,2.76,2.76,2.76       c1.522,0,2.76-1.238,2.76-2.76s-1.238-2.76-2.76-2.76C442.306,360.923,441.068,362.161,441.068,363.683z"/>
				</g>
			</g>
			<g>
				<g>
					<g>
						<path style="fill:#002E3C;" d="M441.068,336.182c0.477,0,0.863-0.386,0.863-0.863v-2.285c0-0.477-0.386-0.863-0.863-0.863        c-0.476,0-0.863,0.386-0.863,0.863v2.285C440.205,335.796,440.592,336.182,441.068,336.182z"/>
					</g>
				</g>
				<g>
					<g>
						<path style="fill:#002E3C;" d="M441.068,342.287c0.477,0,0.863-0.386,0.863-0.863v-2.285c0-0.476-0.386-0.863-0.863-0.863        c-0.476,0-0.863,0.386-0.863,0.863v2.285C440.205,341.901,440.592,342.287,441.068,342.287z"/>
					</g>
				</g>
				<g>
					<g>
						<g>
							<path style="fill:#002E3C;" d="M442.871,337.896h2.285c0.476,0,0.863-0.386,0.863-0.863s-0.386-0.863-0.863-0.863h-2.285         c-0.477,0-0.863,0.386-0.863,0.863S442.394,337.896,442.871,337.896z"/>
						</g>
					</g>
					<g>
						<g>
							<path style="fill:#002E3C;" d="M436.98,337.896h2.285c0.476,0,0.863-0.386,0.863-0.863s-0.386-0.863-0.863-0.863h-2.285         c-0.477,0-0.863,0.386-0.863,0.863S436.504,337.896,436.98,337.896z"/>
						</g>
					</g>
				</g>
			</g>
			<g>
				<g>
					<g>
						<path style="fill:#002E3C;" d="M464.055,376.293c0.477,0,0.863-0.386,0.863-0.863v-2.285c0-0.476-0.386-0.863-0.863-0.863        c-0.476,0-0.863,0.386-0.863,0.863v2.285C463.192,375.907,463.579,376.293,464.055,376.293z"/>
					</g>
				</g>
				<g>
					<g>
						<path style="fill:#002E3C;" d="M464.055,382.398c0.477,0,0.863-0.386,0.863-0.863v-2.285c0-0.476-0.386-0.863-0.863-0.863        c-0.476,0-0.863,0.386-0.863,0.863v2.285C463.192,382.012,463.579,382.398,464.055,382.398z"/>
					</g>
				</g>
				<g>
					<g>
						<g>
							<path style="fill:#002E3C;" d="M465.858,378.007h2.285c0.476,0,0.863-0.386,0.863-0.863c0-0.476-0.386-0.863-0.863-0.863         h-2.285c-0.476,0-0.863,0.386-0.863,0.863C464.995,377.621,465.381,378.007,465.858,378.007z"/>
						</g>
					</g>
					<g>
						<g>
							<path style="fill:#002E3C;" d="M459.968,378.007h2.285c0.477,0,0.863-0.386,0.863-0.863c0-0.476-0.386-0.863-0.863-0.863         h-2.285c-0.476,0-0.863,0.386-0.863,0.863C459.105,377.621,459.491,378.007,459.968,378.007z"/>
						</g>
					</g>
				</g>
			</g>
		</g>
	</g>
</g>
</svg>