<?xml version="1.0" encoding="utf-8"?>
<!-- Generator: Adobe Illustrator 27.5.0, SVG Export Plug-In . SVG Version: 6.00 Build 0)  -->
<svg version="1.1" xmlns="http://www.w3.org/2000/svg" xmlns:xlink="http://www.w3.org/1999/xlink" x="0px" y="0px"
	 viewBox="0 0 750 500" style="enable-background:new 0 0 750 500;" xml:space="preserve">
<g id="BACKGROUND">
</g>
<g id="OBJECTS">
	<g>
		<ellipse style="opacity:0.2;fill:#161826;" cx="609.484" cy="458.055" rx="105.546" ry="14.5"/>
		<ellipse style="opacity:0.2;fill:#161826;" cx="134.161" cy="458.055" rx="98.797" ry="14.5"/>
		<ellipse style="opacity:0.2;fill:#161826;" cx="380.149" cy="458.055" rx="98.797" ry="14.5"/>
	</g>
	<g>
		<g>
			<polygon style="fill:#E8C9C1;" points="514.023,455.301 550.94,456.597 581.499,455.383 583.163,388.388 515.163,387.055 			"/>
			<polygon style="fill:#FFDCD1;" points="550.945,456.707 581.499,455.383 583.163,388.388 553.688,387.488 			"/>
			<polygon style="fill:#E8C9C1;" points="565.301,401.413 573.587,401.053 573.339,388.542 565.053,388.901 			"/>
		</g>
		<g>
			<g>
				<g>
					<path style="fill:#FF621D;" d="M631.542,427.711l2.093,27.383c0,0,76.314,18.61,15.568-7.997l-1.627-36.86L631.542,427.711z"/>
					<path style="opacity:0.3;fill:#161826;" d="M638.937,447.612c-1.914,0.041-3.735,0.038-5.893-0.26l-1.501-19.641l16.034-17.475
						l1.568,35.516C645.87,447.027,642.451,447.537,638.937,447.612z"/>
					<g>
						<path style="fill:#FFFFFF;" d="M672.084,459.137c7.167,7.26-38.503-3.747-38.503-3.747l-0.116-1.579
							C637.104,454.681,670.034,462.449,672.084,459.137z"/>
					</g>
					<path style="fill:none;stroke:#FFFFFF;stroke-width:1.0523;stroke-linecap:round;stroke-miterlimit:10;" d="M650.371,446.95
						c0,0-3.796,0.014-5.418,2.348"/>
					<path style="fill:none;stroke:#FFFFFF;stroke-width:1.0523;stroke-linecap:round;stroke-miterlimit:10;" d="M653.475,448.611
						c0,0-3.796,0.014-5.418,2.348"/>
					<path style="fill:none;stroke:#FFFFFF;stroke-width:1.0523;stroke-linecap:round;stroke-miterlimit:10;" d="M656.961,450.342
						c0,0-3.796,0.014-5.418,2.348"/>
				</g>
				<g>
					<path style="fill:#FF621D;" d="M571.774,431.534l2.093,27.382c0,0,76.314,18.61,15.568-7.997l-1.627-36.86L571.774,431.534z"/>
					<path style="opacity:0.3;fill:#161826;" d="M579.169,451.435c-1.914,0.041-3.735,0.038-5.893-0.26l-1.501-19.641l16.034-17.475
						l1.568,35.516C586.101,450.85,582.683,451.36,579.169,451.435z"/>
					<g>
						<path style="fill:#FFFFFF;" d="M612.316,462.96c7.167,7.26-38.503-3.747-38.503-3.747l-0.116-1.579
							C577.336,458.504,610.266,466.272,612.316,462.96z"/>
					</g>
					<path style="fill:none;stroke:#FFFFFF;stroke-width:1.0523;stroke-linecap:round;stroke-miterlimit:10;" d="M590.603,450.773
						c0,0-3.796,0.014-5.418,2.348"/>
					<path style="fill:none;stroke:#FFFFFF;stroke-width:1.0523;stroke-linecap:round;stroke-miterlimit:10;" d="M593.707,452.434
						c0,0-3.796,0.014-5.418,2.348"/>
					<path style="fill:none;stroke:#FFFFFF;stroke-width:1.0523;stroke-linecap:round;stroke-miterlimit:10;" d="M597.193,454.166
						c0,0-3.796,0.014-5.418,2.348"/>
				</g>
			</g>
			<g>
				<g>
					<path style="fill:#25283F;" d="M639.404,206.619c0,0,15.632,130.614,12.569,236.289c0,0-18.682,5.437-23.613,1.48
						c-4.227-25.06-3.659-73.73-10-110c-5.97-34.15-8.333-67.667-8.333-67.667l-2,0.001c0,0-12.849,168.47-15.667,180.999
						c-16.204,3.957-21.333-0.667-21.333-0.667s-7.396-206.5-2.878-239.829C574.07,163.557,639.404,206.619,639.404,206.619z"/>
					<path style="opacity:0.6;fill:#161826;" d="M610.253,269.652c0.715,8.856,3.183,36.571,8.107,64.736
						c6.341,36.27,5.773,84.94,10,110c4.932,3.957,23.613-1.48,23.613-1.48c1.884-65.002-3.305-139.428-7.579-187.099
						C633.987,262.468,622.356,266.703,610.253,269.652z"/>
				</g>
				<g>
					<path style="fill:#001C28;" d="M626.456,199.175c7.678,3.972,12.948,7.444,12.948,7.444s0.925,7.732,2.279,20.928
						c-3.023,0.935-7.273,2.146-12.424,3.345C628.415,220.313,627.525,209.737,626.456,199.175z"/>
					<path style="fill:#001C28;" d="M586.346,187.827c10.111-1.033,22.617,3.17,32.951,7.867c1.285,12.195,2.304,24.41,3.275,36.63
						c-10.332,2.023-23.095,3.633-36.505,3.243C586.074,219.654,586.304,203.739,586.346,187.827z"/>
					<path style="fill:#001C28;" d="M579.265,235.188c-4.299-0.352-8.631-0.917-12.945-1.777
						c0.524-11.836,1.129-21.023,1.829-26.186c1.316-9.706,5.573-15.116,11.389-17.678
						C579.484,204.76,579.276,219.975,579.265,235.188z"/>
				</g>
			</g>
		</g>
		<g>
			<g>
				<g>
					<path style="fill:#FF9A78;" d="M585.523,118.297c-0.816,0.579-5.841,1.799-11.622,3.064
						c13.227,16.737,41.23,14.655,56.974,0.398c-6.758-1.168-14.414-2.47-16.42-2.729c-3.789-0.489-1.722-20.77-1.722-20.77
						l-29.276-2.932C583.456,95.328,587.589,116.831,585.523,118.297z"/>
					<path style="opacity:0.4;fill:#C66E5D;" d="M613.803,118.708c-9.83-0.357-19.478-1.516-27.738-4.737
						c-0.312-6.689-2.609-18.644-2.609-18.644l29.276,2.932C612.732,98.26,610.919,116.052,613.803,118.708z"/>
				</g>
				<g>
					<path style="fill:#A04747;" d="M576.007,88.607c0,0,1.197,14.129,13.411,12.932c12.214-1.197-5.987-13.411-5.987-13.411
						L576.007,88.607z"/>
					<g>
						<path style="fill:#FF9A78;" d="M581.126,58.604c0,0,8.296-14.667,26.546-10.293c18.251,4.374,19.633,20.843,20.74,35.253
							c1.106,14.41-3.081,30.379-20.052,29.825C595.636,112.973,573.936,108.009,581.126,58.604z"/>
						<path style="fill:#FF9A78;" d="M580.898,75.238c0,0-0.795-2.718-5.152-0.097c-5.527,3.324-1.232,17.293,5.21,16.355
							C587.399,90.557,580.898,75.238,580.898,75.238z"/>
					</g>
					<path style="fill:#A04747;" d="M579.518,44.374c0.347-0.094,7.547,2.585,2.258,2.506c4.208,5.568,3.594,6.739,10.091,8.681
						c2.283,10.81-6.215,17.666-6.215,17.666l-0.621,11.444l-3.108,0.019c0,0,1.077-8.715-2.631-9.883
						c-3.708-1.169-5.37,3.146-5.37,3.146C572.743,66.353,567.853,47.543,579.518,44.374z"/>
				</g>
			</g>
			<g>
				<g>
					<path style="fill:#8C3F3F;" d="M608.837,70.337c0,0-0.263-0.069-0.722-0.19c-0.448-0.118-1.072-0.28-1.797-0.433
						c-0.359-0.085-0.744-0.164-1.147-0.232c-0.394-0.098-0.824-0.115-1.242-0.203c-0.431-0.013-0.86-0.114-1.3-0.104
						c-0.219-0.01-0.439-0.01-0.658-0.032l-0.658,0.027c-0.442-0.027-0.87,0.078-1.305,0.1c-0.434,0.035-0.847,0.164-1.272,0.215
						c-0.417,0.079-0.81,0.223-1.208,0.307c-0.406,0.069-0.749,0.255-1.108,0.351c-0.347,0.119-0.702,0.189-0.979,0.321
						c-0.282,0.123-0.55,0.209-0.77,0.288c-0.442,0.153-0.726,0.224-0.726,0.224s0.114-0.25,0.367-0.658
						c0.128-0.202,0.282-0.456,0.484-0.724c0.185-0.29,0.455-0.55,0.754-0.841c0.311-0.272,0.617-0.63,1.036-0.872
						c0.411-0.251,0.838-0.556,1.331-0.768c0.502-0.185,1.015-0.437,1.578-0.539c0.56-0.111,1.134-0.237,1.718-0.23l0.871-0.001
						c0.287,0.026,0.571,0.073,0.853,0.11c0.568,0.052,1.093,0.26,1.604,0.402c0.491,0.209,0.972,0.387,1.382,0.645
						c0.421,0.234,0.794,0.492,1.118,0.754c0.333,0.246,0.596,0.534,0.834,0.766c0.231,0.246,0.417,0.471,0.558,0.671
						C608.724,70.075,608.837,70.337,608.837,70.337z"/>
				</g>
				<g>
					<path style="fill:#8C3F3F;" d="M627.159,71.109c0,0-0.193-0.103-0.532-0.284c-0.327-0.178-0.787-0.417-1.314-0.671
						c-0.526-0.257-1.127-0.508-1.742-0.726c-0.317-0.075-0.623-0.203-0.944-0.247c-0.159-0.031-0.319-0.054-0.475-0.096
						l-0.479-0.033c-0.318-0.072-0.638,0.017-0.959-0.012c-0.319,0.033-0.637,0.097-0.961,0.119
						c-0.312,0.092-0.626,0.166-0.938,0.23c-0.305,0.084-0.59,0.204-0.873,0.285c-0.284,0.08-0.555,0.157-0.78,0.26
						c-0.227,0.097-0.444,0.165-0.621,0.226c-0.358,0.121-0.589,0.175-0.589,0.175s0.081-0.208,0.27-0.545
						c0.096-0.167,0.21-0.377,0.364-0.599c0.14-0.237,0.332-0.475,0.574-0.707c0.24-0.233,0.494-0.505,0.81-0.74
						c0.331-0.215,0.693-0.437,1.082-0.647c0.42-0.147,0.859-0.325,1.33-0.415c0.479-0.049,0.972-0.149,1.465-0.078l0.735,0.087
						c0.237,0.058,0.468,0.135,0.698,0.204c0.235,0.059,0.448,0.159,0.653,0.267c0.205,0.105,0.415,0.198,0.599,0.321
						c0.744,0.483,1.315,1.056,1.709,1.603C627.032,70.187,627.159,71.109,627.159,71.109z"/>
				</g>
				<g>
					<path style="fill:#B76656;" d="M614.033,72.035c0.805,1.284,1.391,2.682,1.958,4.08c0.269,0.704,0.501,1.421,0.753,2.133
						c0.243,0.715,0.423,1.445,0.637,2.168c0.418,1.45,0.711,2.927,1.011,4.402c0.142,0.739,0.258,1.482,0.36,2.228
						c0.1,0.746,0.219,1.488,0.304,2.235l0.072,0.633l-0.595,0.018c-3.054,0.092-6.112,0.126-9.179,0.013
						c3.029-0.498,6.066-0.849,9.108-1.142l-0.523,0.651c-0.171-0.726-0.308-1.456-0.463-2.184
						c-0.164-0.725-0.269-1.462-0.431-2.187c-0.165-0.724-0.324-1.449-0.464-2.178c-0.132-0.731-0.312-1.451-0.471-2.175
						l-0.479-2.175l-0.499-2.173l-0.531-2.171C614.412,73.489,614.24,72.763,614.033,72.035z"/>
				</g>
				<g>
					<path style="fill:#B76656;" d="M579.621,88.624c-0.393-0.253-0.75-0.561-1.07-0.913c-0.317-0.351-0.619-0.748-0.779-1.243
						c-0.078-0.243-0.138-0.514-0.108-0.793c-0.002-0.142,0.024-0.279,0.077-0.412c0.043-0.137,0.087-0.274,0.172-0.384
						c0.138-0.253,0.33-0.44,0.529-0.621c0.094-0.103,0.208-0.155,0.313-0.232l0.327-0.208l-0.235,0.329
						c0.084-1.053,0.131-2.131,0.122-3.185c-0.022-1.044-0.073-2.134-0.404-3.012c-0.186-0.439-0.414-0.682-0.767-0.676
						c-0.162-0.001-0.451,0.09-0.692,0.164c-0.213,0.078-0.427,0.18-0.641,0.306c-0.2,0.137-0.391,0.291-0.553,0.479
						c-0.159,0.188-0.316,0.39-0.426,0.623c-0.235,0.459-0.357,0.989-0.392,1.532c-0.121-0.535-0.098-1.109,0.06-1.66
						c0.073-0.278,0.197-0.545,0.349-0.8c0.161-0.249,0.363-0.471,0.587-0.673c0.229-0.189,0.484-0.357,0.773-0.488
						c0.266-0.106,0.486-0.224,0.865-0.285c0.354-0.053,0.78,0.057,1.066,0.298c0.291,0.234,0.47,0.524,0.61,0.804
						c0.264,0.566,0.375,1.14,0.45,1.702c0.072,0.563,0.11,1.122,0.105,1.678c0.001,1.114-0.09,2.204-0.26,3.303l-0.034,0.219
						l-0.201,0.11l-0.268,0.146c-0.086,0.051-0.194,0.085-0.26,0.152c-0.155,0.117-0.31,0.235-0.408,0.386
						c-0.07,0.066-0.099,0.149-0.134,0.23c-0.044,0.079-0.077,0.162-0.085,0.255c-0.049,0.176-0.035,0.376-0.002,0.574
						c0.077,0.398,0.25,0.816,0.488,1.198C579.035,87.909,579.316,88.273,579.621,88.624z"/>
				</g>
				<path style="fill:#FFFFFF;" d="M598.617,94.087c-1.204-0.132,11.27,11.17,18.924,0"/>
				<g>
					<path style="fill:#1F2136;" d="M604.263,79.682c0,0-0.064-0.227-0.154-0.626c-0.053-0.194-0.075-0.452-0.168-0.707
						c-0.096-0.254-0.202-0.53-0.294-0.825c-0.167-0.278-0.303-0.593-0.494-0.886c-0.22-0.275-0.421-0.578-0.71-0.807
						c-0.245-0.275-0.594-0.432-0.909-0.612l-0.516-0.198l-0.542-0.098c-0.182-0.011-0.364,0.006-0.546,0
						c-0.182,0-0.353,0.072-0.532,0.096c-0.185,0.015-0.334,0.128-0.504,0.184c-0.175,0.053-0.326,0.149-0.464,0.263
						c-0.31,0.184-0.54,0.457-0.785,0.704c-0.213,0.271-0.384,0.567-0.569,0.829c-0.122,0.295-0.252,0.566-0.37,0.813
						c-0.108,0.249-0.156,0.484-0.224,0.673c-0.124,0.382-0.209,0.609-0.209,0.609s-0.035-0.227-0.072-0.641
						c-0.007-0.206-0.059-0.465-0.027-0.755c0.033-0.29,0.074-0.624,0.139-0.99c0.121-0.347,0.237-0.748,0.451-1.132
						c0.242-0.369,0.483-0.789,0.891-1.096c0.18-0.177,0.381-0.335,0.62-0.45c0.232-0.121,0.454-0.284,0.723-0.334
						c0.261-0.061,0.521-0.17,0.795-0.179c0.273-0.007,0.55-0.03,0.823-0.012l0.804,0.162c0.255,0.089,0.497,0.213,0.74,0.321
						c0.246,0.105,0.436,0.296,0.646,0.445c0.216,0.145,0.379,0.339,0.538,0.528c0.357,0.35,0.543,0.791,0.745,1.178
						c0.177,0.398,0.245,0.808,0.342,1.162c0.035,0.379,0.045,0.722,0.052,1.015c0.013,0.293-0.068,0.528-0.091,0.731
						C604.318,79.452,604.263,79.682,604.263,79.682z"/>
				</g>
				<g>
					<path style="fill:#1F2136;" d="M625.176,79.067c0,0-0.062-0.223-0.149-0.614c-0.049-0.192-0.077-0.442-0.159-0.697
						c-0.092-0.251-0.194-0.525-0.282-0.817c-0.142-0.281-0.295-0.585-0.457-0.888c-0.219-0.269-0.394-0.589-0.674-0.818
						c-0.235-0.278-0.565-0.444-0.866-0.634c-0.167-0.065-0.333-0.128-0.496-0.205l-0.522-0.099
						c-0.175-0.016-0.35,0.005-0.526-0.002c-0.175,0.004-0.34,0.074-0.512,0.099c-0.321,0.116-0.667,0.227-0.928,0.465
						c-0.301,0.184-0.508,0.475-0.75,0.717c-0.186,0.285-0.37,0.567-0.531,0.838c-0.116,0.292-0.241,0.561-0.354,0.805
						c-0.096,0.248-0.148,0.478-0.212,0.665c-0.119,0.376-0.202,0.599-0.202,0.599s-0.036-0.223-0.073-0.629
						c-0.01-0.202-0.056-0.454-0.035-0.739c0.029-0.284,0.065-0.611,0.124-0.969c0.095-0.347,0.223-0.732,0.403-1.12
						c0.236-0.361,0.443-0.79,0.839-1.101c0.178-0.172,0.36-0.348,0.595-0.465c0.229-0.118,0.439-0.298,0.706-0.348
						c0.258-0.064,0.515-0.174,0.786-0.188c0.271-0.007,0.547-0.033,0.817-0.01l0.796,0.169c0.246,0.105,0.487,0.222,0.724,0.337
						c0.437,0.284,0.843,0.608,1.127,1c0.344,0.351,0.494,0.798,0.692,1.176c0.144,0.401,0.227,0.793,0.299,1.146
						c0.03,0.37,0.037,0.704,0.042,0.992c0.003,0.285-0.069,0.517-0.095,0.716C625.23,78.841,625.176,79.067,625.176,79.067z"/>
				</g>
				<path style="fill:#A04747;" d="M609.674,90.042c0,0-12.014-2.407-13.715,4.237c0,0,14.565,4.43,23.39-0.193
					C619.349,94.087,621.369,89.465,609.674,90.042z"/>
			</g>
			<g>
				<path style="fill:#FF621D;" d="M572.504,67.558c0,0,133.082-17.572,52.253-12.486c0,0-5.118-23.074-26.308-20.629
					C573.627,37.307,566.492,51.533,572.504,67.558z"/>
				<path style="fill:#FF7936;" d="M624.757,55.071c80.829-5.086-52.253,12.486-52.253,12.486
					C628.987,59.007,624.757,55.071,624.757,55.071z"/>
			</g>
		</g>
		<g>
			<g>
				<g>
					<path style="fill:#FF621D;" d="M643.654,207.832c2.024-24.532,5.772-83.827,5.772-83.827l-24.441-4.385
						c-5.569,5.781-9.189,9.934-17.633,10.768c-10.47,1.035-21.982-3.599-26.677-11.164c-9.893,2.192-11.997,3.045-16.315,4.33
						c-5.28,1.571-3.875,95.804,1.876,101.861c5.751,6.057,75.38,2.425,79.455-9.701
						C646.267,214.172,643.24,212.843,643.654,207.832z"/>
					<path style="opacity:0.2;fill:#001C28;" d="M575.575,169.826c15.735,8.169,31.124,17.004,48.818,21.482
						c6.582,1.666,13.372,2.853,20.249,3.723c-0.355,4.819-0.691,9.189-0.989,12.801c-0.413,5.011,2.613,6.34,2.037,7.883
						c-4.075,12.127-73.704,15.759-79.455,9.701c-3.554-3.742-9.915-40.275-13.013-68.023
						C560.289,162.041,568.079,165.934,575.575,169.826z"/>
				</g>
				<g>
					<g>
						<polygon style="fill:#25283F;" points="572.36,181.722 590.36,178.388 637.027,175.722 637.027,210.388 587.027,217.722 
													"/>
						<path style="fill:#001C28;" d="M556.36,177.055c0,0-2.977-0.029,0.464,18.428c2.578,13.825,6.57,26.278,6.57,26.278
							s50.966,4.627,50.3-8.04c-0.667-12.667,0.667-41.333-6.667-41.333C599.693,172.388,556.36,177.055,556.36,177.055z"/>
						<path style="fill:#001C28;" d="M627.36,170.055c0,0-12.333-1.207-11,4.074c1.333,5.281-2,41.495,4.667,42.25
							c6.667,0.754,22-3.772,22-3.772s3.112,0.083,4-4.527c1.432-7.437,3.333-36.968,0-36.968
							C643.693,171.111,627.36,170.055,627.36,170.055z"/>
					</g>
					<path style="fill:#001C28;" d="M569.344,121.709c0,0,8.516,26.346,11.016,54.846l5.5-1c0,0-6.5-40-13.5-54.5L569.344,121.709z"
						/>
					<path style="fill:#001C28;" d="M634.746,160.999h4.901c-0.065-12.519-0.774-29.896-3.506-39.809l-3.343-0.676
						C632.797,120.515,635.635,137.691,634.746,160.999z"/>
				</g>
			</g>
			<g>
				<g>
					<polygon style="fill:#E8C9C1;" points="619.301,226.545 698.635,227.258 698.591,161.547 619.257,160.834 					"/>
					<polygon style="fill:#FFDCD1;" points="661.68,227.031 698.635,227.258 698.591,161.547 661.636,161.321 					"/>
					<polygon style="fill:#E8C9C1;" points="676.384,175.131 686.406,175.192 686.695,161.215 676.674,161.154 					"/>
				</g>
				<g>
					<g>
						<path style="fill:#FF9A78;" d="M648.352,152.65c0,0,44.076,8.723,45.465,10.746l-17.108,33.015
							c-20.199-0.055-10.001,2.721-4.889,3.877c-28.965,19.623-1.994,6.576-1.994,6.576c-26.933,17.224,1.777,3.727,1.777,3.727
							c-28.448,19.678,1.873,1.828,1.873,1.828c-29.728,30.615,34.91-21.708,44.833-55.13c3.716-12.516-66.319-29.899-66.319-29.899
							L648.352,152.65z"/>
						<path style="opacity:0.4;fill:#C66E5D;" d="M680.84,136.059c-15.25-5.101-28.851-8.669-28.851-8.669l-3.637,25.26
							c0,0,9.646,1.909,20.054,4.148C673.407,150.425,678.16,143.649,680.84,136.059z"/>
					</g>
					<path style="fill:#FF621D;" d="M649.426,124.005c-1.645-0.621-3.358-0.865-5.014-0.887c1.001,10.605,0.069,21.263-0.019,31.891
						c4.104,1.15,12.971,4.883,19.983,4.245c7.34-10.035,9.084-17.257,10.537-26.822
						C669.108,128.283,651.719,124.87,649.426,124.005z"/>
				</g>
			</g>
			<g>
				<g>
					<g>
						<path style="fill:#FF9A78;" d="M562.217,186.297l49.065,23.366c15.423-11.745,7.809-1.837,3.596,1.281
							c42.482,4.112,5.72,3.797,5.72,3.797c33.762,5.648-0.728,3.276-0.728,3.276c32.156,5.372-0.501,2.469-0.501,2.469
							c47.324,10.902-65.757-2.979-70.004-17.126c-0.864-2.876-2.177-15.454,1.85-20.766L562.217,186.297z"/>
						<path style="fill:#FF9A78;" d="M549.365,203.36c-3.717-22.399-1.414-61.841-1.414-61.841l25.145,4.364
							c0,0-4.245,35.375-4.117,44.482L549.365,203.36z"/>
					</g>
					<path style="opacity:0.4;fill:#C66E5D;" d="M570.072,173.899c1.221-12.988,3.024-28.016,3.024-28.016l-25.145-4.364
						c0,0-0.895,15.339-0.668,32.318C554.755,175.665,562.506,175.439,570.072,173.899z"/>
				</g>
				<path style="fill:#FF621D;" d="M573.047,169.684c0.604-6.479-0.204-16.442,0.859-19.425c3.367-9.455-4.562-28.551-4.562-28.551
					s-20.651,4.013-22.317,18.346c-0.283,2.435-5.349,20.938-4.333,28C551.855,171.163,560.762,171.588,573.047,169.684z"/>
			</g>
		</g>
		<g>
			<polygon style="fill:#E8C9C1;" points="613.233,462.126 697.411,462.883 697.364,393.159 613.186,392.403 			"/>
			<polygon style="fill:#FFDCD1;" points="658.2,462.642 697.411,462.883 697.364,393.159 658.153,392.919 			"/>
			<polygon style="fill:#E8C9C1;" points="673.801,407.572 684.435,407.638 684.742,392.807 674.109,392.742 			"/>
		</g>
	</g>
	<g>
		<g>
			<g>
				<g>
					<path style="fill:#FFA099;" d="M376.647,98.535c0,0,1.564,18.729-1.303,19.181c-2.867,0.451-25.476,9.927-25.476,9.927
						s18.177,13.542,38.249,14.218c20.073,0.677,32.693-18.311,32.693-18.311s-22.005-5.157-23.569-6.511
						c-1.564-1.354,1.564-21.212,1.564-21.212L376.647,98.535z"/>
					<path style="fill:#FF8680;" d="M375.837,117.419c7.44-0.329,14.742-1.4,20.994-4.374c0.236-6.177,1.975-17.217,1.975-17.217
						l-22.158,2.708C376.647,98.535,378.02,114.966,375.837,117.419z"/>
				</g>
				<g>
					<g>
						<path style="fill:#FFA099;" d="M400.917,58.604c0,0-7.232-14.667-23.143-10.293c-15.911,4.374-17.116,20.843-18.081,35.253
							c-0.964,14.41,4.592,26.941,17.357,27.533C388.141,111.611,407.185,108.009,400.917,58.604z"/>
						<path style="fill:#FFA099;" d="M401.386,75.238c0,0,0.767-2.718,4.97-0.097c5.332,3.324,1.189,17.293-5.026,16.355
							C395.115,90.557,401.386,75.238,401.386,75.238z"/>
					</g>
					<path style="fill:#1F2136;" d="M404.209,44.395c-0.346-0.028-7.368,2.301-2.267,2.42c-4.257,5.407-3.707,6.6-10.04,8.297
						c-2.591,10.717,4.534,16.594,4.534,16.594l-0.862,12.739l4.862,0.147c0,0-0.723-8.749,2.893-9.778
						c3.616-1.029,5.063,3.345,5.063,3.345C415.382,67.867,421.051,45.778,404.209,44.395z"/>
				</g>
			</g>
			<g>
				<g>
					<path style="fill:#1F2136;" d="M377.46,70.337c0,0,0.103-0.257,0.376-0.639c0.133-0.196,0.308-0.419,0.528-0.662
						c0.226-0.23,0.476-0.515,0.798-0.753c0.31-0.259,0.663-0.527,1.071-0.757c0.395-0.257,0.861-0.436,1.336-0.645
						c0.497-0.143,1.006-0.35,1.56-0.403c0.274-0.037,0.552-0.084,0.832-0.11l0.85,0.002c0.57-0.007,1.129,0.123,1.674,0.234
						c0.547,0.108,1.044,0.357,1.531,0.543c0.474,0.218,0.886,0.518,1.281,0.769c0.402,0.244,0.689,0.602,0.984,0.874
						c0.289,0.28,0.544,0.541,0.717,0.826c0.191,0.264,0.334,0.514,0.454,0.713c0.237,0.401,0.341,0.646,0.341,0.646
						s-0.275-0.072-0.701-0.227c-0.212-0.079-0.471-0.167-0.742-0.29c-0.267-0.131-0.608-0.207-0.939-0.332
						c-0.346-0.098-0.682-0.271-1.07-0.351c-0.383-0.087-0.762-0.226-1.161-0.312c-0.408-0.052-0.805-0.178-1.221-0.218
						c-0.418-0.021-0.828-0.129-1.252-0.101l-0.631-0.027c-0.21,0.022-0.421,0.022-0.631,0.033
						c-0.422-0.009-0.834,0.093-1.249,0.106c-0.402,0.089-0.816,0.109-1.196,0.207c-0.387,0.073-0.762,0.145-1.109,0.231
						c-0.692,0.171-1.3,0.326-1.731,0.45C377.714,70.267,377.46,70.337,377.46,70.337z"/>
				</g>
				<g>
					<path style="fill:#1F2136;" d="M360.896,71.109c0,0,0.104-0.898,0.846-1.991c0.374-0.538,0.911-1.115,1.631-1.596
						c0.174-0.129,0.38-0.218,0.579-0.325c0.2-0.106,0.404-0.213,0.634-0.272c0.224-0.07,0.451-0.147,0.682-0.206
						c0.236-0.041,0.479-0.063,0.72-0.091c0.484-0.072,0.968,0.025,1.438,0.076c0.46,0.092,0.889,0.27,1.298,0.419
						c0.377,0.212,0.728,0.434,1.047,0.648c0.302,0.237,0.546,0.505,0.775,0.737c0.233,0.23,0.412,0.467,0.544,0.701
						c0.145,0.219,0.252,0.426,0.342,0.59c0.176,0.332,0.251,0.536,0.251,0.536s-0.225-0.056-0.571-0.179
						c-0.172-0.063-0.382-0.132-0.601-0.23c-0.217-0.104-0.478-0.184-0.753-0.265c-0.273-0.083-0.549-0.202-0.842-0.29
						c-0.301-0.065-0.604-0.139-0.904-0.233c-0.311-0.024-0.617-0.087-0.923-0.121c-0.307,0.028-0.614-0.059-0.917,0.013
						l-0.458,0.035c-0.15,0.042-0.303,0.065-0.455,0.095c-0.306,0.052-0.603,0.171-0.906,0.254
						c-0.593,0.216-1.169,0.479-1.677,0.734c-0.506,0.258-0.951,0.498-1.266,0.676C361.083,71.005,360.896,71.109,360.896,71.109z"
						/>
				</g>
				<g>
					<path style="fill:#D16D6D;" d="M372.981,71.293c0.038,1.443-0.071,2.877-0.244,4.297c-0.09,0.71-0.205,1.416-0.317,2.124
						l-0.441,2.103c-0.141,0.703-0.38,1.385-0.566,2.08l-0.303,1.036l-0.385,1.017c-0.276,0.673-0.479,1.364-0.833,2.013
						c-0.348,0.65-0.673,1.31-1.042,1.941l-0.33-1.023c0.868,0.483,1.723,0.994,2.571,1.52c0.84,0.543,1.683,1.079,2.487,1.697
						c-0.988-0.231-1.936-0.546-2.888-0.853c-0.944-0.324-1.88-0.663-2.803-1.03l-0.612-0.243l0.281-0.781
						c0.234-0.65,0.514-1.272,0.77-1.903c0.144-0.306,0.228-0.648,0.349-0.972l0.342-0.98c0.239-0.647,0.44-1.313,0.652-1.979
						l0.632-1.998l0.627-2.01c0.221-0.669,0.41-1.347,0.639-2.017C372.008,73.986,372.456,72.641,372.981,71.293z"/>
				</g>
				<g>
					<path style="fill:#D16D6D;" d="M402.617,88.624c0.299-0.348,0.572-0.712,0.803-1.094c0.232-0.38,0.398-0.795,0.475-1.194
						c0.033-0.199,0.049-0.4,0.001-0.579c-0.008-0.094-0.036-0.18-0.08-0.261c-0.037-0.082-0.06-0.169-0.129-0.237
						c-0.097-0.154-0.244-0.279-0.398-0.397c-0.15-0.121-0.352-0.198-0.517-0.307l-0.186-0.122l-0.027-0.181
						c-0.162-1.089-0.248-2.169-0.249-3.269c-0.006-0.55,0.029-1.102,0.096-1.658c0.069-0.555,0.168-1.119,0.413-1.678
						c0.127-0.277,0.284-0.562,0.55-0.805c0.258-0.249,0.679-0.394,1.035-0.343c0.151,0.021,0.376,0.075,0.48,0.125
						c0.128,0.053,0.246,0.088,0.381,0.156c0.285,0.133,0.535,0.301,0.759,0.491c0.217,0.204,0.413,0.425,0.567,0.674
						c0.146,0.252,0.265,0.517,0.333,0.792c0.15,0.545,0.172,1.111,0.059,1.642c-0.031-0.538-0.144-1.066-0.368-1.528
						c-0.104-0.235-0.255-0.441-0.409-0.633c-0.156-0.192-0.343-0.351-0.538-0.493c-0.21-0.131-0.421-0.236-0.632-0.317
						c-0.108-0.045-0.253-0.076-0.378-0.114c-0.147-0.049-0.189-0.035-0.303-0.052c-0.343-0.01-0.578,0.28-0.749,0.73
						c-0.317,0.895-0.358,1.978-0.38,3.016c-0.007,1.049,0.038,2.118,0.12,3.165l-0.212-0.303c0.212,0.144,0.432,0.263,0.623,0.443
						c0.194,0.179,0.375,0.37,0.506,0.618c0.081,0.109,0.117,0.246,0.16,0.377c0.052,0.129,0.071,0.264,0.07,0.401
						c0.028,0.271-0.029,0.533-0.102,0.772c-0.15,0.485-0.436,0.883-0.741,1.236C403.342,88.051,402.998,88.364,402.617,88.624z"/>
				</g>
				<ellipse style="fill:#1F2733;" cx="387.333" cy="77.15" rx="1.288" ry="3.825"/>
				<path style="fill:#1F2733;" d="M370.257,76.433c0,2.112-0.577,3.825-1.288,3.825c-0.711,0-1.288-1.712-1.288-3.825
					s0.577-3.825,1.288-3.825C369.68,72.608,370.257,74.321,370.257,76.433z"/>
				<g>
					<path style="fill:#D16D6D;" d="M386.103,95.285c0,0,0.015-0.011,0.058-0.008c0.072,0.028,0.018,0.12-0.011,0.174
						c-0.078,0.128-0.207,0.305-0.401,0.494c-0.38,0.387-0.978,0.883-1.774,1.357c-0.79,0.482-1.781,0.944-2.906,1.274
						c-0.564,0.156-1.155,0.313-1.771,0.387c-0.615,0.08-1.249,0.121-1.885,0.12c-0.636-0.02-1.271-0.095-1.889-0.209
						c-0.62-0.105-1.21-0.309-1.767-0.517c-1.114-0.432-2.054-1.045-2.762-1.653c-0.715-0.604-1.203-1.207-1.517-1.639
						c-0.313-0.435-0.457-0.705-0.457-0.705s0.257,0.158,0.707,0.435c0.445,0.273,1.082,0.643,1.851,1.021
						c0.777,0.366,1.686,0.732,2.687,0.992c0.498,0.139,1.025,0.214,1.556,0.303c0.533,0.079,1.08,0.121,1.629,0.122
						c0.549,0.021,1.102,0.006,1.646-0.044c0.543-0.059,1.084-0.101,1.603-0.197c1.04-0.175,2.011-0.416,2.844-0.657
						c0.829-0.25,1.522-0.491,1.996-0.692c0.234-0.104,0.424-0.184,0.534-0.259C386.231,95.296,386.103,95.285,386.103,95.285z"/>
				</g>
			</g>
			<g>
				<path style="fill:#FF621D;" d="M414.146,69.153c0,0-127.045-24.464-49.603-15.185c0,0,6.074-22.777,26.32-19.234
					C414.579,38.884,420.726,53.462,414.146,69.153z"/>
				<path style="fill:#FF7936;" d="M364.543,53.968c-77.442-9.279,49.603,15.185,49.603,15.185
					C360.279,57.678,364.543,53.968,364.543,53.968z"/>
			</g>
		</g>
		<g>
			<g>
				<g>
					<path style="fill:#FF621D;" d="M359.501,427.711l-1.959,27.383c0,0-71.434,18.61-14.573-7.997l1.523-36.86L359.501,427.711z"/>
					<path style="opacity:0.3;fill:#161826;" d="M352.579,447.612c1.792,0.041,3.496,0.038,5.517-0.26l1.405-19.641l-15.009-17.475
						l-1.468,35.516C346.09,447.027,349.289,447.537,352.579,447.612z"/>
					<g>
						<path style="fill:#FFFFFF;" d="M321.551,459.137c-6.709,7.26,36.041-3.747,36.041-3.747l0.109-1.579
							C354.294,454.681,323.471,462.449,321.551,459.137z"/>
					</g>
					<path style="fill:none;stroke:#FFFFFF;stroke-width:1.0181;stroke-linecap:round;stroke-miterlimit:10;" d="M341.876,446.95
						c0,0,3.553,0.014,5.072,2.348"/>
					<path style="fill:none;stroke:#FFFFFF;stroke-width:1.0181;stroke-linecap:round;stroke-miterlimit:10;" d="M338.97,448.611
						c0,0,3.553,0.014,5.072,2.348"/>
					<path style="fill:none;stroke:#FFFFFF;stroke-width:1.0181;stroke-linecap:round;stroke-miterlimit:10;" d="M335.708,450.342
						c0,0,3.553,0.014,5.072,2.348"/>
				</g>
				<g>
					<path style="fill:#FF621D;" d="M404.321,427.881l1.959,27.383c0,0,71.434,18.61,14.573-7.997l-1.523-36.86L404.321,427.881z"/>
					<path style="opacity:0.3;fill:#161826;" d="M411.242,447.781c-1.792,0.041-3.496,0.038-5.517-0.26l-1.405-19.641l15.009-17.475
						l1.468,35.516C417.732,447.196,414.532,447.707,411.242,447.781z"/>
					<g>
						<path style="fill:#FFFFFF;" d="M442.27,459.306c6.709,7.26-36.041-3.747-36.041-3.747l-0.109-1.579
							C409.527,454.85,440.351,462.618,442.27,459.306z"/>
					</g>
					<path style="fill:none;stroke:#FFFFFF;stroke-width:1.0181;stroke-linecap:round;stroke-miterlimit:10;" d="M421.945,447.12
						c0,0-3.553,0.014-5.072,2.348"/>
					<path style="fill:none;stroke:#FFFFFF;stroke-width:1.0181;stroke-linecap:round;stroke-miterlimit:10;" d="M424.851,448.78
						c0,0-3.553,0.014-5.072,2.348"/>
					<path style="fill:none;stroke:#FFFFFF;stroke-width:1.0181;stroke-linecap:round;stroke-miterlimit:10;" d="M428.113,450.512
						c0,0-3.553,0.014-5.072,2.348"/>
				</g>
			</g>
			<g>
				<g>
					<path style="fill:#25283F;" d="M352.142,206.619c0,0-14.633,130.614-11.766,236.289c0,0,14.508,5.276,19.124,1.319
						c3.957-25.06,4.696-73.614,10.632-109.884c5.588-34.15,11.874-74.544,11.874-74.544l2.879,0.488
						c0,0,15.653,171.32,18.291,183.85c15.168,3.957,20.443-2.638,20.443-2.638s-0.549-200.944-4.779-234.273
						C413.298,163.557,352.142,206.619,352.142,206.619z"/>
					<path style="opacity:0.6;fill:#161826;" d="M347.986,249.751c-4.082,47.245-9.45,125.336-7.61,193.158
						c0,0,14.508,5.276,19.124,1.319c3.957-25.06,4.696-73.614,10.632-109.884c5.224-31.924,11.057-69.302,11.795-74.039
						C370.015,258.521,358.492,255.339,347.986,249.751z"/>
				</g>
				<g>
					<path style="fill:#001C28;" d="M364.262,199.175c-7.187,3.972-12.12,7.444-12.12,7.444s-0.866,7.732-2.133,20.928
						c2.83,0.935,6.808,2.146,11.629,3.345C362.428,220.313,363.261,209.737,364.262,199.175z"/>
					<path style="fill:#001C28;" d="M401.807,187.827c-9.465-1.033-21.171,3.17-30.843,7.867c-1.202,12.195-2.157,24.41-3.066,36.63
						c9.671,2.023,21.618,3.633,34.171,3.243C402.061,219.654,401.846,203.739,401.807,187.827z"/>
					<path style="fill:#001C28;" d="M408.435,235.188c4.024-0.352,8.079-0.917,12.117-1.777c-0.49-11.836-1.057-21.023-1.712-26.186
						c-1.232-9.706-5.216-15.116-10.66-17.678C408.229,204.76,408.425,219.975,408.435,235.188z"/>
				</g>
			</g>
		</g>
		<g>
			<g>
				<g>
					<path style="fill:#FFA099;" d="M331.293,137.344c0,0-20.558,39.952-22.885,40.728l-14.643-29.826
						c5.632-19.398,0.147-10.363-2.376-5.769c-10.86-33.258-5.769-3.733-5.769-3.733c-9.115-30.643-4.072,0.679-4.072,0.679
						c-11.055-32.776-3.394,1.018-3.394,1.018c-20.946-45.189,12.56,64.212,27.149,66.515c12.896,2.036,49.263-59.139,49.263-59.139
						L331.293,137.344z"/>
					<path style="fill:#FF8680;" d="M338.266,173.151c9.114-13.248,16.3-25.334,16.3-25.334l-23.273-10.473
						c0,0-4.499,8.743-9.526,18.128C326.511,162.039,331.71,168.479,338.266,173.151z"/>
				</g>
				<path style="fill:#FF621D;" d="M343.066,167.698c4.082-5.068,8.911-13.819,11.444-15.719c8.029-6.022-5.165-29.109-5.165-29.109
					s-10.417,1.4-15.197,7.051c-1.583,1.872-9.502,14.253-12.556,20.701C327.514,158.272,331.773,162.499,343.066,167.698z"/>
			</g>
			<g>
				<g>
					<path style="fill:#FF621D;" d="M373.38,118.093l9.495,9.06c0,0,10.132-6.309,12.923-10.273c0,0,28.336,6.868,34.562,8.944
						c4.714,1.571-6.992,93.535-12.127,99.592c-5.135,6.057-67.304,2.425-70.942-9.701c-0.514-1.543,2.188-2.872,1.819-7.883
						c-1.807-24.532-5.154-83.827-5.154-83.827L373.38,118.093z"/>
					<path style="opacity:0.2;fill:#001C28;" d="M409.895,169.826c-14.049,8.169-27.79,17.004-43.588,21.482
						c-5.877,1.666-11.94,2.853-18.08,3.723c0.317,4.819,0.617,9.189,0.883,12.801c0.369,5.011-2.333,6.34-1.819,7.883
						c3.638,12.127,65.807,15.759,70.942,9.701c3.173-3.742,8.852-40.275,11.619-68.023
						C423.544,162.041,416.587,165.934,409.895,169.826z"/>
				</g>
				<g>
					<polygon style="fill:#FF7936;" points="381.469,122.932 371.801,113.335 366.638,118.124 375.789,133.555 380.464,124.942 
						382.875,127.153 					"/>
					<polygon style="fill:#FF7936;" points="397.315,113.242 382.875,127.153 385.702,126.12 390.876,134.846 402.33,117.605 					
						"/>
				</g>
			</g>
			<g>
				<g>
					
						<rect x="380.314" y="166.65" transform="matrix(0.9954 -0.0959 0.0959 0.9954 -17.7851 41.9698)" style="fill:#E8C9C1;" width="94.682" height="78.653"/>
					
						<rect x="380.454" y="169.547" transform="matrix(0.9954 -0.0959 0.0959 0.9954 -18.2017 39.0995)" style="fill:#FFDCD1;" width="34.272" height="78.653"/>
					
						<rect x="388.346" y="169.589" transform="matrix(0.9954 -0.0959 0.0959 0.9954 -15.0998 38.5094)" style="fill:#E8C9C1;" width="9.294" height="13.441"/>
				</g>
				<g>
					<g>
						<path style="fill:#FFA099;" d="M467.126,182.691c-9.273-20.725-32.976-52.334-32.976-52.334l-18.552,17.526
							c0,0,23.077,27.145,28.001,34.808H467.126z"/>
						<path style="fill:#FF8680;" d="M452.629,157.044c-9.212-14.328-18.48-26.686-18.48-26.686l-18.552,17.526
							c0,0,12.655,14.887,21.222,25.725C442.695,168.609,448.243,163.315,452.629,157.044z"/>
						<path style="fill:#FFA099;" d="M446.987,175.564l-27.997,46.578c-19.344-1.273-7.525,2.782-2.291,3.054
							c-14.762,13.235-2.671,6.324-2.671,6.324c-10.819,8.947,2.416,2.329,2.416,2.329c-9.417,10.435,1.782,1.782,1.782,1.782
							c-15.017,21.634,53.172-38.802,48.899-52.941c-0.869-2.875-6.72-14.085-13.012-16.289L446.987,175.564z"/>
					</g>
					<path style="fill:#FF621D;" d="M428.783,167.698c-4.082-5.068-8.911-13.819-11.444-15.719
						c-8.029-6.022-16.675-34.445-16.675-34.445s32.257,6.736,37.037,12.387c1.583,1.872,9.502,14.253,12.556,20.701
						C444.336,158.272,440.077,162.499,428.783,167.698z"/>
				</g>
			</g>
		</g>
	</g>
	<g>
		<g>
			<g>
				<g>
					<path style="fill:#A04747;" d="M137.931,140.715c4.81,1.368,9.96,2.421,15.259,2.866c2.43,0.204,4.776,0.198,7.04,0.037
						c6.304-4.463,10.778-13.128,12.605-21.3c-3.724-1.079-6.617-2.014-7.173-2.459c-1.795-1.433,3.175-20.692,3.175-20.692
						l-26.766,1.157c0,0,0.732,18.47-2.738,18.719c-1.26,0.09-5.719,1.172-10.883,2.512
						C130.192,128.853,132.656,135.722,137.931,140.715z"/>
					<path style="fill:#873D3D;" d="M139.943,118.784c8.952,0.18,17.784-0.376,25.471-2.869c0.661-6.041,3.424-16.748,3.424-16.748
						l-26.766,1.157C142.071,100.324,142.713,116.527,139.943,118.784z"/>
				</g>
				<g>
					<g>
						<path style="fill:#A04747;" d="M173.412,61.872c0,0-7.154-14.601-25.698-11.467c-18.544,3.134-21.604,26.251-23.81,40.051
							c-2.206,13.8,3.614,18.879,18.177,20.311C154.733,112.012,176.805,109.832,173.412,61.872z"/>
						<path style="fill:#A04747;" d="M172.675,77.909c0,0,1.085-2.563,5.695,0.242c5.847,3.559,0.037,16.719-7.003,15.397
							C164.327,92.225,172.675,77.909,172.675,77.909z"/>
					</g>
					<g>
						<path style="fill:#1F2136;" d="M174.93,77.633c1.226-0.217,2.201,0,2.976,0.407c1.939-5.262,3.866-10.529,5.561-15.877
							c-1.454-0.369-2.91-0.735-4.363-1.107c-4.378-1.122-8.82-2.576-13.286-3.848c-3.918,10.258,1.462,16.969,1.462,16.969
							l-1.961,12.199l5.552,0.47C170.871,86.846,170.713,78.379,174.93,77.633z"/>
						<path style="fill:#1F2136;" d="M167.28,74.177c0,0-4.124,29.571-9.281,29.366c-5.157-0.205,0.568-9.315-5.619-11.827
							c-6.188-2.513-20.21-8.422-22.937,0.211c-2.727,8.633-4.894,5.24-5.539-1.47c0,0-7.804,18.785,4.879,23.099
							c12.684,4.313,29.696,7.034,36.614-4.436c6.918-11.47,4.008-17.639,6.502-29.25"/>
					</g>
				</g>
			</g>
			<g>
				<g>
					<path style="fill:#602B2B;" d="M173.06,90.872c0.355-0.312,0.693-0.635,0.989-0.987c0.144-0.179,0.28-0.36,0.393-0.551
						c0.066-0.09,0.099-0.196,0.153-0.289c0.057-0.093,0.082-0.194,0.116-0.29c0.063-0.192,0.092-0.389,0.053-0.561
						c0.001-0.09-0.036-0.171-0.074-0.249c-0.024-0.082-0.066-0.159-0.135-0.227c-0.066-0.068-0.094-0.152-0.187-0.207l-0.233-0.184
						c-0.073-0.064-0.182-0.102-0.271-0.155l-0.275-0.154l-0.21-0.118l-0.021-0.231c-0.1-1.111-0.112-2.206-0.014-3.319
						c0.044-0.556,0.134-1.112,0.273-1.669c0.147-0.554,0.324-1.123,0.718-1.643c0.197-0.256,0.456-0.503,0.796-0.649
						c0.34-0.155,0.726-0.149,1.043-0.071c0.378,0.097,0.53,0.186,0.822,0.314c0.279,0.133,0.531,0.298,0.757,0.485
						c0.226,0.194,0.427,0.414,0.597,0.657c0.155,0.253,0.282,0.52,0.354,0.8c0.152,0.555,0.152,1.137-0.019,1.659
						c0.019-0.543-0.081-1.079-0.307-1.537c-0.225-0.459-0.574-0.826-0.989-1.088c-0.214-0.129-0.432-0.232-0.651-0.316
						c-0.207-0.072-0.562-0.192-0.714-0.199c-0.421-0.06-0.715,0.105-0.962,0.476c-0.477,0.759-0.643,1.849-0.752,2.874
						c-0.102,1.042-0.128,2.119-0.11,3.168l-0.23-0.348l0.327,0.21c0.106,0.078,0.219,0.131,0.316,0.229l0.293,0.283
						c0.103,0.082,0.169,0.226,0.249,0.34c0.085,0.114,0.144,0.246,0.179,0.395c0.049,0.141,0.082,0.283,0.068,0.432
						c0.015,0.293-0.074,0.572-0.187,0.807c-0.109,0.245-0.263,0.449-0.427,0.637c-0.166,0.187-0.347,0.351-0.531,0.507
						C173.891,90.41,173.488,90.668,173.06,90.872z"/>
				</g>
				<path style="fill:#FFFFFF;" d="M132.559,92.939l20.458,2.776C153.016,95.714,138.816,103.097,132.559,92.939z"/>
				<g>
					<path style="fill:#602B2B;" d="M141.143,87.775c-1.179-0.263-2.319-0.608-3.44-0.992c-1.125-0.377-2.232-0.792-3.321-1.245
						l-0.673-0.28l0.213-0.761c0.2-0.716,0.394-1.39,0.639-2.065c0.236-0.673,0.498-1.336,0.772-1.994
						c0.558-1.31,1.174-2.597,1.896-3.826c0.346-0.621,0.718-1.23,1.11-1.824c0.409-0.585,0.787-1.187,1.241-1.74
						c0.425-0.571,0.885-1.116,1.366-1.642c0.465-0.537,0.997-1.022,1.515-1.507c-0.612,1.293-1.261,2.526-1.867,3.779l-0.908,1.869
						c-0.276,0.636-0.596,1.246-0.875,1.878l-0.848,1.885l-0.824,1.893l-0.797,1.903c-0.248,0.635-0.531,1.279-0.755,1.897
						l-0.46-1.04c1.041,0.555,2.064,1.148,3.068,1.778C139.202,86.368,140.192,87.031,141.143,87.775z"/>
				</g>
				<g>
					<path style="fill:#1F2136;" d="M149.115,72.701c0,0-0.052,0.26-0.113,0.708c-0.061,0.447-0.135,1.085-0.13,1.821
						c0.008,0.367,0.035,0.76,0.114,1.148c0.059,0.396,0.222,0.768,0.399,1.115c0.088,0.176,0.231,0.315,0.34,0.476
						c0.162,0.118,0.282,0.274,0.455,0.383c0.313,0.227,0.776,0.416,1.121,0.507c0.234,0.042,0.539,0.155,0.714,0.143
						c0.188-0.017,0.356,0.048,0.562-0.01c0.198-0.033,0.399-0.047,0.586-0.125c0.196-0.047,0.378-0.135,0.554-0.238
						c0.715-0.392,1.296-1.028,1.746-1.613c0.444-0.594,0.776-1.144,1.002-1.535c0.227-0.392,0.348-0.628,0.348-0.628
						s-0.004,0.265-0.081,0.723c-0.081,0.456-0.227,1.111-0.564,1.854c-0.169,0.371-0.38,0.768-0.669,1.157
						c-0.294,0.383-0.637,0.79-1.109,1.1c-0.229,0.165-0.475,0.314-0.757,0.42c-0.266,0.14-0.566,0.197-0.869,0.248
						c-0.291,0.08-0.641,0.03-0.965,0.031c-0.34-0.011-0.529-0.091-0.801-0.136c-0.644-0.188-1.135-0.425-1.643-0.799
						c-0.251-0.169-0.443-0.425-0.649-0.639c-0.157-0.256-0.338-0.5-0.443-0.766c-0.228-0.527-0.332-1.068-0.331-1.558
						c-0.028-0.493,0.046-0.943,0.13-1.344c0.172-0.804,0.457-1.413,0.672-1.823C148.955,72.912,149.115,72.701,149.115,72.701z"/>
				</g>
				<g>
					<path style="fill:#1F2136;" d="M131.489,67.955c0,0-0.037,0.252-0.083,0.682c-0.046,0.43-0.101,1.042-0.102,1.752
						c0.009,0.705,0.083,1.527,0.393,2.232c0.129,0.369,0.391,0.642,0.641,0.909c0.14,0.121,0.304,0.22,0.458,0.329l0.49,0.209
						c0.225,0.048,0.508,0.15,0.685,0.157c0.161-0.025,0.298,0.042,0.484-0.02c0.354-0.04,0.7-0.189,1.019-0.398
						c0.315-0.217,0.609-0.487,0.871-0.774c0.249-0.299,0.483-0.598,0.686-0.891c0.398-0.591,0.699-1.128,0.906-1.508
						c0.208-0.38,0.323-0.607,0.323-0.607s0.003,0.254-0.053,0.694c-0.059,0.439-0.17,1.069-0.448,1.794
						c-0.138,0.363-0.315,0.752-0.555,1.145c-0.248,0.388-0.545,0.797-0.966,1.141c-0.219,0.164-0.428,0.349-0.702,0.466
						c-0.132,0.063-0.262,0.137-0.401,0.189l-0.444,0.103c-0.284,0.091-0.646,0.044-0.973,0.042c-0.31-0.027-0.5-0.099-0.756-0.148
						l-0.045-0.011l-0.011-0.003l-0.076-0.023l-0.006-0.003l-0.025-0.011l-0.1-0.046l-0.2-0.093l-0.396-0.191
						c-0.244-0.171-0.495-0.344-0.71-0.548c-0.417-0.431-0.725-0.954-0.867-1.474c-0.181-0.515-0.194-1.026-0.194-1.487
						c0.008-0.463,0.082-0.887,0.168-1.266c0.176-0.759,0.44-1.343,0.64-1.738C131.341,68.161,131.489,67.955,131.489,67.955z"/>
				</g>
			</g>
			<g>
				<path style="fill:#FF621D;" d="M180.717,71.581c0,0-105.963-18.634-48.479-21.847c0,0,9.118-22.377,29.248-16.159
					C185.067,40.859,189.435,56.476,180.717,71.581z"/>
				<path style="fill:#FF7936;" d="M132.239,49.735c-34.788-2.071-18.427,9.033,8.72,15.828c19.14,4.791,39.759,6.019,39.759,6.019
					C130.808,55.86,132.239,49.735,132.239,49.735z"/>
			</g>
		</g>
		<g>
			<g>
				<g>
					<path style="fill:#A04747;" d="M101.952,147.226c0,0-17.957,45.715-7.244,58.952c10.712,13.236,23.021,11.45,23.021,11.45
						l8.473-61.751L101.952,147.226z"/>
					<path style="fill:#873D3D;" d="M101.952,147.226c0,0-17.957,45.715-7.244,58.952c10.712,13.236,23.021,11.45,23.021,11.45
						l8.473-61.751L101.952,147.226z"/>
				</g>
				<g>
					<path style="fill:#25283F;" d="M197.936,129.284c-4.222-1.606-18.566-5.897-27.559-8.551
						c-4.188,5.773-11.44,12.011-22.694,10.321c-8.254-1.239-11.748-6.892-13.21-11.949l-17.849,3.047
						c0,0-7.843,58.698-7.468,82.856c0.077,4.934-2.791,6.082-2.354,7.624c3.017,12.101,66.92,19.248,72.584,13.605
						C185.049,220.595,202.703,131.097,197.936,129.284z"/>
					<path style="fill:#25283F;" d="M122.031,172.388c4.518-4.734-6.644-20.117-3.916-21.834c8.647-5.442-3.561-28.841-3.561-28.841
						s-7.997,0.798-13.27,6.063c-1.747,1.744-10.378,24.132-13.92,30.278C93.008,165.899,110.031,169.722,122.031,172.388z"/>
				</g>
			</g>
			<g>
				<g>
					<g>
						<path style="fill:#25283F;" d="M110.252,426.721l-2.024,26.896c0,0-73.807,18.28-15.057-7.855l1.574-36.205L110.252,426.721z"
							/>
						<path style="opacity:0.3;fill:#161826;" d="M103.101,446.268c1.851,0.04,3.613,0.037,5.7-0.255l1.452-19.292l-15.507-17.164
							l-1.516,34.885C96.396,445.693,99.701,446.195,103.101,446.268z"/>
						<g>
							<path style="fill:#FFFFFF;" d="M71.042,457.588c-6.932,7.131,37.239-3.681,37.239-3.681l0.113-1.551
								C104.873,453.211,73.025,460.841,71.042,457.588z"/>
						</g>
						<path style="fill:none;stroke:#FFFFFF;stroke-width:1.0256;stroke-linecap:round;stroke-miterlimit:10;" d="M92.042,445.618
							c0,0,3.671,0.014,5.24,2.307"/>
						<path style="fill:none;stroke:#FFFFFF;stroke-width:1.0256;stroke-linecap:round;stroke-miterlimit:10;" d="M89.04,447.249
							c0,0,3.671,0.014,5.24,2.307"/>
						<path style="fill:none;stroke:#FFFFFF;stroke-width:1.0256;stroke-linecap:round;stroke-miterlimit:10;" d="M85.669,448.95
							c0,0,3.671,0.014,5.24,2.307"/>
					</g>
					<g>
						<path style="fill:#25283F;" d="M166.554,427.221l2.024,26.896c0,0,73.807,18.28,15.057-7.855l-1.574-36.205L166.554,427.221z"
							/>
						<path style="opacity:0.3;fill:#161826;" d="M173.706,446.768c-1.851,0.04-3.613,0.037-5.7-0.255l-1.452-19.292l15.507-17.164
							l1.516,34.885C180.411,446.193,177.105,446.695,173.706,446.768z"/>
						<g>
							<path style="fill:#FFFFFF;" d="M205.764,458.088c6.932,7.131-37.239-3.681-37.239-3.681l-0.113-1.551
								C171.934,453.711,203.781,461.341,205.764,458.088z"/>
						</g>
						<path style="fill:none;stroke:#FFFFFF;stroke-width:1.0256;stroke-linecap:round;stroke-miterlimit:10;" d="M184.764,446.118
							c0,0-3.671,0.014-5.24,2.307"/>
						<path style="fill:none;stroke:#FFFFFF;stroke-width:1.0256;stroke-linecap:round;stroke-miterlimit:10;" d="M187.767,447.749
							c0,0-3.671,0.014-5.24,2.307"/>
						<path style="fill:none;stroke:#FFFFFF;stroke-width:1.0256;stroke-linecap:round;stroke-miterlimit:10;" d="M191.138,449.45
							c0,0-3.671,0.014-5.24,2.307"/>
					</g>
				</g>
				<g>
					<g>
						<path style="fill:#FF621D;" d="M103.99,227.501c0,0-17.103,118.915-13.752,215.125c0,0,16.958,4.803,22.354,1.201
							c4.625-22.815,5.49-67.02,12.427-100.042c6.532-31.091,13.879-67.867,13.879-67.867l3.365,0.444
							c0,0,18.296,155.975,21.379,167.383c17.729,3.602,23.895-2.402,23.895-2.402s-0.642-182.946-5.586-213.29
							C175.473,188.296,103.99,227.501,103.99,227.501z"/>
						<path style="opacity:0.2;fill:#001C28;" d="M99.132,266.769c-4.771,43.013-11.046,114.11-8.895,175.857
							c0,0,16.958,4.803,22.354,1.201c4.625-22.815,5.49-67.02,12.427-100.042c6.106-29.065,12.924-63.095,13.787-67.407
							C124.881,274.754,111.412,271.857,99.132,266.769z"/>
					</g>
					<path style="fill:#FF621D;" d="M102.451,240.555c0,0,2.104-64.5,12.097-121l7.889-0.5l-5.26,45l49.44,5.5l7.889-49l6.837,2
						l-4.208,48.5l9.467,35c-0.56,18.073-2.961,43.646-2.63,52C185.026,284.555,102.451,240.555,102.451,240.555z"/>
				</g>
			</g>
			<g>
				<g>
					<g>
						<polygon style="fill:#E8C9C1;" points="167.542,283.406 80.569,273.667 89.235,184.97 176.208,194.709 						"/>
						<polygon style="fill:#FFDCD1;" points="112.05,277.192 80.569,273.667 89.235,184.97 120.716,188.495 						"/>
						<polygon style="fill:#E8C9C1;" points="107.146,202.156 98.609,201.2 99.392,185.936 107.929,186.892 						"/>
					</g>
					<path style="fill:#A04747;" d="M88.308,205.389c0,0-4.252-0.354-4.606,5.315c-0.354,5.669,1.063,10.985,3.543,11.693
						c2.48,0.709,19.843,1.417,0.354-3.189c0,0,26.576,1.417,0-3.189c0,0,29.056,1.417,0-2.835c0,0,24.45,0,0.354-2.835
						L88.308,205.389z"/>
				</g>
				<g>
					<g>
						<path style="fill:#A04747;" d="M213.776,157.434c0,0,20.453,36.304,19.942,49.087c-0.511,12.783-113.514,35.793-72.608,22.498
							c0,0-30.168,4.602-1.534-3.068c0,0-29.657,3.579-1.023-4.091c0,0-28.634,2.045,2.557-3.068c0,0-14.317-14.317,5.113-1.023
							l39.372-21.476c0,0-16.874-31.191-17.896-34.259C186.676,158.968,205.083,139.538,213.776,157.434z"/>
						<path style="fill:#873D3D;" d="M198.705,183.461c7.555-5.439,14.445-11.576,18.698-19.322
							c-2.146-4.074-3.627-6.705-3.627-6.705c-8.693-17.896-27.1,1.534-26.078,4.602
							C188.276,163.769,193.91,174.472,198.705,183.461z"/>
					</g>
					<path style="fill:#25283F;" d="M205.259,133.724c-2.281-2.892-14.441-7.202-23.186-10.038
						c-0.497,8.276,1.418,17.271,0.72,25.533c-0.128,1.515-0.243,3.026-0.347,4.538c0.157,0.144,0.314,0.294,0.472,0.421
						c2.498,2.009,4.456,16.458,8.359,21.663c11.964-4.446,20.017-10.736,26.589-17.896
						C215.108,151.447,206.779,135.651,205.259,133.724z"/>
				</g>
			</g>
		</g>
	</g>
</g>
</svg>
