<svg xmlns="http://www.w3.org/2000/svg" width="4000" height="2666.667"><path d="M2570.92 311.71s306.01 328.56 51.75 684.26c-225.59 315.61-488.61 294.04-681.58 165.96-82.19-54.55-319.16-6.72-520.84 314.42-275.04 437.95-1228.444 172.34-1054.61-501.46 84.124-326.07-256.021-337.93-82.704-663.87l2287.984.69" style="fill:#e8e8e8;fill-opacity:1;fill-rule:nonzero;stroke:none;stroke-width:.1" transform="matrix(1.33333 0 0 -1.33333 0 2666.667)"/><path d="M1872.27 1288.76h-658.26v285.16h658.26v-285.16m0-320h-187.54l-.5 163.64-183.56-.56v-.07l-55.08-.21v-.01h-.37l.12-51.76.38-.28.28-110.75h-231.99v285.16h658.26V968.76m0-320h-64.3l-.5 265.57-183.56-.56v-.07l-55.08-.22h-.37l.12-51.76.33-.25.33-212.59h55.17v-.12H1452.7l-.45 163.64-183.56-.56v-.08l-54.68-.21v122.37h658.26V648.76m-511.29.14.64-.14h-.64v.14m511.29-158.31-181.93-.56v-.07l-55.08-.21v-.01h-.38l.13-51.76.38-.28.27-108.95h-421.65v285.16h658.26V490.59m-658.26 160.49.01-2.32h-.01v2.32m673.88 937.85h-55.65l-.32 105.04-118.95-.37v-.04l-35.68-.14h-.25l.08-33.54.25-.19.17-70.76H1198.4V312.39h689.49v-.45h93.71v1276.99h-93.71" style="fill:#424242;fill-opacity:1;fill-rule:nonzero;stroke:none;stroke-width:.1" transform="matrix(1.33333 0 0 -1.33333 0 2666.667)"/><path d="m1385.97 565.74-285.67.88-.78-253.36 285.67-.88.78 253.36" style="fill:#d3671e;fill-opacity:1;fill-rule:nonzero;stroke:none;stroke-width:.1" transform="matrix(1.33333 0 0 -1.33333 0 2666.667)"/><path d="m1471.68 565.3-228.7.88-.62-253.36 228.7-.88.62 253.36" style="fill:#f1a34f;fill-opacity:1;fill-rule:nonzero;stroke:none;stroke-width:.1" transform="matrix(1.33333 0 0 -1.33333 0 2666.667)"/><path d="m1471.65 565.3-85.68.33v.04l85.68-.33v-.04m-178.16.72-51.13.16v.04l51.13-.2" style="fill:#d9d9b5;fill-opacity:1;fill-rule:nonzero;stroke:none;stroke-width:.1" transform="matrix(1.33333 0 0 -1.33333 0 2666.667)"/><path d="m1241.73 312.86.63 253.32 51.13-.16 92.48-.35v-.04l-142.99.55-.62-252.85-.63-.47" style="fill:#d5671a;fill-opacity:1;fill-rule:nonzero;stroke:none;stroke-width:.1" transform="matrix(1.33333 0 0 -1.33333 0 2666.667)"/><path d="m1242.36 313.33.62 252.85 142.99-.55 85.68-.33-.2-80.52-229.09-171.45" style="fill:#e78b37;fill-opacity:1;fill-rule:nonzero;stroke:none;stroke-width:.1" transform="matrix(1.33333 0 0 -1.33333 0 2666.667)"/><path d="m1109.45 475.19-183.557.57-.501-162.8 183.558-.57.5 162.8" style="fill:#d3671e;fill-opacity:1;fill-rule:nonzero;stroke:none;stroke-width:.1" transform="matrix(1.33333 0 0 -1.33333 0 2666.667)"/><path d="m1164.53 474.91-146.96.56-.4-162.79 146.96-.57.4 162.8" style="fill:#f1a34f;fill-opacity:1;fill-rule:nonzero;stroke:none;stroke-width:.1" transform="matrix(1.33333 0 0 -1.33333 0 2666.667)"/><path d="m1164.4 422.86.13 52.05h.38l-.13-51.76-.38-.29" style="fill:#d5671a;fill-opacity:1;fill-rule:nonzero;stroke:none;stroke-width:.1" transform="matrix(1.33333 0 0 -1.33333 0 2666.667)"/><path d="m1017.17 312.68.4 162.79 146.96-.56-.13-52.05-147.23-110.18" style="fill:#e78b37;fill-opacity:1;fill-rule:nonzero;stroke:none;stroke-width:.1" transform="matrix(1.33333 0 0 -1.33333 0 2666.667)"/><path d="M1697.44 399.02c-.7 8.46-2.51 16.51-5.22 23.96a89.47 89.47 0 0 1-2.96 7.17c-.52 1.11-1.07 2.21-1.63 3.28-.61 1.18-1.25 2.34-1.92 3.48-3.27 5.58-7.1 10.63-11.41 14.99l-.05.05a71.796 71.796 0 0 1-4.74 4.35 65.818 65.818 0 0 1-3.93 3 61.31 61.31 0 0 1-5.93 3.73c-.76.41-1.52.81-2.29 1.2-6.48 3.19-13.46 5.15-20.77 5.61-1.1.07-2.21.1-3.32.1h-30c-35.62 0-64.5-35.37-64.5-79s28.88-79 64.5-79h30c1.11 0 2.22.04 3.32.1 7.31.46 14.29 2.42 20.77 5.62.77.38 1.53.78 2.29 1.2a59.33 59.33 0 0 1 5.93 3.72c1.34.95 2.65 1.94 3.93 3.01a66.69 66.69 0 0 1 4.74 4.35l.05.04c4.31 4.36 8.14 9.41 11.41 14.99.67 1.14 1.31 2.3 1.92 3.48.56 1.08 1.11 2.17 1.63 3.28a89.47 89.47 0 0 1 2.96 7.17c2.71 7.45 4.52 15.51 5.22 23.96.22 2.66.33 5.35.33 8.08 0 2.73-.11 5.42-.33 8.08" style="fill:#525252;fill-opacity:1;fill-rule:nonzero;stroke:none;stroke-width:.1" transform="matrix(1.33333 0 0 -1.33333 0 2666.667)"/><path d="M1045.9 1134.38c-.42-1.04-1.47-1.6-2.35-1.25-.87.36-1.23 1.49-.81 2.54.43 1.04 1.48 1.6 2.35 1.25.88-.36 1.24-1.49.81-2.54zm18.46-.95h-15.12c1.08 3.08-.02 6.32-2.57 7.36-2.66 1.08-5.86-.63-7.15-3.81a7.06 7.06 0 0 1-.49-3.55h-14.79c-.52 0-1.01-.22-1.36-.62l-4.88-5.65c-1.01-1.17-.19-2.98 1.35-2.98h40.13c.52 0 1.01.23 1.36.63l4.88 5.65c1.01 1.16.18 2.97-1.36 2.97" style="fill:#ffa412;fill-opacity:1;fill-rule:nonzero;stroke:none;stroke-width:.1" transform="matrix(1.33333 0 0 -1.33333 0 2666.667)"/><path d="m777.484 1543.27-48.694-38.16c-2.285-3.57 2.611-3.76.472-8.15-19.785-40.62-6.513-84.05 10.237-79.66 10.743 2.81 13.781-15.52 13.781-15.52l104.368 84.49s-38.334 79.32-80.164 57" style="fill:#2c3a64;fill-opacity:1;fill-rule:nonzero;stroke:none;stroke-width:.1" transform="matrix(1.33333 0 0 -1.33333 0 2666.667)"/><path d="m813.822 346.74-22.169-8.26s-96.289 133.55-108.144 251.05c-2.117 20.97-1.411 41.3 3.167 60.07 0 0-.94 5.37-2.587 14.88-.761 4.43-1.701 9.77-2.769 15.89-3.132 17.93-7.44 42.48-12.363 70.42-11.33 64.31-26.009 146.51-37.41 206.95l5.973 1.92 64.632 20.84 13.356 42.43 48.126 12.67s10.751-21.03 20.361-120.38a749.085 749.085 0 0 0 4.598-42.98c3.747-47.57 4.017-106.57-4.579-174.03a912.61 912.61 0 0 0-8.453-53.41c-2.534-13.43-2.914-31.72-1.846-52.74 4.851-96.05 40.107-245.32 40.107-245.32" style="fill:#727273;fill-opacity:1;fill-rule:nonzero;stroke:none;stroke-width:.1" transform="matrix(1.33333 0 0 -1.33333 0 2666.667)"/><path d="M788.593 872.24 684.089 664.48c-.761 4.43-1.701 9.77-2.769 15.89-3.132 17.93-7.44 42.48-12.363 70.42-11.33 64.31-26.009 146.51-37.41 206.95l5.973 1.92 64.632 20.84 13.356 42.43 48.126 12.67s10.751-21.03 20.361-120.38a749.085 749.085 0 0 0 4.598-42.98" style="fill:#525252;fill-opacity:1;fill-rule:nonzero;stroke:none;stroke-width:.1" transform="matrix(1.33333 0 0 -1.33333 0 2666.667)"/><path d="m742.619 1008.94-2.419 20.74c-40.531-10.76-148.823 30.09-148.823 30.09s-39.264-34.52-34.109-117.25c2.516-40.39 7.113-211.98 11.913-262.76 1.735-18.4 3.255-31.49 3.875-36.73l.012-.05c.191-1.59-.366-3.1-1.177-4.49-7.067-12-12.919-24.49-17.719-37.27-47.117-125.55 7.257-280.18 7.257-280.18l14.11 5.69s30.941 172.08 56.084 248.1c4.268 12.89 8.359 23.02 12.109 29.08 10.929 17.64 21.075 46.47 30.283 80.76 17.403 64.82 31.41 149.15 40.733 214.24 1.286-.06 27.871 110.03 27.871 110.03" style="fill:#727273;fill-opacity:1;fill-rule:nonzero;stroke:none;stroke-width:.1" transform="matrix(1.33333 0 0 -1.33333 0 2666.667)"/><path d="M1061.93 1035.44c-8.72-7.72-31.88 18.79-35.07 22.31-.16.34-.33.51-.33.51l7.05 19.63s30.36 1.17 35.39-3.86c5.04-5.04 2.52-30.37-7.04-38.59" style="fill:#ed985f;fill-opacity:1;fill-rule:nonzero;stroke:none;stroke-width:.1" transform="matrix(1.33333 0 0 -1.33333 0 2666.667)"/><path d="m1033.58 1077.89-3.02-20.31s-1.35 0-3.7.17c-7.38.51-25.33 1.51-45.628 3.69-30.533 3.02-66.772 8.39-81.2 17.28-21.976 13.42-58.047 54.53-81.534 95.63-.672 1.01-1.174 2.01-1.678 3.02-12.247 21.81-20.803 43.45-21.473 60.73-.504 10.57.67 19.63 2.851 27.52 2.851 10.4 7.55 18.62 12.415 24.82.672 1.01 1.342 2.02 2.349 2.86 8.053 9.56 15.938 13.59 15.938 13.59 4.026 1.67 8.388-.34 12.917-5.2v-.17c3.691-3.86 7.718-9.73 11.576-17.12.168-.16.336-.33.336-.5.839-1.51 1.678-3.19 2.685-5.03.334-.34.502-.84.67-1.18 1.846-3.85 3.69-7.88 5.537-12.07 20.635-44.97 42.613-113.08 60.9-133.38 7.884-8.72 43.956-25.83 72.642-38.59 20.637-9.06 37.417-15.76 37.417-15.76" style="fill:#ed985f;fill-opacity:1;fill-rule:nonzero;stroke:none;stroke-width:.1" transform="matrix(1.33333 0 0 -1.33333 0 2666.667)"/><path d="M820.049 1260.57c-12.724-5.9-28.091-9.92-46.678-10.93-69.681-3.82-85.5 57.26-88.378 97.8 10.045 3.64 18.841 3.3 23.909 3.03 4.941-.28 10.1-.78 14.352-1.31 8.526 4.46 23.837 26.08 32.687 62.27l3.005-1.4 50.279-23.64s-5.338-16.36-9.284-32.01c-3.077-12.26-5.286-24.09-3.439-27.4 3.964-1.62 6.335-2.63 6.335-2.63l.017-.06c.507-1.28 11.438-29.13 17.195-63.72" style="fill:#ffb27d;fill-opacity:1;fill-rule:nonzero;stroke:none;stroke-width:.1" transform="matrix(1.33333 0 0 -1.33333 0 2666.667)"/><path d="M837.479 1214.85a67.516 67.516 0 0 0-1.739-4.14c-17.645-38.01-50.316-195.46-50.316-195.46 4.652-28.3-212.736 5.56-213.297 31.33-7.656 27.33 27.167 71.24 46.806 93.27a62.826 62.826 0 0 1 6.588 8.87 61.79 61.79 0 0 1 8.904 25.99c3.856 36.53 2.388 70.77 2.714 91.59v.01c3.838 2.84 7.549 5.46 11.005 7.96 5.284 3.86 9.955 7.46 13.394 11.11 3.782 3.99 6.153 8.06 6.423 12.65.2 3.48.092 7.05-.27 10.61-.164 1.68-.38 3.37-.634 5.05-2.715 17.68-10.099 33.72-10.099 33.72 18.696 7.56 51.944 3.06 51.944 3.06s-.036-1.85-.054-4.87c-.109-12.15 0-43.33 3.891-49.23 4.869-7.35 93.933-39.55 98.641-29.58 4.632 9.82-8.055 55.77-8.526 57.5l-.017.06c29.826-11.71 40.487-21.54 40.487-21.54-17.973-11.65 8.054-51.09-5.845-87.96" style="fill:#d8d9db;fill-opacity:1;fill-rule:nonzero;stroke:none;stroke-width:.1" transform="matrix(1.33333 0 0 -1.33333 0 2666.667)"/><path d="M809.226 1386.38s-5.346-16.34-9.284-32.01c-29.388 8.2-38.313 39.09-41 55.65l50.284-23.64" style="fill:#ed985f;fill-opacity:1;fill-rule:nonzero;stroke:none;stroke-width:.1" transform="matrix(1.33333 0 0 -1.33333 0 2666.667)"/><path d="M815.416 1369.08s-70.313 16.27-59.505 59.9c10.807 43.63 9.011 75.12 54.36 66.57 45.351-8.54 49.916-27.34 49.85-42.79-.066-15.44-26.137-86.79-44.705-83.68" style="fill:#ffb27d;fill-opacity:1;fill-rule:nonzero;stroke:none;stroke-width:.1" transform="matrix(1.33333 0 0 -1.33333 0 2666.667)"/><path d="M864.075 1477.54c-7.558 15.81-16.455 14.97-22.02 12.16-33.038 30.57-83.113 15.21-83.113 15.21-12.473-30.13-21.836-52.06-21.836-52.06s10.801-11.06 42.109-10.81c9.562.07 19.178 4.46 27.927 10.51-16.875-16.99-36.662-27.34-36.662-27.34 39.189 7.5 65.469 52.87 68.161 57.69 3.319-4.91 9.67-15.34 10.205-24.15.726-11.98-3.394-35.24 3.464-36.12 0 0 23.101 31.19 11.765 54.91" style="fill:#2c3a64;fill-opacity:1;fill-rule:nonzero;stroke:none;stroke-width:.1" transform="matrix(1.33333 0 0 -1.33333 0 2666.667)"/><path d="M843.331 1302.82s16.93-29.53 19.462-37.13c0 0-21.953.84-30.818-16.05 0 0-2.126 49.2 11.356 53.18" style="fill:#d8d9db;fill-opacity:1;fill-rule:nonzero;stroke:none;stroke-width:.1" transform="matrix(1.33333 0 0 -1.33333 0 2666.667)"/><path d="M726.893 1068.16c-42.877.45-79.184 44.97-101.372 80.56a61.79 61.79 0 0 1 8.904 25.99c3.856 36.53 2.388 70.77 2.714 91.59v.01c3.838 2.84 7.549 5.46 11.005 7.96 5.284 3.86 9.955 7.46 13.394 11.11 35.11-59.34 123.489-217.84 65.355-217.22" style="fill:#b0b0b0;fill-opacity:1;fill-rule:nonzero;stroke:none;stroke-width:.1" transform="matrix(1.33333 0 0 -1.33333 0 2666.667)"/><path d="M643.462 309.52H531.806s-2.676 17.02 3.155 29.93c5.59 12.38 14.343 18.01 12.247 33 7.095-7.3 18.658-15.48 34.8-13.31 1.978-3.21 12.766-20.37 19.374-25.11 7.296-5.25 39.833-3.38 42.08-24.51M883.2 309.52H771.545s-4.173 17.81 3.157 29.93c6.488 10.72 4 16.83-.806 25.7 5.059-2.07 11.603-3.96 18.807-3.55 5.563.32 11.446 2.85 16.605 5.85 4.805-5.48 25.383-28.8 31.813-33.42 7.296-5.25 39.832-3.38 42.079-24.51M987.012 1129.31 878.369 987.98l1.611-1.97 110.186 141.59-3.154 1.71" style="fill:#525252;fill-opacity:1;fill-rule:nonzero;stroke:none;stroke-width:.1" transform="matrix(1.33333 0 0 -1.33333 0 2666.667)"/><path d="M989.955 1127.33h110.255L984.795 986.01H879.98l109.975 141.32" style="fill:#727273;fill-opacity:1;fill-rule:nonzero;stroke:none;stroke-width:.1" transform="matrix(1.33333 0 0 -1.33333 0 2666.667)"/><path d="M967.277 1041.57c-.306 5.62-7.723 5.37-13.356 5.39-9.24.05-23.816.68-32.247 3.91 0 0 26.925.39 21.203 8.9-1.043 1.54-14.426.37-29.369.37-6.127 0-21.273-8.4-20.491-8.79-10.827 1.43-20.671 3.53-23.853 4.22-7.383 4.03-16.274 8.89-25.668 14.26-22.649 12.75-48.653 28.35-66.436 41.27-10.234 7.38-17.952 13.93-20.635 18.62-4.195 7.22-8.893 18.63-14.093 32.72-2.684 7.38-5.537 15.43-8.389 23.99-5.033 14.09-10.066 29.36-15.267 44.62-9.394 27.85-19.461 55.87-29.023 77.51-6.206 13.59-12.247 24.83-17.951 31.71-4.53 5.54-8.892 8.39-13.086 7.72-.671-.17-1.175-.34-1.678-.5 0 0-24.158-6.71-24.494-55.37-.168-2.68 0-5.53.168-8.55.336-8.56 2.013-18.96 4.53-30.37 4.026-19.12 10.737-41.27 19.125-63.75 2.349-6.04 4.697-12.25 7.214-18.46 18.119-44.96 41.439-86.9 61.067-101.16.84-.67 1.51-1.17 2.348-1.68 8.221-5.2 20.301-10.4 34.225-15.26 19.796-6.72 43.284-12.75 64.255-17.79h.168c12.247-2.68 23.488-5.2 32.882-7.04 0 0 1.542-.39 4.287-.93.393-.08.809-.16 1.249-.25 8.893-2.18 27.178-6.88 44.459-13.59 24.16-9.56 41.931 2.33 49.994 10.74 5.112 5.33 9.142 12.41 8.862 17.54" style="fill:#ffb27d;fill-opacity:1;fill-rule:nonzero;stroke:none;stroke-width:.1" transform="matrix(1.33333 0 0 -1.33333 0 2666.667)"/><path d="M689.594 1308.49c-32.298 8.91-57.212-16.31-57.212-16.31.406 48.57 24.585 55.22 24.585 55.22 9.727 4.03 30.295-6.84 32.627-38.91" style="fill:#d8d9db;fill-opacity:1;fill-rule:nonzero;stroke:none;stroke-width:.1" transform="matrix(1.33333 0 0 -1.33333 0 2666.667)"/><path d="M821.582 1567.7c-16.001 3.66-29.543 3.39-40.981.58a69.998 69.998 0 0 1-3.351-.91l-.016-.01c-43.681-13.06-54.679-63.66-54.679-63.66s-1.828-13.27-1.365-19.02c.464-5.74 42.074-20.58 48.379-13.19 6.305 7.38 18.502 12.19 18.502 12.19s42.592-18.13 45.462-19.34c9.64-4.06 40.873-8.35 40.873-8.35 1.025 2.76 28.256 93.15-52.824 111.71" style="fill:#ffa412;fill-opacity:1;fill-rule:nonzero;stroke:none;stroke-width:.1" transform="matrix(1.33333 0 0 -1.33333 0 2666.667)"/><path d="M903.238 1452.32c-4.322 3.72-12.056 9.35-25.667 16.92 0 0-16.561-3.71-43.461.73-3.899 19.26-18.067 68.09-53.509 98.31-.106.09-.201.18-.307.27-1.408-.64-2.078-.76-3.044-1.18l-.016-.01a8.83 8.83 0 0 1-.981-.48c29.943-22.46 42.378-75.27 46.06-94.55-10.35 2.42-21.842 6.03-34.242 11.35 0 0 31.711-33.77 112.926-37.41 3.174-.14 4.649 3.98 2.241 6.05" style="fill:#e27f2b;fill-opacity:1;fill-rule:nonzero;stroke:none;stroke-width:.1" transform="matrix(1.33333 0 0 -1.33333 0 2666.667)"/><path d="M987.012 1129.31h110.878l2.32-1.98H989.955l-2.943 1.98" style="fill:#525252;fill-opacity:1;fill-rule:nonzero;stroke:none;stroke-width:.1" transform="matrix(1.33333 0 0 -1.33333 0 2666.667)"/><path d="M1822.76 462.94h-199.65c-3.94 0-7.13 3.36-7.13 7.5 0 4.14 3.19 7.5 7.13 7.5h199.65c3.94 0 7.14-3.36 7.14-7.5 0-4.14-3.2-7.5-7.14-7.5M1824.75 693.94h-203.62c-4.02 0-7.28 3.36-7.28 7.5 0 4.14 3.26 7.5 7.28 7.5h203.62c4.01 0 7.27-3.36 7.27-7.5 0-4.14-3.26-7.5-7.27-7.5" style="fill:#727273;fill-opacity:1;fill-rule:nonzero;stroke:none;stroke-width:.1" transform="matrix(1.33333 0 0 -1.33333 0 2666.667)"/><path d="M1950.87 1038.09c12.08-2.79 66.66-3.45 105 5.16 7.99 1.79 15.29 3.98 21.33 6.65 7.22 3.18 12.66 7.03 15.44 11.66 4.33 7.22 12.26 31.93 21.58 64.33 25.67 89.25 61.79 236.72 61.79 236.72s-72.53-14.8-87.88-27.44c-15.36-12.64-28.91-213.1-43.34-218.52-2.13-.8-5.8-2.48-10.5-4.79-.23-.11-.46-.23-.69-.34-2.81-1.38-5.96-2.98-9.38-4.74-29.94-15.39-79.5-43.12-84.64-49.28-6.77-8.13-6.32-15.35 11.29-19.41" style="fill:#d8d9db;fill-opacity:1;fill-rule:nonzero;stroke:none;stroke-width:.1" transform="matrix(1.33333 0 0 -1.33333 0 2666.667)"/><path d="M2090.04 1248.48c0 3.42.34 6.83.96 10.26 9.33 51.32 83.55 103.87 85.01 103.87l.01-1.07c0-7.84 12.37-22.32 31.41-23.56 22.6-1.48 50.48 11.41 50.48 24.42.14 0 12.7-1.7 16.95-2.17 18.11-2.06 54.25-11.84 69.73-23.54 14.72-11.12-6.08-81.25-18.96-130.9-5.46-21.01-9.48-38.35-8.82-46.03.32-3.75 3.7-54.72 6.7-100.82 2.5-38.04 4.74-72.75 4.81-74.94.16-4.32-21.32-19.45-57.39-30.88-8.71-2.76-18.28-5.31-28.61-7.42-18.51-3.81-39.45-6.26-62.23-6.18-7.45.03-14.51.41-21.17 1.07-51.53 5.06-69.18 63.77-68.88 307.89" style="fill:#d8d9db;fill-opacity:1;fill-rule:nonzero;stroke:none;stroke-width:.1" transform="matrix(1.33333 0 0 -1.33333 0 2666.667)"/><path d="M2257.89 1363.01c.44 19.93.11 43.73-2.58 63.84l-79.56-13.01s-.09-24.28.26-51.23c-.05 0-2.16-24.99 28.62-28.64 30.78-3.66 54.09 9.75 53.26 29.04" style="fill:#e6b389;fill-opacity:1;fill-rule:nonzero;stroke:none;stroke-width:.1" transform="matrix(1.33333 0 0 -1.33333 0 2666.667)"/><path d="M2191.33 309.52c10.01 6.15 4.13 51.78 4.13 51.78s-46.86 37.2-53.17 8.56c-6.32-28.64-44.23-41.62-65.82-45.21-14.91-2.48-20.41-10.18-21.82-15.08l136.68-.05" style="fill:#525252;fill-opacity:1;fill-rule:nonzero;stroke:none;stroke-width:.1" transform="matrix(1.33333 0 0 -1.33333 0 2666.667)"/><path d="M2264.21 1094.07c0-76.3 36.98-55.74 59.3-35.13-3 46.1-5.12 209.41-5.12 209.41s-54.18-65.01-54.18-174.28M2024.22 1106.78c1.48-10.7 18.39-41.86 31.65-63.53 7.99 1.79 15.29 3.98 21.33 6.65 7.22 3.18 12.66 7.03 15.44 11.66 4.33 7.22 12.26 31.93 21.58 64.33-6.9 39.87-13.45 79.25-13.45 79.25l-2.03 26.41c0-2.03-30.93-118.07-44.93-120.78-8.44-1.64-14.43.35-19.52 1.09-.23-.11-.46-.23-.69-.34-2.81-1.38-5.96-2.98-9.38-4.74" style="fill:#b0b0b0;fill-opacity:1;fill-rule:nonzero;stroke:none;stroke-width:.1" transform="matrix(1.33333 0 0 -1.33333 0 2666.667)"/><path d="M2334.91 309.52c10 6.15 4.13 51.78 4.13 51.78s-46.86 37.2-53.18 8.56c-6.31-28.64-44.22-41.62-65.82-45.21-14.9-2.48-20.32-10.18-21.73-15.08l136.6-.05M2265.47 1449.79s53.11 83.74-48.87 89.29c0 0-38.25-4.51-46.91 4.15 0 0-29.67-45.09-1.97-93.44 27.71-48.34 97.75 0 97.75 0" style="fill:#525252;fill-opacity:1;fill-rule:nonzero;stroke:none;stroke-width:.1" transform="matrix(1.33333 0 0 -1.33333 0 2666.667)"/><path d="M2178.11 1406.09c7.73-6.08 30.39-12.12 36.95-12.83 0 0 33.61 7.5 39.72 11.18 9.46 5.74 8.85 17.35 9.34 33.49.58 19.11 2.51 34.11.37 45.13-2.53 13.17-10.89 20.67-34.28 22.71-42.93 3.72-60.82-7.03-61.57-21.42-.19-3.87-.37-7.55-.5-11.04-1.71-44.9 1.83-60.82 9.97-67.22" style="fill:#e6b389;fill-opacity:1;fill-rule:nonzero;stroke:none;stroke-width:.1" transform="matrix(1.33333 0 0 -1.33333 0 2666.667)"/><path d="M2167.76 1458.59c.41-26.01 7.43-41.4 12.51-43.35 5.85-2.23 12.73-4.09 19.91-5.32 2.42-.28 4.74-.2 4.71 1.17-.08 4.1-5.56 9.16-1.48 12.79 4.27 3.81 27.2 5.1 29.05-3.22.9-4.05-6.5-11.21-1.43-11.37 1.54.26 3.05.55 4.49.93 8.35 2.18 14.9 6.13 17.66 7.8 9.46 5.73 8.84 14.53 10.94 30.54 1.35 10.36 1.35 4.74 0-10.63-1.42-16.09 1.35-26.41-9.34-33.49-5.95-3.93-40.22-19.33-40.22-19.33.5 8.15-28.72 14.9-36.45 20.98-7.18 5.64-10.78 18.69-10.35 52.5" style="fill:#525252;fill-opacity:1;fill-rule:nonzero;stroke:none;stroke-width:.1" transform="matrix(1.33333 0 0 -1.33333 0 2666.667)"/><path d="M2328.32 984.01c.16-4.32-21.32-19.45-57.39-30.89-2.91-.92-5.92-1.81-9.01-2.67l-.07-.09c-3.37-39.48-12.48-95.25-20.69-149.07v-.02a4083.48 4083.48 0 0 1-6.09-41.13c-5.01-35.38-8.76-67.62-9.17-90.82v-.25c-.17-10.64 8.81-37.2 9.48-43.34.42-3.75.76-7.72 1.01-11.88.97-16.62.58-36.26-.76-57.23-5.89-91.5-30.07-208.59-38.7-213.57-17.15-9.92-48.35.01-64.22 2.33-6.56.97-11.82 6.57-11.48 13.19 7.75 151.87-14.51 363.37-31.14 493.39-.44 3.38-.87 6.7-1.29 9.97-1.99 15.33-3.3 29.65-4.13 42.56-.76 11.32-1.12 21.6-1.29 30.51-.04 2.78-.06 5.43-.08 7.94-.04 8.14 6.44 61.43 6.73 305.55.01 5.64 4.63 10.25 10.27 10.25h149.28c14.43 0 26.04-11.81 25.86-26.23-.23-18.62.44-44.63 4.48-69.44 5.51-33.9 17.31-65.56 41.66-73.18l.06-.05c.11-.25.78-1.73 1.85-4.2l.01-.04c.23-6.13.48-12.37.77-18.72.05-1.28.11-2.56.17-3.85.03-.76.07-1.5.11-2.26.06-1.29.12-2.59.19-3.89.1-2.14.2-4.29.33-6.48.09-1.7.18-3.41.28-5.13.18-3.3.38-6.65.6-10.02.05-1.09.12-2.16.2-3.25.28-4.36.58-8.79.92-13.25.1-1.37.2-2.74.31-4.12.04-.66.1-1.32.15-1.99.14-1.75.27-3.49.42-5.25.15-1.86.31-3.73.47-5.61.6-6.86-.28-12.96-.1-17.77" style="fill:#727273;fill-opacity:1;fill-rule:nonzero;stroke:none;stroke-width:.1" transform="matrix(1.33333 0 0 -1.33333 0 2666.667)"/><path d="M2235.63 556.62c-5.89-91.5-30.07-208.59-38.7-213.57-17.15-9.92-48.35.01-64.22 2.33-6.56.97-11.82 6.57-11.48 13.19 7.75 151.87-14.51 363.37-31.14 493.39-.44 3.38-.87 6.7-1.29 9.97-1.99 15.33-3.3 29.65-4.13 42.56 7.91 51.55 52.55 54.31 93.04-52.33-5.01-35.38 59.26-274.57 57.92-295.54" style="fill:#525252;fill-opacity:1;fill-rule:nonzero;stroke:none;stroke-width:.1" transform="matrix(1.33333 0 0 -1.33333 0 2666.667)"/><path d="M2329.99 673.62c1.23-10.58 13.61-35.73 15.09-41.72 20.47-82.31 9.17-277.49-.98-285.29-15.7-12.08-47.95-6.34-63.97-6.12-6.64.09-12.58 4.96-13.12 11.56-12.58 155.51-64.73 369.09-98.27 494.74-16.88 63.29-19.28 109.82-19.28 109.82s156.74 96.03 173.69 43.57c15.01-46.42-2.61-245.33 6.84-326.56" style="fill:#727273;fill-opacity:1;fill-rule:nonzero;stroke:none;stroke-width:.1" transform="matrix(1.33333 0 0 -1.33333 0 2666.667)"/><path d="M2170.35 1562.49a54.54 54.54 0 0 0 3.44 3.54c5.11 4.86 11.27 9.05 18.67 12.14 27.33 11.4 50 .87 64.16-9.9 1.4-1.05 2.71-2.12 3.93-3.17 7.7-6.54 12-12.38 12-12.38s13.27-18.11 12.83-56.28l-136.72-1.46s-2 41.23 21.69 67.51" style="fill:#ffa412;fill-opacity:1;fill-rule:nonzero;stroke:none;stroke-width:.1" transform="matrix(1.33333 0 0 -1.33333 0 2666.667)"/><path d="m2247.01 1496.05-7.51-.09c-.15 2.18.22 51.8 18.72 71.06 1.4-1.05 1.11-.87 2.33-1.92-17.58-16.96-13.57-68.54-13.54-69.05" style="fill:#e27f2b;fill-opacity:1;fill-rule:nonzero;stroke:none;stroke-width:.1" transform="matrix(1.33333 0 0 -1.33333 0 2666.667)"/><path d="M2187.6 1495.4c-1.56 30.38-13.19 62.3-16.33 67.97 1.08 1.25 1.31 1.48 2.52 2.66 2.18-3.75 20.01-36.81 21.89-70.55l89.7.96s-45.45-10.19-72.88-10.53c-27.42-.34-63.84 9.07-63.84 9.07l38.94.42" style="fill:#e27f2b;fill-opacity:1;fill-rule:nonzero;stroke:none;stroke-width:.1" transform="matrix(1.33333 0 0 -1.33333 0 2666.667)"/><path d="M2280.23 1359.5s-46.2-53.81-48.9-100.77l23.53-1.24s5.93 52.29 40.69 98.8c0 0-5.44 1.31-7.25 1.67-2.42.48-8.07 1.54-8.07 1.54M2165.06 1360.24c-33.09-50.07-36.64-102.52-36.64-102.52l-23.75.41c1.95 36.91 25.14 77.51 37.94 96.74 0 0 16.43 4.15 22.45 5.37" style="fill:#727273;fill-opacity:1;fill-rule:nonzero;stroke:none;stroke-width:.1" transform="matrix(1.33333 0 0 -1.33333 0 2666.667)"/><path d="M2317.2 1070.63c-1.16-55.11 5.7-164.83 5.7-164.83h32.51c15.35 77.2 20.77 126.87 20.77 153.96 0 5.34-.03 10.31-.07 14.9-.2 23.13-.83 36.57-.83 36.57 6.1 140.18-21.9 215.14-30.69 225.46-8.8 10.32-49.03 19.6-49.03 19.6s-13.29-38.73-18.71-69.88c-5.42-31.15 42.61-162.05 40.64-206.79-.13-2.79-.22-5.8-.29-8.99" style="fill:#d8d9db;fill-opacity:1;fill-rule:nonzero;stroke:none;stroke-width:.1" transform="matrix(1.33333 0 0 -1.33333 0 2666.667)"/><path d="M2322.9 905.8s-6.86 109.72-5.7 164.83c26 8.38 46.96 6.54 58.91 4.03.04-4.59.07-9.56.07-14.9 0-27.09-5.42-76.76-20.77-153.96 6.77-28.45 6.32-59.15-5.42-64.57-11.73-5.42-50.56 14.9-50.11 23.93.45 9.03 23.02 40.64 23.02 40.64M1878.12 1032.67c3.17 11.62 5.52 18.06 13.52 23.7 11.63 8.2 25.43 5.98 35.71 4.18 7.86-1.38 16.1 1.26 19.55 2.58 18.21 12.14 63.93 37.17 86.7 48.39 15.53-9.01 34.62-26.83 43.6-61.62-35.04-15.46-111.73-15.18-126.33-11.81 0 0-13.52-9.82-23.81-10.73-3.89-.34-8.8.79-13.39 2.33-7.23 2.42-14.98.01-20.18-6.41-4.99-6.18-10.35-6.17-13.05-6.17-4.19 0-4.31 8.24-2.32 15.56" style="fill:#e6b389;fill-opacity:1;fill-rule:nonzero;stroke:none;stroke-width:.1" transform="matrix(1.33333 0 0 -1.33333 0 2666.667)"/><path d="M1835.44 337.61h-242.17c-4.14 0-13.42 3.36-13.42 7.5 0 4.14 31.15 7.5 35.29 7.5h205.3v634.98c0 25.93 21.09 47.02 47.01 47.02h52.49c4.14 0 7.5-3.36 7.5-7.5 0-4.14-3.36-7.5-7.5-7.5h-52.49c-17.65 0-32.01-14.36-32.01-32.02V337.61" style="fill:#727273;fill-opacity:1;fill-rule:nonzero;stroke:none;stroke-width:.1" transform="matrix(1.33333 0 0 -1.33333 0 2666.667)"/><path d="M1625.44 337.61h-175.67c-4.14 0-7.5 3.36-7.5 7.5 0 4.14 3.36 7.5 7.5 7.5h160.67v634.98c0 25.93 21.09 47.02 47.01 47.02h52.49c4.14 0 7.5-3.36 7.5-7.5 0-4.14-3.36-7.5-7.5-7.5h-52.49c-17.65 0-32.01-14.36-32.01-32.02V337.61" style="fill:#727273;fill-opacity:1;fill-rule:nonzero;stroke:none;stroke-width:.1" transform="matrix(1.33333 0 0 -1.33333 0 2666.667)"/><path d="M1823.11 923.94h-200.35c-3.95 0-7.16 3.36-7.16 7.5 0 4.14 3.21 7.5 7.16 7.5h200.35c3.96 0 7.16-3.36 7.16-7.5 0-4.14-3.2-7.5-7.16-7.5" style="fill:#727273;fill-opacity:1;fill-rule:nonzero;stroke:none;stroke-width:.1" transform="matrix(1.33333 0 0 -1.33333 0 2666.667)"/><path d="M1932.27 1014.61h-64.82c-6.9 0-12.5 5.6-12.5 12.5s5.6 12.5 12.5 12.5h64.82c6.9 0 12.5-5.6 12.5-12.5s-5.6-12.5-12.5-12.5" style="fill:#963333;fill-opacity:1;fill-rule:nonzero;stroke:none;stroke-width:.1" transform="matrix(1.33333 0 0 -1.33333 0 2666.667)"/><path d="M1867.45 1034.61c-23.6 0-43.18-17.48-46.51-40.17h15.24c3.15 14.37 15.97 25.17 31.27 25.17 4.14 0 7.5 3.36 7.5 7.5 0 4.14-3.36 7.5-7.5 7.5" style="fill:#727273;fill-opacity:1;fill-rule:nonzero;stroke:none;stroke-width:.1" transform="matrix(1.33333 0 0 -1.33333 0 2666.667)"/><path d="M1722.27 1014.61h-64.82c-6.9 0-12.5 5.6-12.5 12.5s5.6 12.5 12.5 12.5h64.82c6.9 0 12.5-5.6 12.5-12.5s-5.6-12.5-12.5-12.5" style="fill:#963333;fill-opacity:1;fill-rule:nonzero;stroke:none;stroke-width:.1" transform="matrix(1.33333 0 0 -1.33333 0 2666.667)"/><path d="M1657.45 1034.61c-23.6 0-43.18-17.48-46.51-40.17h15.24c3.15 14.37 15.97 25.17 31.27 25.17 4.14 0 7.5 3.36 7.5 7.5 0 4.14-3.36 7.5-7.5 7.5" style="fill:#727273;fill-opacity:1;fill-rule:nonzero;stroke:none;stroke-width:.1" transform="matrix(1.33333 0 0 -1.33333 0 2666.667)"/><path d="m1578.02 574.38 249.61 4.4.69-226.17H1578.7l-.68 221.77" style="fill:#d3671e;fill-opacity:1;fill-rule:nonzero;stroke:none;stroke-width:.1" transform="matrix(1.33333 0 0 -1.33333 0 2666.667)"/><path d="m1503.12 574 199.84.77.55-222.29-199.84.13-.55 221.39" style="fill:#f1a34f;fill-opacity:1;fill-rule:nonzero;stroke:none;stroke-width:.1" transform="matrix(1.33333 0 0 -1.33333 0 2666.667)"/><path d="m1503.3 503.94-.18 70.06.18-70.06" style="fill:#d9d9b5;fill-opacity:1;fill-rule:nonzero;stroke:none;stroke-width:.1" transform="matrix(1.33333 0 0 -1.33333 0 2666.667)"/><path d="M1703.51 352.48 1503.3 503.94l-.18 70.06 34.66.13v-.03l165.18.64.55-222.26" style="fill:#e78b37;fill-opacity:1;fill-rule:nonzero;stroke:none;stroke-width:.1" transform="matrix(1.33333 0 0 -1.33333 0 2666.667)"/><path d="M1852.27 469.94h-30c-35.62 0-64.5-35.37-64.5-79s28.88-79 64.5-79h30c35.62 0 64.5 35.37 64.5 79s-28.88 79-64.5 79" style="fill:#525252;fill-opacity:1;fill-rule:nonzero;stroke:none;stroke-width:.1" transform="matrix(1.33333 0 0 -1.33333 0 2666.667)"/><path d="M1916.77 390.94c0-43.63-28.88-79-64.5-79-35.62 0-64.5 35.37-64.5 79s28.88 79 64.5 79c35.62 0 64.5-35.37 64.5-79" style="fill:#727273;fill-opacity:1;fill-rule:nonzero;stroke:none;stroke-width:.1" transform="matrix(1.33333 0 0 -1.33333 0 2666.667)"/><path d="M1893.09 390.94c0-27.61-18.27-50-40.82-50s-40.82 22.39-40.82 50c0 27.62 18.27 50 40.82 50s40.82-22.38 40.82-50" style="fill:#b0b0b0;fill-opacity:1;fill-rule:nonzero;stroke:none;stroke-width:.1" transform="matrix(1.33333 0 0 -1.33333 0 2666.667)"/><path d="m1622.86 827.9 287.24.88-.79-253.36-285.67-.88-.78 253.36" style="fill:#d3671e;fill-opacity:1;fill-rule:nonzero;stroke:none;stroke-width:.1" transform="matrix(1.33333 0 0 -1.33333 0 2666.667)"/><path d="m1537.15 827.46 228.7.88.63-253.36-228.7-.88-.63 253.36" style="fill:#f1a34f;fill-opacity:1;fill-rule:nonzero;stroke:none;stroke-width:.1" transform="matrix(1.33333 0 0 -1.33333 0 2666.667)"/><path d="m1766.48 574.98-229.13 171.48-.2 81 228.7.88.63-253.36" style="fill:#e78b37;fill-opacity:1;fill-rule:nonzero;stroke:none;stroke-width:.1" transform="matrix(1.33333 0 0 -1.33333 0 2666.667)"/><path d="M1950.87 1038.09s-24.33-16.56-30.77-12.48c-6.43 4.08 4.5 13.33-5.83 16.66-10.33 3.34 36.6-4.18 36.6-4.18" style="fill:#e6b389;fill-opacity:1;fill-rule:nonzero;stroke:none;stroke-width:.1" transform="matrix(1.33333 0 0 -1.33333 0 2666.667)"/><path d="M2811.92 306.03H188.079a2.987 2.987 0 0 0-2.979 2.98v1.02c0 1.64 1.34 2.98 2.979 2.98H2811.92c1.64 0 2.98-1.34 2.98-2.98v-1.02c0-1.64-1.34-2.98-2.98-2.98" style="fill:#2e3552;fill-opacity:1;fill-rule:nonzero;stroke:none;stroke-width:.1" transform="matrix(1.33333 0 0 -1.33333 0 2666.667)"/></svg>