<svg xmlns:inkscape="http://www.inkscape.org/namespaces/inkscape" xmlns:sodipodi="http://sodipodi.sourceforge.net/DTD/sodipodi-0.dtd" xmlns="http://www.w3.org/2000/svg" xmlns:svg="http://www.w3.org/2000/svg" version="1.1" id="svg2" width="4000" height="2666.6667" viewBox="0 0 4000 2666.6667" sodipodi:docname="stock-avanzado.svg" inkscape:version="1.2.1 (9c6d41e410, 2022-07-14)">
  <defs id="defs6" fill="#000000"/>
  <sodipodi:namedview id="namedview4" pagecolor="#ffffff" bordercolor="#000000" borderopacity="0.25" inkscape:showpageshadow="2" inkscape:pageopacity="0.0" inkscape:pagecheckerboard="0" inkscape:deskcolor="#d1d1d1" showgrid="false" inkscape:zoom="0.19256249" inkscape:cx="1687.7638" inkscape:cy="1243.7521" inkscape:window-width="1872" inkscape:window-height="1243" inkscape:window-x="2067" inkscape:window-y="119" inkscape:window-maximized="0" inkscape:current-layer="g10" fill="#000000">
    <inkscape:page x="0" y="0" id="page8" width="4000" height="2666.6667" fill="#000000"/>
  </sodipodi:namedview>
  <g id="g10" inkscape:groupmode="layer" inkscape:label="Page 1" transform="matrix(1.3333333,0,0,-1.3333333,0,2666.6667)">
    <path d="m 2570.92,311.71 c 0,0 306.01,328.56 51.75,684.26 -225.59,315.61 -488.61,294.04 -681.58,165.96 -82.19,-54.55 -319.16,-6.72 -520.84,314.42 C 1145.21,1914.3 191.806,1648.69 365.64,974.89 449.764,648.82 109.619,636.96 282.936,311.02 l 2287.984,0.69" style="fill:#e8e8e8;fill-opacity:1;fill-rule:nonzero;stroke:none;stroke-width:0.1" id="path16"/>
    <path d="m 1872.27,1288.76 h -658.26 v 285.16 h 658.26 v -285.16 m 0,-320 h -187.54 l -0.5,163.64 -183.56,-0.56 v -0.07 l -55.08,-0.21 v -0.01 h -0.37 l 0.12,-51.76 0.38,-0.28 0.28,-110.75 h -231.99 v 285.16 h 658.26 V 968.76 m 0,-320 h -64.3 l -0.5,265.57 -183.56,-0.56 v -0.07 l -55.08,-0.22 v 0 h -0.37 l 0.12,-51.76 0.33,-0.25 0.33,-212.59 h 55.17 v -0.12 h -169.68 -2.03 l -0.45,163.64 -183.56,-0.56 v -0.08 l -54.68,-0.21 v 122.37 h 658.26 V 648.76 m -511.29,0.14 0.64,-0.14 h -0.64 v 0.14 m 511.29,-158.31 -181.93,-0.56 v -0.07 l -55.08,-0.21 v -0.01 h -0.38 l 0.13,-51.76 0.38,-0.28 0.27,-108.95 h -421.65 v 285.16 h 658.26 V 490.59 m -658.26,160.49 0.01,-2.32 h -0.01 v 2.32 m 673.88,937.85 h -55.65 l -0.32,105.04 -118.95,-0.37 v -0.04 l -35.68,-0.14 v 0 h -0.25 l 0.08,-33.54 0.25,-0.19 0.17,-70.76 H 1198.4 V 312.39 h 689.49 v -0.45 h 93.71 v 1276.99 h -93.71" style="fill:#424242;fill-opacity:1;fill-rule:nonzero;stroke:none;stroke-width:0.1" id="path18"/>
    <path d="m 1385.97,565.74 -285.67,0.88 -0.78,-253.36 285.67,-0.88 0.78,253.36" style="fill:#d3671e;fill-opacity:1;fill-rule:nonzero;stroke:none;stroke-width:0.1" id="path20"/>
    <path d="m 1471.68,565.3 -228.7,0.88 -0.62,-253.36 228.7,-0.88 0.62,253.36" style="fill:#f1a34f;fill-opacity:1;fill-rule:nonzero;stroke:none;stroke-width:0.1" id="path22"/>
    <path d="m 1471.65,565.3 -85.68,0.33 v 0.04 l 85.68,-0.33 v -0.04 m -178.16,0.72 -51.13,0.16 v 0.04 l 51.13,-0.2" style="fill:#d9d9b5;fill-opacity:1;fill-rule:nonzero;stroke:none;stroke-width:0.1" id="path24"/>
    <path d="m 1241.73,312.86 0.63,253.32 51.13,-0.16 92.48,-0.35 v -0.04 l -142.99,0.55 -0.62,-252.85 -0.63,-0.47" style="fill:#d5671a;fill-opacity:1;fill-rule:nonzero;stroke:none;stroke-width:0.1" id="path26"/>
    <path d="m 1242.36,313.33 0.62,252.85 142.99,-0.55 85.68,-0.33 -0.2,-80.52 -229.09,-171.45" style="fill:#e78b37;fill-opacity:1;fill-rule:nonzero;stroke:none;stroke-width:0.1" id="path28"/>
    <path d="m 1109.45,475.19 -183.557,0.57 -0.501,-162.8 183.558,-0.57 0.5,162.8" style="fill:#d3671e;fill-opacity:1;fill-rule:nonzero;stroke:none;stroke-width:0.1" id="path30"/>
    <path d="m 1164.53,474.91 -146.96,0.56 -0.4,-162.79 146.96,-0.57 0.4,162.8" style="fill:#f1a34f;fill-opacity:1;fill-rule:nonzero;stroke:none;stroke-width:0.1" id="path32"/>
    <path d="m 1164.4,422.86 0.13,52.05 h 0.38 l -0.13,-51.76 -0.38,-0.29" style="fill:#d5671a;fill-opacity:1;fill-rule:nonzero;stroke:none;stroke-width:0.1" id="path34"/>
    <path d="m 1017.17,312.68 v 0 l 0.4,162.79 146.96,-0.56 -0.13,-52.05 -147.23,-110.18" style="fill:#e78b37;fill-opacity:1;fill-rule:nonzero;stroke:none;stroke-width:0.1" id="path36"/>
    <path d="m 1697.44,399.02 c -0.7,8.46 -2.51,16.51 -5.22,23.96 -0.51,1.42 -1.06,2.82 -1.64,4.19 -0.42,1.01 -0.87,2 -1.32,2.98 -0.52,1.11 -1.07,2.21 -1.63,3.28 -0.61,1.18 -1.25,2.34 -1.92,3.48 -3.27,5.58 -7.1,10.63 -11.41,14.99 l -0.05,0.05 c -1.52,1.53 -3.11,2.98 -4.74,4.35 -1.28,1.06 -2.59,2.05 -3.93,3 -1.92,1.36 -3.89,2.61 -5.93,3.73 -0.76,0.41 -1.52,0.81 -2.29,1.2 -6.48,3.19 -13.46,5.15 -20.77,5.61 -1.1,0.07 -2.21,0.1 -3.32,0.1 h -30 c -35.62,0 -64.5,-35.37 -64.5,-79 0,-43.63 28.88,-79 64.5,-79 h 30 c 1.11,0 2.22,0.04 3.32,0.1 7.31,0.46 14.29,2.42 20.77,5.62 0.77,0.38 1.53,0.78 2.29,1.2 2.04,1.11 4.01,2.36 5.93,3.72 1.34,0.95 2.65,1.94 3.93,3.01 1.63,1.36 3.22,2.81 4.74,4.35 l 0.05,0.04 c 4.31,4.36 8.14,9.41 11.41,14.99 0.67,1.14 1.31,2.3 1.92,3.48 0.56,1.08 1.11,2.17 1.63,3.28 0.45,0.98 0.9,1.97 1.32,2.98 0.58,1.37 1.13,2.77 1.64,4.19 2.71,7.45 4.52,15.51 5.22,23.96 0.22,2.66 0.33,5.35 0.33,8.08 0,2.73 -0.11,5.42 -0.33,8.08" style="fill:#525252;fill-opacity:1;fill-rule:nonzero;stroke:none;stroke-width:0.1" id="path38"/>
    <path d="m 1045.9,1134.38 c -0.42,-1.04 -1.47,-1.6 -2.35,-1.25 -0.87,0.36 -1.23,1.49 -0.81,2.54 0.43,1.04 1.48,1.6 2.35,1.25 0.88,-0.36 1.24,-1.49 0.81,-2.54 z m 18.46,-0.95 h -15.12 c 1.08,3.08 -0.02,6.32 -2.57,7.36 -2.66,1.08 -5.86,-0.63 -7.15,-3.81 -0.49,-1.19 -0.63,-2.42 -0.49,-3.55 h -14.79 c -0.52,0 -1.01,-0.22 -1.36,-0.62 l -4.88,-5.65 c -1.01,-1.17 -0.19,-2.98 1.35,-2.98 h 40.13 c 0.52,0 1.01,0.23 1.36,0.63 l 4.88,5.65 c 1.01,1.16 0.18,2.97 -1.36,2.97" style="fill:#ffa412;fill-opacity:1;fill-rule:nonzero;stroke:none;stroke-width:0.1" id="path40"/>
    <path d="m 777.484,1543.27 -48.694,-38.16 c -2.285,-3.57 2.611,-3.76 0.472,-8.15 -19.785,-40.62 -6.513,-84.05 10.237,-79.66 10.743,2.81 13.781,-15.52 13.781,-15.52 l 104.368,84.49 c 0,0 -38.334,79.32 -80.164,57" style="fill:#2c3a64;fill-opacity:1;fill-rule:nonzero;stroke:none;stroke-width:0.1" id="path42"/>
    <path d="m 813.822,346.74 -22.169,-8.26 c 0,0 -96.289,133.55 -108.144,251.05 -2.117,20.97 -1.411,41.3 3.167,60.07 0,0 -0.94,5.37 -2.587,14.88 -0.761,4.43 -1.701,9.77 -2.769,15.89 -3.132,17.93 -7.44,42.48 -12.363,70.42 -11.33,64.31 -26.009,146.51 -37.41,206.95 l 5.973,1.92 64.632,20.84 13.356,42.43 48.126,12.67 c 0,0 10.751,-21.03 20.361,-120.38 1.775,-13.03 3.385,-27.4 4.598,-42.98 3.747,-47.57 4.017,-106.57 -4.579,-174.03 -2.209,-17.26 -4.995,-35.09 -8.453,-53.41 -2.534,-13.43 -2.914,-31.72 -1.846,-52.74 4.851,-96.05 40.107,-245.32 40.107,-245.32" style="fill:#727273;fill-opacity:1;fill-rule:nonzero;stroke:none;stroke-width:0.1" id="path44"/>
    <path d="M 788.593,872.24 684.089,664.48 c -0.761,4.43 -1.701,9.77 -2.769,15.89 -3.132,17.93 -7.44,42.48 -12.363,70.42 -11.33,64.31 -26.009,146.51 -37.41,206.95 l 5.973,1.92 64.632,20.84 13.356,42.43 48.126,12.67 c 0,0 10.751,-21.03 20.361,-120.38 1.775,-13.03 3.385,-27.4 4.598,-42.98" style="fill:#525252;fill-opacity:1;fill-rule:nonzero;stroke:none;stroke-width:0.1" id="path46"/>
    <path d="m 742.619,1008.94 -2.419,20.74 c -40.531,-10.76 -148.823,30.09 -148.823,30.09 0,0 -39.264,-34.52 -34.109,-117.25 2.516,-40.39 7.113,-211.98 11.913,-262.76 1.735,-18.4 3.255,-31.49 3.875,-36.73 l 0.012,-0.05 c 0.191,-1.59 -0.366,-3.1 -1.177,-4.49 -7.067,-12 -12.919,-24.49 -17.719,-37.27 -47.117,-125.55 7.257,-280.18 7.257,-280.18 l 14.11,5.69 c 0,0 30.941,172.08 56.084,248.1 4.268,12.89 8.359,23.02 12.109,29.08 10.929,17.64 21.075,46.47 30.283,80.76 17.403,64.82 31.41,149.15 40.733,214.24 1.286,-0.06 27.871,110.03 27.871,110.03" style="fill:#727273;fill-opacity:1;fill-rule:nonzero;stroke:none;stroke-width:0.1" id="path48"/>
    <path d="m 1061.93,1035.44 c -8.72,-7.72 -31.88,18.79 -35.07,22.31 -0.16,0.34 -0.33,0.51 -0.33,0.51 l 7.05,19.63 c 0,0 30.36,1.17 35.39,-3.86 5.04,-5.04 2.52,-30.37 -7.04,-38.59" style="fill:#ed985f;fill-opacity:1;fill-rule:nonzero;stroke:none;stroke-width:0.1" id="path50"/>
    <path d="m 1033.58,1077.89 -3.02,-20.31 c 0,0 -1.35,0 -3.7,0.17 -7.38,0.51 -25.33,1.51 -45.628,3.69 -30.533,3.02 -66.772,8.39 -81.2,17.28 -21.976,13.42 -58.047,54.53 -81.534,95.63 -0.672,1.01 -1.174,2.01 -1.678,3.02 -12.247,21.81 -20.803,43.45 -21.473,60.73 -0.504,10.57 0.67,19.63 2.851,27.52 2.851,10.4 7.55,18.62 12.415,24.82 0.672,1.01 1.342,2.02 2.349,2.86 8.053,9.56 15.938,13.59 15.938,13.59 4.026,1.67 8.388,-0.34 12.917,-5.2 v -0.17 c 3.691,-3.86 7.718,-9.73 11.576,-17.12 0.168,-0.16 0.336,-0.33 0.336,-0.5 0.839,-1.51 1.678,-3.19 2.685,-5.03 0.334,-0.34 0.502,-0.84 0.67,-1.18 1.846,-3.85 3.69,-7.88 5.537,-12.07 20.635,-44.97 42.613,-113.08 60.9,-133.38 7.884,-8.72 43.956,-25.83 72.642,-38.59 20.637,-9.06 37.417,-15.76 37.417,-15.76" style="fill:#ed985f;fill-opacity:1;fill-rule:nonzero;stroke:none;stroke-width:0.1" id="path52"/>
    <path d="m 820.049,1260.57 c -12.724,-5.9 -28.091,-9.92 -46.678,-10.93 -69.681,-3.82 -85.5,57.26 -88.378,97.8 10.045,3.64 18.841,3.3 23.909,3.03 4.941,-0.28 10.1,-0.78 14.352,-1.31 8.526,4.46 23.837,26.08 32.687,62.27 l 3.005,-1.4 50.279,-23.64 c 0,0 -5.338,-16.36 -9.284,-32.01 -3.077,-12.26 -5.286,-24.09 -3.439,-27.4 3.964,-1.62 6.335,-2.63 6.335,-2.63 l 0.017,-0.06 c 0.507,-1.28 11.438,-29.13 17.195,-63.72" style="fill:#ffb27d;fill-opacity:1;fill-rule:nonzero;stroke:none;stroke-width:0.1" id="path54"/>
    <path d="m 837.479,1214.85 c -0.526,-1.39 -1.105,-2.75 -1.739,-4.14 -17.645,-38.01 -50.316,-195.46 -50.316,-195.46 4.652,-28.3 -212.736,5.56 -213.297,31.33 -7.656,27.33 27.167,71.24 46.806,93.27 2.46,2.77 4.669,5.74 6.588,8.87 4.849,7.85 7.927,16.72 8.904,25.99 3.856,36.53 2.388,70.77 2.714,91.59 v 0.01 c 3.838,2.84 7.549,5.46 11.005,7.96 5.284,3.86 9.955,7.46 13.394,11.11 3.782,3.99 6.153,8.06 6.423,12.65 0.2,3.48 0.092,7.05 -0.27,10.61 -0.164,1.68 -0.38,3.37 -0.634,5.05 -2.715,17.68 -10.099,33.72 -10.099,33.72 18.696,7.56 51.944,3.06 51.944,3.06 0,0 -0.036,-1.85 -0.054,-4.87 -0.109,-12.15 0,-43.33 3.891,-49.23 4.869,-7.35 93.933,-39.55 98.641,-29.58 4.632,9.82 -8.055,55.77 -8.526,57.5 l -0.017,0.06 c 29.826,-11.71 40.487,-21.54 40.487,-21.54 -17.973,-11.65 8.054,-51.09 -5.845,-87.96" style="fill:#d8d9db;fill-opacity:1;fill-rule:nonzero;stroke:none;stroke-width:0.1" id="path56"/>
    <path d="m 809.226,1386.38 c 0,0 -5.346,-16.34 -9.284,-32.01 -29.388,8.2 -38.313,39.09 -41,55.65 l 50.284,-23.64" style="fill:#ed985f;fill-opacity:1;fill-rule:nonzero;stroke:none;stroke-width:0.1" id="path58"/>
    <path d="m 815.416,1369.08 c 0,0 -70.313,16.27 -59.505,59.9 10.807,43.63 9.011,75.12 54.36,66.57 45.351,-8.54 49.916,-27.34 49.85,-42.79 -0.066,-15.44 -26.137,-86.79 -44.705,-83.68" style="fill:#ffb27d;fill-opacity:1;fill-rule:nonzero;stroke:none;stroke-width:0.1" id="path60"/>
    <path d="m 864.075,1477.54 c -7.558,15.81 -16.455,14.97 -22.02,12.16 -33.038,30.57 -83.113,15.21 -83.113,15.21 -12.473,-30.13 -21.836,-52.06 -21.836,-52.06 0,0 10.801,-11.06 42.109,-10.81 9.562,0.07 19.178,4.46 27.927,10.51 -16.875,-16.99 -36.662,-27.34 -36.662,-27.34 39.189,7.5 65.469,52.87 68.161,57.69 3.319,-4.91 9.67,-15.34 10.205,-24.15 0.726,-11.98 -3.394,-35.24 3.464,-36.12 0,0 23.101,31.19 11.765,54.91" style="fill:#2c3a64;fill-opacity:1;fill-rule:nonzero;stroke:none;stroke-width:0.1" id="path62"/>
    <path d="m 843.331,1302.82 c 0,0 16.93,-29.53 19.462,-37.13 0,0 -21.953,0.84 -30.818,-16.05 0,0 -2.126,49.2 11.356,53.18" style="fill:#d8d9db;fill-opacity:1;fill-rule:nonzero;stroke:none;stroke-width:0.1" id="path64"/>
    <path d="m 726.893,1068.16 c -42.877,0.45 -79.184,44.97 -101.372,80.56 4.849,7.85 7.927,16.72 8.904,25.99 3.856,36.53 2.388,70.77 2.714,91.59 v 0.01 c 3.838,2.84 7.549,5.46 11.005,7.96 5.284,3.86 9.955,7.46 13.394,11.11 35.11,-59.34 123.489,-217.84 65.355,-217.22" style="fill:#b0b0b0;fill-opacity:1;fill-rule:nonzero;stroke:none;stroke-width:0.1" id="path66"/>
    <path d="M 643.462,309.52 H 531.806 c 0,0 -2.676,17.02 3.155,29.93 5.59,12.38 14.343,18.01 12.247,33 7.095,-7.3 18.658,-15.48 34.8,-13.31 1.978,-3.21 12.766,-20.37 19.374,-25.11 7.296,-5.25 39.833,-3.38 42.08,-24.51" style="fill:#525252;fill-opacity:1;fill-rule:nonzero;stroke:none;stroke-width:0.1" id="path68"/>
    <path d="M 883.2,309.52 H 771.545 c 0,0 -4.173,17.81 3.157,29.93 6.488,10.72 4,16.83 -0.806,25.7 5.059,-2.07 11.603,-3.96 18.807,-3.55 5.563,0.32 11.446,2.85 16.605,5.85 4.805,-5.48 25.383,-28.8 31.813,-33.42 7.296,-5.25 39.832,-3.38 42.079,-24.51" style="fill:#525252;fill-opacity:1;fill-rule:nonzero;stroke:none;stroke-width:0.1" id="path70"/>
    <path d="m 987.012,1129.31 -108.643,-141.33 1.611,-1.97 110.186,141.59 -3.154,1.71" style="fill:#525252;fill-opacity:1;fill-rule:nonzero;stroke:none;stroke-width:0.1" id="path72"/>
    <path d="M 989.955,1127.33 H 1100.21 L 984.795,986.01 H 879.98 l 109.975,141.32" style="fill:#727273;fill-opacity:1;fill-rule:nonzero;stroke:none;stroke-width:0.1" id="path74"/>
    <path d="m 967.277,1041.57 c -0.306,5.62 -7.723,5.37 -13.356,5.39 -9.24,0.05 -23.816,0.68 -32.247,3.91 0,0 26.925,0.39 21.203,8.9 -1.043,1.54 -14.426,0.37 -29.369,0.37 -6.127,0 -21.273,-8.4 -20.491,-8.79 -10.827,1.43 -20.671,3.53 -23.853,4.22 -7.383,4.03 -16.274,8.89 -25.668,14.26 -22.649,12.75 -48.653,28.35 -66.436,41.27 -10.234,7.38 -17.952,13.93 -20.635,18.62 -4.195,7.22 -8.893,18.63 -14.093,32.72 -2.684,7.38 -5.537,15.43 -8.389,23.99 -5.033,14.09 -10.066,29.36 -15.267,44.62 -9.394,27.85 -19.461,55.87 -29.023,77.51 -6.206,13.59 -12.247,24.83 -17.951,31.71 -4.53,5.54 -8.892,8.39 -13.086,7.72 -0.671,-0.17 -1.175,-0.34 -1.678,-0.5 0,0 -24.158,-6.71 -24.494,-55.37 -0.168,-2.68 0,-5.53 0.168,-8.55 0.336,-8.56 2.013,-18.96 4.53,-30.37 4.026,-19.12 10.737,-41.27 19.125,-63.75 2.349,-6.04 4.697,-12.25 7.214,-18.46 18.119,-44.96 41.439,-86.9 61.067,-101.16 0.84,-0.67 1.51,-1.17 2.348,-1.68 8.221,-5.2 20.301,-10.4 34.225,-15.26 19.796,-6.72 43.284,-12.75 64.255,-17.79 h 0.168 c 12.247,-2.68 23.488,-5.2 32.882,-7.04 0,0 1.542,-0.39 4.287,-0.93 0.393,-0.08 0.809,-0.16 1.249,-0.25 8.893,-2.18 27.178,-6.88 44.459,-13.59 24.16,-9.56 41.931,2.33 49.994,10.74 5.112,5.33 9.142,12.41 8.862,17.54" style="fill:#ffb27d;fill-opacity:1;fill-rule:nonzero;stroke:none;stroke-width:0.1" id="path76"/>
    <path d="m 689.594,1308.49 c -32.298,8.91 -57.212,-16.31 -57.212,-16.31 0.406,48.57 24.585,55.22 24.585,55.22 9.727,4.03 30.295,-6.84 32.627,-38.91" style="fill:#d8d9db;fill-opacity:1;fill-rule:nonzero;stroke:none;stroke-width:0.1" id="path78"/>
    <path d="m 821.582,1567.7 c -16.001,3.66 -29.543,3.39 -40.981,0.58 -1.132,-0.28 -2.254,-0.58 -3.351,-0.91 l -0.016,-0.01 c -43.681,-13.06 -54.679,-63.66 -54.679,-63.66 0,0 -1.828,-13.27 -1.365,-19.02 0.464,-5.74 42.074,-20.58 48.379,-13.19 6.305,7.38 18.502,12.19 18.502,12.19 0,0 42.592,-18.13 45.462,-19.34 9.64,-4.06 40.873,-8.35 40.873,-8.35 1.025,2.76 28.256,93.15 -52.824,111.71" style="fill:#ffa412;fill-opacity:1;fill-rule:nonzero;stroke:none;stroke-width:0.1" id="path80"/>
    <path d="m 903.238,1452.32 c -4.322,3.72 -12.056,9.35 -25.667,16.92 0,0 -16.561,-3.71 -43.461,0.73 -3.899,19.26 -18.067,68.09 -53.509,98.31 -0.106,0.09 -0.201,0.18 -0.307,0.27 -1.408,-0.64 -2.078,-0.76 -3.044,-1.18 l -0.016,-0.01 c -0.289,-0.12 -0.61,-0.27 -0.981,-0.48 29.943,-22.46 42.378,-75.27 46.06,-94.55 -10.35,2.42 -21.842,6.03 -34.242,11.35 0,0 31.711,-33.77 112.926,-37.41 3.174,-0.14 4.649,3.98 2.241,6.05" style="fill:#e27f2b;fill-opacity:1;fill-rule:nonzero;stroke:none;stroke-width:0.1" id="path82"/>
    <path d="m 987.012,1129.31 h 110.878 l 2.32,-1.98 H 989.955 l -2.943,1.98" style="fill:#525252;fill-opacity:1;fill-rule:nonzero;stroke:none;stroke-width:0.1" id="path84"/>
    <path d="m 1822.76,462.94 h -199.65 c -3.94,0 -7.13,3.36 -7.13,7.5 0,4.14 3.19,7.5 7.13,7.5 h 199.65 c 3.94,0 7.14,-3.36 7.14,-7.5 0,-4.14 -3.2,-7.5 -7.14,-7.5" style="fill:#727273;fill-opacity:1;fill-rule:nonzero;stroke:none;stroke-width:0.1" id="path86"/>
    <path d="m 1824.75,693.94 h -203.62 c -4.02,0 -7.28,3.36 -7.28,7.5 0,4.14 3.26,7.5 7.28,7.5 h 203.62 c 4.01,0 7.27,-3.36 7.27,-7.5 0,-4.14 -3.26,-7.5 -7.27,-7.5" style="fill:#727273;fill-opacity:1;fill-rule:nonzero;stroke:none;stroke-width:0.1" id="path88"/>
    <path d="m 1950.87,1038.09 c 12.08,-2.79 66.66,-3.45 105,5.16 7.99,1.79 15.29,3.98 21.33,6.65 7.22,3.18 12.66,7.03 15.44,11.66 4.33,7.22 12.26,31.93 21.58,64.33 25.67,89.25 61.79,236.72 61.79,236.72 0,0 -72.53,-14.8 -87.88,-27.44 -15.36,-12.64 -28.91,-213.1 -43.34,-218.52 -2.13,-0.8 -5.8,-2.48 -10.5,-4.79 -0.23,-0.11 -0.46,-0.23 -0.69,-0.34 -2.81,-1.38 -5.96,-2.98 -9.38,-4.74 -29.94,-15.39 -79.5,-43.12 -84.64,-49.28 -6.77,-8.13 -6.32,-15.35 11.29,-19.41" style="fill:#d8d9db;fill-opacity:1;fill-rule:nonzero;stroke:none;stroke-width:0.1" id="path90"/>
    <path d="m 2090.04,1248.48 c 0,3.42 0.34,6.83 0.96,10.26 9.33,51.32 83.55,103.87 85.01,103.87 l 0.01,-1.07 c 0,-7.84 12.37,-22.32 31.41,-23.56 22.6,-1.48 50.48,11.41 50.48,24.42 0.14,0 12.7,-1.7 16.95,-2.17 18.11,-2.06 54.25,-11.84 69.73,-23.54 14.72,-11.12 -6.08,-81.25 -18.96,-130.9 -5.46,-21.01 -9.48,-38.35 -8.82,-46.03 0.32,-3.75 3.7,-54.72 6.7,-100.82 2.5,-38.04 4.74,-72.75 4.81,-74.94 0.16,-4.32 -21.32,-19.45 -57.39,-30.88 -8.71,-2.76 -18.28,-5.31 -28.61,-7.42 -18.51,-3.81 -39.45,-6.26 -62.23,-6.18 -7.45,0.03 -14.51,0.41 -21.17,1.07 -51.53,5.06 -69.18,63.77 -68.88,307.89" style="fill:#d8d9db;fill-opacity:1;fill-rule:nonzero;stroke:none;stroke-width:0.1" id="path92"/>
    <path d="m 2257.89,1363.01 c 0.44,19.93 0.11,43.73 -2.58,63.84 l -79.56,-13.01 c 0,0 -0.09,-24.28 0.26,-51.23 -0.05,0 -2.16,-24.99 28.62,-28.64 30.78,-3.66 54.09,9.75 53.26,29.04" style="fill:#e6b389;fill-opacity:1;fill-rule:nonzero;stroke:none;stroke-width:0.1" id="path94"/>
    <path d="m 2191.33,309.52 c 10.01,6.15 4.13,51.78 4.13,51.78 0,0 -46.86,37.2 -53.17,8.56 -6.32,-28.64 -44.23,-41.62 -65.82,-45.21 -14.91,-2.48 -20.41,-10.18 -21.82,-15.08 l 136.68,-0.05" style="fill:#525252;fill-opacity:1;fill-rule:nonzero;stroke:none;stroke-width:0.1" id="path96"/>
    <path d="m 2264.21,1094.07 c 0,-76.3 36.98,-55.74 59.3,-35.13 -3,46.1 -5.12,209.41 -5.12,209.41 0,0 -54.18,-65.01 -54.18,-174.28" style="fill:#b0b0b0;fill-opacity:1;fill-rule:nonzero;stroke:none;stroke-width:0.1" id="path98"/>
    <path d="m 2024.22,1106.78 c 1.48,-10.7 18.39,-41.86 31.65,-63.53 7.99,1.79 15.29,3.98 21.33,6.65 7.22,3.18 12.66,7.03 15.44,11.66 4.33,7.22 12.26,31.93 21.58,64.33 -6.9,39.87 -13.45,79.25 -13.45,79.25 l -2.03,26.41 c 0,-2.03 -30.93,-118.07 -44.93,-120.78 -8.44,-1.64 -14.43,0.35 -19.52,1.09 -0.23,-0.11 -0.46,-0.23 -0.69,-0.34 -2.81,-1.38 -5.96,-2.98 -9.38,-4.74" style="fill:#b0b0b0;fill-opacity:1;fill-rule:nonzero;stroke:none;stroke-width:0.1" id="path100"/>
    <path d="m 2334.91,309.52 c 10,6.15 4.13,51.78 4.13,51.78 0,0 -46.86,37.2 -53.18,8.56 -6.31,-28.64 -44.22,-41.62 -65.82,-45.21 -14.9,-2.48 -20.32,-10.18 -21.73,-15.08 l 136.6,-0.05" style="fill:#525252;fill-opacity:1;fill-rule:nonzero;stroke:none;stroke-width:0.1" id="path102"/>
    <path d="m 2265.47,1449.79 c 0,0 53.11,83.74 -48.87,89.29 0,0 -38.25,-4.51 -46.91,4.15 0,0 -29.67,-45.09 -1.97,-93.44 27.71,-48.34 97.75,0 97.75,0" style="fill:#525252;fill-opacity:1;fill-rule:nonzero;stroke:none;stroke-width:0.1" id="path104"/>
    <path d="m 2178.11,1406.09 c 7.73,-6.08 30.39,-12.12 36.95,-12.83 0,0 33.61,7.5 39.72,11.18 9.46,5.74 8.85,17.35 9.34,33.49 0.58,19.11 2.51,34.11 0.37,45.13 -2.53,13.17 -10.89,20.67 -34.28,22.71 -42.93,3.72 -60.82,-7.03 -61.57,-21.42 -0.19,-3.87 -0.37,-7.55 -0.5,-11.04 -1.71,-44.9 1.83,-60.82 9.97,-67.22" style="fill:#e6b389;fill-opacity:1;fill-rule:nonzero;stroke:none;stroke-width:0.1" id="path106"/>
    <path d="m 2167.76,1458.59 c 0.41,-26.01 7.43,-41.4 12.51,-43.35 5.85,-2.23 12.73,-4.09 19.91,-5.32 2.42,-0.28 4.74,-0.2 4.71,1.17 -0.08,4.1 -5.56,9.16 -1.48,12.79 4.27,3.81 27.2,5.1 29.05,-3.22 0.9,-4.05 -6.5,-11.21 -1.43,-11.37 1.54,0.26 3.05,0.55 4.49,0.93 8.35,2.18 14.9,6.13 17.66,7.8 9.46,5.73 8.84,14.53 10.94,30.54 1.35,10.36 1.35,4.74 0,-10.63 -1.42,-16.09 1.35,-26.41 -9.34,-33.49 -5.95,-3.93 -40.22,-19.33 -40.22,-19.33 0.5,8.15 -28.72,14.9 -36.45,20.98 -7.18,5.64 -10.78,18.69 -10.35,52.5" style="fill:#525252;fill-opacity:1;fill-rule:nonzero;stroke:none;stroke-width:0.1" id="path108"/>
    <path d="m 2328.32,984.01 c 0.16,-4.32 -21.32,-19.45 -57.39,-30.89 -2.91,-0.92 -5.92,-1.81 -9.01,-2.67 l -0.07,-0.09 c -3.37,-39.48 -12.48,-95.25 -20.69,-149.07 v -0.02 c -2.13,-13.95 -4.19,-27.77 -6.09,-41.13 -5.01,-35.38 -8.76,-67.62 -9.17,-90.82 v -0.25 c -0.17,-10.64 8.81,-37.2 9.48,-43.34 0.42,-3.75 0.76,-7.72 1.01,-11.88 0.97,-16.62 0.58,-36.26 -0.76,-57.23 -5.89,-91.5 -30.07,-208.59 -38.7,-213.57 -17.15,-9.92 -48.35,0.01 -64.22,2.33 -6.56,0.97 -11.82,6.57 -11.48,13.19 7.75,151.87 -14.51,363.37 -31.14,493.39 -0.44,3.38 -0.87,6.7 -1.29,9.97 -1.99,15.33 -3.3,29.65 -4.13,42.56 -0.76,11.32 -1.12,21.6 -1.29,30.51 -0.04,2.78 -0.06,5.43 -0.08,7.94 -0.04,8.14 6.44,61.43 6.73,305.55 0.01,5.64 4.63,10.25 10.27,10.25 h 149.28 c 14.43,0 26.04,-11.81 25.86,-26.23 -0.23,-18.62 0.44,-44.63 4.48,-69.44 5.51,-33.9 17.31,-65.56 41.66,-73.18 l 0.06,-0.05 c 0.11,-0.25 0.78,-1.73 1.85,-4.2 l 0.01,-0.04 c 0.23,-6.13 0.48,-12.37 0.77,-18.72 0.05,-1.28 0.11,-2.56 0.17,-3.85 0.03,-0.76 0.07,-1.5 0.11,-2.26 0.06,-1.29 0.12,-2.59 0.19,-3.89 0.1,-2.14 0.2,-4.29 0.33,-6.48 0.09,-1.7 0.18,-3.41 0.28,-5.13 0.18,-3.3 0.38,-6.65 0.6,-10.02 0.05,-1.09 0.12,-2.16 0.2,-3.25 0.28,-4.36 0.58,-8.79 0.92,-13.25 0.1,-1.37 0.2,-2.74 0.31,-4.12 0.04,-0.66 0.1,-1.32 0.15,-1.99 0.14,-1.75 0.27,-3.49 0.42,-5.25 0.15,-1.86 0.31,-3.73 0.47,-5.61 0.6,-6.86 -0.28,-12.96 -0.1,-17.77" style="fill:#727273;fill-opacity:1;fill-rule:nonzero;stroke:none;stroke-width:0.1" id="path110"/>
    <path d="m 2235.63,556.62 c -5.89,-91.5 -30.07,-208.59 -38.7,-213.57 -17.15,-9.92 -48.35,0.01 -64.22,2.33 -6.56,0.97 -11.82,6.57 -11.48,13.19 7.75,151.87 -14.51,363.37 -31.14,493.39 -0.44,3.38 -0.87,6.7 -1.29,9.97 -1.99,15.33 -3.3,29.65 -4.13,42.56 7.91,51.55 52.55,54.31 93.04,-52.33 -5.01,-35.38 59.26,-274.57 57.92,-295.54" style="fill:#525252;fill-opacity:1;fill-rule:nonzero;stroke:none;stroke-width:0.1" id="path112"/>
    <path d="m 2329.99,673.62 c 1.23,-10.58 13.61,-35.73 15.09,-41.72 20.47,-82.31 9.17,-277.49 -0.98,-285.29 -15.7,-12.08 -47.95,-6.34 -63.97,-6.12 -6.64,0.09 -12.58,4.96 -13.12,11.56 -12.58,155.51 -64.73,369.09 -98.27,494.74 -16.88,63.29 -19.28,109.82 -19.28,109.82 0,0 156.74,96.03 173.69,43.57 15.01,-46.42 -2.61,-245.33 6.84,-326.56" style="fill:#727273;fill-opacity:1;fill-rule:nonzero;stroke:none;stroke-width:0.1" id="path114"/>
    <path d="m 2170.35,1562.49 c 1.08,1.22 2.23,2.4 3.44,3.54 5.11,4.86 11.27,9.05 18.67,12.14 27.33,11.4 50,0.87 64.16,-9.9 1.4,-1.05 2.71,-2.12 3.93,-3.17 7.7,-6.54 12,-12.38 12,-12.38 0,0 13.27,-18.11 12.83,-56.28 l -136.72,-1.46 c 0,0 -2,41.23 21.69,67.51" style="fill:#ffa412;fill-opacity:1;fill-rule:nonzero;stroke:none;stroke-width:0.1" id="path116"/>
    <path d="m 2247.01,1496.05 -7.51,-0.09 c -0.15,2.18 0.22,51.8 18.72,71.06 1.4,-1.05 1.11,-0.87 2.33,-1.92 -17.58,-16.96 -13.57,-68.54 -13.54,-69.05" style="fill:#e27f2b;fill-opacity:1;fill-rule:nonzero;stroke:none;stroke-width:0.1" id="path118"/>
    <path d="m 2187.6,1495.4 c -1.56,30.38 -13.19,62.3 -16.33,67.97 1.08,1.25 1.31,1.48 2.52,2.66 2.18,-3.75 20.01,-36.81 21.89,-70.55 l 89.7,0.96 c 0,0 -45.45,-10.19 -72.88,-10.53 -27.42,-0.34 -63.84,9.07 -63.84,9.07 l 38.94,0.42" style="fill:#e27f2b;fill-opacity:1;fill-rule:nonzero;stroke:none;stroke-width:0.1" id="path120"/>
    <path d="m 2280.23,1359.5 c 0,0 -46.2,-53.81 -48.9,-100.77 l 23.53,-1.24 c 0,0 5.93,52.29 40.69,98.8 0,0 -5.44,1.31 -7.25,1.67 -2.42,0.48 -8.07,1.54 -8.07,1.54" style="fill:#727273;fill-opacity:1;fill-rule:nonzero;stroke:none;stroke-width:0.1" id="path122"/>
    <path d="m 2165.06,1360.24 c -33.09,-50.07 -36.64,-102.52 -36.64,-102.52 l -23.75,0.41 c 1.95,36.91 25.14,77.51 37.94,96.74 0,0 16.43,4.15 22.45,5.37" style="fill:#727273;fill-opacity:1;fill-rule:nonzero;stroke:none;stroke-width:0.1" id="path124"/>
    <path d="m 2317.2,1070.63 c -1.16,-55.11 5.7,-164.83 5.7,-164.83 h 32.51 c 15.35,77.2 20.77,126.87 20.77,153.96 0,5.34 -0.03,10.31 -0.07,14.9 -0.2,23.13 -0.83,36.57 -0.83,36.57 6.1,140.18 -21.9,215.14 -30.69,225.46 -8.8,10.32 -49.03,19.6 -49.03,19.6 0,0 -13.29,-38.73 -18.71,-69.88 -5.42,-31.15 42.61,-162.05 40.64,-206.79 -0.13,-2.79 -0.22,-5.8 -0.29,-8.99" style="fill:#d8d9db;fill-opacity:1;fill-rule:nonzero;stroke:none;stroke-width:0.1" id="path126"/>
    <path d="m 2322.9,905.8 c 0,0 -6.86,109.72 -5.7,164.83 26,8.38 46.96,6.54 58.91,4.03 0.04,-4.59 0.07,-9.56 0.07,-14.9 0,-27.09 -5.42,-76.76 -20.77,-153.96 6.77,-28.45 6.32,-59.15 -5.42,-64.57 -11.73,-5.42 -50.56,14.9 -50.11,23.93 0.45,9.03 23.02,40.64 23.02,40.64" style="fill:#e6b389;fill-opacity:1;fill-rule:nonzero;stroke:none;stroke-width:0.1" id="path128"/>
    <path d="m 1878.12,1032.67 c 3.17,11.62 5.52,18.06 13.52,23.7 11.63,8.2 25.43,5.98 35.71,4.18 7.86,-1.38 16.1,1.26 19.55,2.58 18.21,12.14 63.93,37.17 86.7,48.39 15.53,-9.01 34.62,-26.83 43.6,-61.62 -35.04,-15.46 -111.73,-15.18 -126.33,-11.81 0,0 -13.52,-9.82 -23.81,-10.73 -3.89,-0.34 -8.8,0.79 -13.39,2.33 -7.23,2.42 -14.98,0.01 -20.18,-6.41 -4.99,-6.18 -10.35,-6.17 -13.05,-6.17 -4.19,0 -4.31,8.24 -2.32,15.56" style="fill:#e6b389;fill-opacity:1;fill-rule:nonzero;stroke:none;stroke-width:0.1" id="path130"/>
    <path d="m 1835.44,337.61 h -242.17 c -4.14,0 -13.42,3.36 -13.42,7.5 0,4.14 31.15,7.5 35.29,7.5 h 205.3 v 634.98 c 0,25.93 21.09,47.02 47.01,47.02 h 52.49 c 4.14,0 7.5,-3.36 7.5,-7.5 0,-4.14 -3.36,-7.5 -7.5,-7.5 h -52.49 c -17.65,0 -32.01,-14.36 -32.01,-32.02 V 337.61" style="fill:#727273;fill-opacity:1;fill-rule:nonzero;stroke:none;stroke-width:0.1" id="path132"/>
    <path d="m 1625.44,337.61 h -175.67 c -4.14,0 -7.5,3.36 -7.5,7.5 0,4.14 3.36,7.5 7.5,7.5 h 160.67 v 634.98 c 0,25.93 21.09,47.02 47.01,47.02 h 52.49 c 4.14,0 7.5,-3.36 7.5,-7.5 0,-4.14 -3.36,-7.5 -7.5,-7.5 h -52.49 c -17.65,0 -32.01,-14.36 -32.01,-32.02 V 337.61" style="fill:#727273;fill-opacity:1;fill-rule:nonzero;stroke:none;stroke-width:0.1" id="path134"/>
    <path d="m 1823.11,923.94 h -200.35 c -3.95,0 -7.16,3.36 -7.16,7.5 0,4.14 3.21,7.5 7.16,7.5 h 200.35 c 3.96,0 7.16,-3.36 7.16,-7.5 0,-4.14 -3.2,-7.5 -7.16,-7.5" style="fill:#727273;fill-opacity:1;fill-rule:nonzero;stroke:none;stroke-width:0.1" id="path136"/>
    <path d="m 1932.27,1014.61 h -64.82 c -6.9,0 -12.5,5.6 -12.5,12.5 0,6.9 5.6,12.5 12.5,12.5 h 64.82 c 6.9,0 12.5,-5.6 12.5,-12.5 0,-6.9 -5.6,-12.5 -12.5,-12.5" style="fill:#963333;fill-opacity:1;fill-rule:nonzero;stroke:none;stroke-width:0.1" id="path138"/>
    <path d="m 1867.45,1034.61 c -23.6,0 -43.18,-17.48 -46.51,-40.17 h 15.24 c 3.15,14.37 15.97,25.17 31.27,25.17 4.14,0 7.5,3.36 7.5,7.5 0,4.14 -3.36,7.5 -7.5,7.5" style="fill:#727273;fill-opacity:1;fill-rule:nonzero;stroke:none;stroke-width:0.1" id="path140"/>
    <path d="m 1722.27,1014.61 h -64.82 c -6.9,0 -12.5,5.6 -12.5,12.5 0,6.9 5.6,12.5 12.5,12.5 h 64.82 c 6.9,0 12.5,-5.6 12.5,-12.5 0,-6.9 -5.6,-12.5 -12.5,-12.5" style="fill:#963333;fill-opacity:1;fill-rule:nonzero;stroke:none;stroke-width:0.1" id="path142"/>
    <path d="m 1657.45,1034.61 c -23.6,0 -43.18,-17.48 -46.51,-40.17 h 15.24 c 3.15,14.37 15.97,25.17 31.27,25.17 4.14,0 7.5,3.36 7.5,7.5 0,4.14 -3.36,7.5 -7.5,7.5" style="fill:#727273;fill-opacity:1;fill-rule:nonzero;stroke:none;stroke-width:0.1" id="path144"/>
    <path d="m 1578.02,574.38 249.61,4.4 0.69,-226.17 H 1578.7 l -0.68,221.77" style="fill:#d3671e;fill-opacity:1;fill-rule:nonzero;stroke:none;stroke-width:0.1" id="path146"/>
    <path d="m 1503.12,574 199.84,0.77 0.55,-222.29 -199.84,0.13 -0.55,221.39" style="fill:#f1a34f;fill-opacity:1;fill-rule:nonzero;stroke:none;stroke-width:0.1" id="path148"/>
    <path d="m 1503.3,503.94 v 0 l -0.18,70.06 0.18,-70.06" style="fill:#d9d9b5;fill-opacity:1;fill-rule:nonzero;stroke:none;stroke-width:0.1" id="path150"/>
    <path d="m 1703.51,352.48 v 0 l -200.21,151.46 -0.18,70.06 34.66,0.13 v -0.03 l 165.18,0.64 0.55,-222.26" style="fill:#e78b37;fill-opacity:1;fill-rule:nonzero;stroke:none;stroke-width:0.1" id="path152"/>
    <path d="m 1852.27,469.94 h -30 c -35.62,0 -64.5,-35.37 -64.5,-79 0,-43.63 28.88,-79 64.5,-79 h 30 c 35.62,0 64.5,35.37 64.5,79 0,43.63 -28.88,79 -64.5,79" style="fill:#525252;fill-opacity:1;fill-rule:nonzero;stroke:none;stroke-width:0.1" id="path154"/>
    <path d="m 1916.77,390.94 c 0,-43.63 -28.88,-79 -64.5,-79 -35.62,0 -64.5,35.37 -64.5,79 0,43.63 28.88,79 64.5,79 35.62,0 64.5,-35.37 64.5,-79" style="fill:#727273;fill-opacity:1;fill-rule:nonzero;stroke:none;stroke-width:0.1" id="path156"/>
    <path d="m 1893.09,390.94 c 0,-27.61 -18.27,-50 -40.82,-50 -22.55,0 -40.82,22.39 -40.82,50 0,27.62 18.27,50 40.82,50 22.55,0 40.82,-22.38 40.82,-50" style="fill:#b0b0b0;fill-opacity:1;fill-rule:nonzero;stroke:none;stroke-width:0.1" id="path158"/>
    <path d="m 1622.86,827.9 287.24,0.88 -0.79,-253.36 -285.67,-0.88 -0.78,253.36" style="fill:#d3671e;fill-opacity:1;fill-rule:nonzero;stroke:none;stroke-width:0.1" id="path160"/>
    <path d="m 1537.15,827.46 228.7,0.88 0.63,-253.36 -228.7,-0.88 -0.63,253.36" style="fill:#f1a34f;fill-opacity:1;fill-rule:nonzero;stroke:none;stroke-width:0.1" id="path162"/>
    <path d="m 1766.48,574.98 -229.13,171.48 -0.2,81 228.7,0.88 0.63,-253.36" style="fill:#e78b37;fill-opacity:1;fill-rule:nonzero;stroke:none;stroke-width:0.1" id="path164"/>
    <path d="m 1950.87,1038.09 c 0,0 -24.33,-16.56 -30.77,-12.48 -6.43,4.08 4.5,13.33 -5.83,16.66 -10.33,3.34 36.6,-4.18 36.6,-4.18" style="fill:#e6b389;fill-opacity:1;fill-rule:nonzero;stroke:none;stroke-width:0.1" id="path166"/>
    <path d="M 2811.92,306.03 H 188.079 c -1.639,0 -2.979,1.34 -2.979,2.98 v 1.02 c 0,1.64 1.34,2.98 2.979,2.98 H 2811.92 c 1.64,0 2.98,-1.34 2.98,-2.98 v -1.02 c 0,-1.64 -1.34,-2.98 -2.98,-2.98" style="fill:#2e3552;fill-opacity:1;fill-rule:nonzero;stroke:none;stroke-width:0.1" id="path168"/>
  </g>
</svg>